<?xml version="1.0" encoding="UTF-8" standalone="no"?>
<!-- Created with Inkscape (http://www.inkscape.org/) -->

<svg
   xmlns:dc="http://purl.org/dc/elements/1.1/"
   xmlns:cc="http://creativecommons.org/ns#"
   xmlns:rdf="http://www.w3.org/1999/02/22-rdf-syntax-ns#"
   xmlns:svg="http://www.w3.org/2000/svg"
   xmlns="http://www.w3.org/2000/svg"
   xmlns:sodipodi="http://sodipodi.sourceforge.net/DTD/sodipodi-0.dtd"
   xmlns:inkscape="http://www.inkscape.org/namespaces/inkscape"
   width="86.551544mm"
   height="87.059616mm"
   viewBox="0 0 86.551544 87.059616"
   version="1.1"
   id="svg919"
   inkscape:version="0.92.3 (2405546, 2018-03-11)"
   sodipodi:docname="symposium_logo.svg">
  <defs
     id="defs913" />
  <sodipodi:namedview
     id="base"
     pagecolor="#ffffff"
     bordercolor="#666666"
     borderopacity="1.0"
     inkscape:pageopacity="0.0"
     inkscape:pageshadow="2"
     inkscape:zoom="0.35"
     inkscape:cx="223.28999"
     inkscape:cy="365.18084"
     inkscape:document-units="mm"
     inkscape:current-layer="layer1"
     showgrid="false"
     fit-margin-top="0"
     fit-margin-left="0"
     fit-margin-right="0"
     fit-margin-bottom="0"
     inkscape:window-width="960"
     inkscape:window-height="1028"
     inkscape:window-x="960"
     inkscape:window-y="24"
     inkscape:window-maximized="0" />
  <metadata
     id="metadata916">
    <rdf:RDF>
      <cc:Work
         rdf:about="">
        <dc:format>image/svg+xml</dc:format>
        <dc:type
           rdf:resource="http://purl.org/dc/dcmitype/StillImage" />
        <dc:title></dc:title>
      </cc:Work>
    </rdf:RDF>
  </metadata>
  <g
     inkscape:label="Layer 1"
     inkscape:groupmode="layer"
     id="layer1"
     transform="translate(-61.621094,-156.84833)">
    <rect
       style="opacity:1;vector-effect:none;fill:none;fill-opacity:1;stroke:#49938d;stroke-width:5;stroke-linecap:butt;stroke-linejoin:round;stroke-miterlimit:4;stroke-dasharray:none;stroke-dashoffset:0;stroke-opacity:1"
       id="rect1485"
       width="81.551544"
       height="82.059616"
       x="64.121094"
       y="159.34833"
       ry="13.630746"
       rx="13.630746" />
    <g
       transform="matrix(0.26458333,0,0,0.26458333,-298.12655,14.031526)"
       id="g1518">
      <path
         inkscape:export-ydpi="505"
         inkscape:export-xdpi="505"
         inkscape:export-filename="/home/christophe/text1705-1-3.png"
         sodipodi:nodetypes="cccccccscccacccscccccccsccccsssccc"
         inkscape:connector-curvature="0"
         id="path1749"
         d="m 1526.0022,789.16024 c 0.5597,-0.4319 1.5943,0.1954 2.8725,-69.3257 l -0.6867,-23.6405 c -14.2476,1.5502 -6.2202,5.825 -14.2476,1.5502 0.6554,14.6564 -1.6843,71.6943 1.9661,91.9157 3.5992,0.8043 8.7349,0.5501 10.0957,-0.4997 z m 77.4346,-103.5762 c 11.2629,-10.2875 20.4779,-19.1772 20.4779,-19.7549 0,-1.534 3.1897,-1.6244 -14.778,-2.0929 -22.1512,-2.2331 -13.9023,2.0895 -15.4151,-4.3944 l -9.1032,-8.2177 c -6.1068,-4.5196 -10.9527,-6.9978 -15.6788,-11.4062 -1.9775,-1.8445 -4.7271,-3.9034 -5.2168,-6.2128 -1.1405,-2.074 -2.7716,-5.0142 -18.2099,-14.0197 -10.1794,-5.9379 -21.4175,-6.7864 -24.6261,-4.3561 -0.9579,0.7255 -1.7417,2.3168 -1.7417,3.5362 0,1.9004 1.8402,3.4191 12.8908,10.6382 l 12.8909,8.4212 h 5.586 5.5861 l 14.8589,11.1892 14.8589,11.189 c 0.3885,4.2928 1.1347,3.3734 -12.5507,2.8469 -6.4552,-0.2483 -25.2378,-0.8306 -41.739,-1.294 -16.5012,-0.4634 -37.0741,-1.0474 -45.7176,-1.2978 l -15.7155,-0.4552 -25.3967,17.3226 c -11.6227,10.1302 -36.0575,18.7716 -12.404,19.8236 6.6465,0.286 18.7279,0.8657 26.8475,1.2883 8.1197,0.4226 25.4781,1.2936 38.5743,1.9357 49.1582,2.41 60.3037,2.9678 71.4339,3.575 6.2861,0.343 11.965,0.5823 12.6198,0.5319 0.6546,-0.05 10.4053,-8.5087 21.6682,-18.7961 z"
         style="fill:#49938d;fill-opacity:1;stroke-width:1" />
      <path
         inkscape:export-ydpi="505"
         inkscape:export-xdpi="505"
         inkscape:export-filename="/home/christophe/text1705-1-3.png"
         sodipodi:nodetypes="ccccc"
         inkscape:connector-curvature="0"
         id="path1759"
         d="m 1463.3635,792.33074 41.8979,-27.7636 76.4602,0.7747 -41.5583,29.4038 z"
         style="fill:#49938d;fill-opacity:1;stroke:none;stroke-width:1px;stroke-linecap:butt;stroke-linejoin:miter;stroke-opacity:1" />
    </g>
  </g>
</svg>
