<?xml version="1.0" encoding="UTF-8" standalone="no"?>
<!-- Generator: Adobe Illustrator 21.1.0, SVG Export Plug-In . SVG Version: 6.00 Build 0)  -->

<svg
   xmlns:dc="http://purl.org/dc/elements/1.1/"
   xmlns:cc="http://creativecommons.org/ns#"
   xmlns:rdf="http://www.w3.org/1999/02/22-rdf-syntax-ns#"
   xmlns:svg="http://www.w3.org/2000/svg"
   xmlns="http://www.w3.org/2000/svg"
   xmlns:xlink="http://www.w3.org/1999/xlink"
   xmlns:sodipodi="http://sodipodi.sourceforge.net/DTD/sodipodi-0.dtd"
   xmlns:inkscape="http://www.inkscape.org/namespaces/inkscape"
   version="1.1"
   id="Layer_1"
   x="0px"
   y="0px"
   viewBox="0 0 133.18 47.56"
   style="enable-background:new 0 0 133.18 47.56;"
   xml:space="preserve"
   sodipodi:docname="kuleuven-greyscale.svg"
   inkscape:version="0.92.3 (2405546, 2018-03-11)"><metadata
   id="metadata14129"><rdf:RDF><cc:Work
       rdf:about=""><dc:format>image/svg+xml</dc:format><dc:type
         rdf:resource="http://purl.org/dc/dcmitype/StillImage" /><dc:title></dc:title></cc:Work></rdf:RDF></metadata><defs
   id="defs14127" /><sodipodi:namedview
   pagecolor="#ffffff"
   bordercolor="#666666"
   borderopacity="1"
   objecttolerance="10"
   gridtolerance="10"
   guidetolerance="10"
   inkscape:pageopacity="0"
   inkscape:pageshadow="2"
   inkscape:window-width="1920"
   inkscape:window-height="1056"
   id="namedview14125"
   showgrid="false"
   inkscape:zoom="4.6853885"
   inkscape:cx="47.238671"
   inkscape:cy="42.810402"
   inkscape:window-x="0"
   inkscape:window-y="24"
   inkscape:window-maximized="1"
   inkscape:current-layer="Layer_1" />
<style
   type="text/css"
   id="style14082">
	.st0{fill:#00407A;}
	.st1{fill:#54BCEB;}
	.st2{fill:#FFFFFF;}
	.st3{clip-path:url(#SVGID_2_);fill:#FFFFFF;}
</style>
<rect
   x="4.76"
   y="4.76"
   class="st0"
   width="128.42"
   height="42.81"
   id="rect14084"
   style="fill:#3d3d3d;fill-opacity:1" />
<polygon
   class="st1"
   points="0,0 0,47.56 4.76,47.56 4.76,4.76 133.17,4.76 133.17,0 "
   id="polygon14086"
   style="fill:#9f9f9f;fill-opacity:1" />
<polygon
   class="st2"
   points="14.27,19.03 18.52,19.03 18.52,23.94 18.56,23.94 22.35,19.03 27.6,19.03 22.59,24.6 28.41,33.29   23.11,33.29 19.7,27.74 18.52,29.08 18.52,33.29 14.27,33.29 "
   id="polygon14088"
   style="fill:#b4b4b4;fill-opacity:1" />
<g
   id="g14110"
   style="fill:#b4b4b4;fill-opacity:1">
	<defs
   id="defs14091">
		<rect
   id="SVGID_1_"
   x="0"
   y="0"
   width="133.17"
   height="47.56" />
	</defs>
	<clipPath
   id="SVGID_2_">
		<use
   xlink:href="#SVGID_1_"
   style="overflow:visible;"
   id="use14093" />
	</clipPath>
	<path
   class="st3"
   d="M41.17,27.77c0,3.95-2.07,5.85-6.29,5.85s-6.31-1.9-6.31-5.85v-8.75h4.26v7.77c0,1.46,0,3.27,2.07,3.27   c2.01,0,2.01-1.82,2.01-3.27v-7.77h4.26V27.77z"
   clip-path="url(#SVGID_2_)"
   id="path14096"
   style="fill:#b4b4b4;fill-opacity:1" />
	<polygon
   class="st3"
   points="47.42,19.03 51.67,19.03 51.67,29.64 57.68,29.64 57.68,33.29 47.42,33.29  "
   clip-path="url(#SVGID_2_)"
   id="polygon14098"
   style="fill:#b4b4b4;fill-opacity:1" />
	<polygon
   class="st3"
   points="58.98,19.03 70.3,19.03 70.3,22.68 63.19,22.68 63.19,24.46 69.65,24.46 69.65,27.86 63.19,27.86    63.19,29.64 70.51,29.64 70.51,33.29 58.98,33.29  "
   clip-path="url(#SVGID_2_)"
   id="polygon14100"
   style="fill:#b4b4b4;fill-opacity:1" />
	<path
   class="st3"
   d="M84.2,27.77c0,3.95-2.07,5.85-6.29,5.85c-4.22,0-6.3-1.9-6.3-5.85v-8.75h4.25v7.77c0,1.46,0,3.27,2.07,3.27   c2.01,0,2.01-1.82,2.01-3.27v-7.77h4.26V27.77z"
   clip-path="url(#SVGID_2_)"
   id="path14102"
   style="fill:#b4b4b4;fill-opacity:1" />
	<polygon
   class="st3"
   points="93.68,33.29 88.92,33.29 84.8,19.03 89.09,19.03 91.36,27.68 91.39,27.68 93.62,19.03 97.99,19.03     "
   clip-path="url(#SVGID_2_)"
   id="polygon14104"
   style="fill:#b4b4b4;fill-opacity:1" />
	<polygon
   class="st3"
   points="98.59,19.03 109.91,19.03 109.91,22.68 102.81,22.68 102.81,24.46 109.26,24.46 109.26,27.86    102.81,27.86 102.81,29.64 110.13,29.64 110.13,33.29 98.59,33.29  "
   clip-path="url(#SVGID_2_)"
   id="polygon14106"
   style="fill:#b4b4b4;fill-opacity:1" />
	<polygon
   class="st3"
   points="111.23,19.03 115.58,19.03 119.6,26.66 119.64,26.66 119.64,19.03 123.66,19.03 123.66,33.29    119.52,33.29 115.29,25.5 115.25,25.5 115.25,33.29 111.23,33.29  "
   clip-path="url(#SVGID_2_)"
   id="polygon14108"
   style="fill:#b4b4b4;fill-opacity:1" />
</g>
<g
   id="g14112">
</g>
<g
   id="g14114">
</g>
<g
   id="g14116">
</g>
<g
   id="g14118">
</g>
<g
   id="g14120">
</g>
<g
   id="g14122">
</g>
</svg>