<?xml version="1.0" encoding="UTF-8" standalone="no"?>
<svg
   xmlns:dc="http://purl.org/dc/elements/1.1/"
   xmlns:cc="http://creativecommons.org/ns#"
   xmlns:rdf="http://www.w3.org/1999/02/22-rdf-syntax-ns#"
   xmlns:svg="http://www.w3.org/2000/svg"
   xmlns="http://www.w3.org/2000/svg"
   xmlns:sodipodi="http://sodipodi.sourceforge.net/DTD/sodipodi-0.dtd"
   xmlns:inkscape="http://www.inkscape.org/namespaces/inkscape"
   xml:space="preserve"
   viewBox="0 0 888.76253 138.29399"
   y="0px"
   x="0px"
   id="Logo"
   version="1.1"
   sodipodi:docname="uclouvain-greyscale.svg"
   width="888.76251"
   height="138.29399"
   inkscape:version="0.92.3 (2405546, 2018-03-11)"><sodipodi:namedview
   pagecolor="#ffffff"
   bordercolor="#666666"
   borderopacity="1"
   objecttolerance="10"
   gridtolerance="10"
   guidetolerance="10"
   inkscape:pageopacity="0"
   inkscape:pageshadow="2"
   inkscape:window-width="1920"
   inkscape:window-height="1056"
   id="namedview13469"
   showgrid="false"
   fit-margin-top="0"
   fit-margin-left="0"
   fit-margin-right="0"
   fit-margin-bottom="0"
   inkscape:zoom="0.5241055"
   inkscape:cx="-82.230287"
   inkscape:cy="49.150001"
   inkscape:window-x="0"
   inkscape:window-y="24"
   inkscape:window-maximized="1"
   inkscape:current-layer="Logo" /><metadata
   id="metadata5678"><rdf:RDF><cc:Work
       rdf:about=""><dc:format>image/svg+xml</dc:format><dc:type
         rdf:resource="http://purl.org/dc/dcmitype/StillImage" /><dc:title></dc:title></cc:Work></rdf:RDF></metadata><defs
   id="defs5676" />
<style
   id="style5625"
   type="text/css">
	.st0{fill:#9AB6D3;}
	.st1{fill:#5EB3E4;}
	.st2{fill:#011E41;}
</style>
<g
   style="fill:#4b4b4b;fill-opacity:1"
   id="g5629"
   transform="matrix(1.7200745,0,0,1.7200745,-67.598928,-64.502794)">
	<rect
   style="fill:#4b4b4b;fill-opacity:1"
   id="rect5627"
   height="58.900002"
   width="19.6"
   class="st0"
   y="39.299999"
   x="98.199997" />
</g>
<polygon
   style="fill:#686868;fill-opacity:1"
   id="polygon5631"
   points="39.3,39.3 39.3,117.9 98.2,117.9 98.2,98.2 78.6,98.2 58.9,98.2 58.9,39.3 "
   class="st1"
   transform="matrix(1.7200745,0,0,1.7200745,-67.598928,-64.502794)" />
<rect
   style="fill:#b4b4b4;fill-opacity:1;stroke-width:1.72007453"
   id="rect5633"
   height="101.31239"
   width="67.598923"
   class="st2"
   y="3.096132"
   x="33.713467" />
<g
   style="fill:#b4b4b4;fill-opacity:1"
   id="g5637"
   transform="matrix(1.7200745,0,0,1.7200745,-67.598928,-64.502794)">
	<path
   style="fill:#b4b4b4;fill-opacity:1"
   id="path5635"
   d="m 161.1,100.2 c -13,0 -23.6,-10.6 -23.6,-23.6 V 39.3 h 11.8 v 37.3 c 0,6.5 5.3,11.8 11.8,11.8 6.5,0 11.8,-5.3 11.8,-11.8 V 39.3 h 11.8 v 37.3 c 0,13 -10.5,23.6 -23.6,23.6 z"
   class="st2"
   inkscape:connector-curvature="0" />
</g>
<g
   style="fill:#b4b4b4;fill-opacity:1"
   id="g5641"
   transform="matrix(1.7200745,0,0,1.7200745,-67.598928,-64.502794)">
	<polygon
   style="fill:#b4b4b4;fill-opacity:1"
   id="polygon5639"
   points="266.9,39.3 266.9,86.4 291.9,86.4 291.9,98.3 255,98.3 255,39.3 "
   class="st2" />
</g>
<g
   style="fill:#b4b4b4;fill-opacity:1"
   id="g5667"
   transform="matrix(1.7200745,0,0,1.7200745,-67.598928,-64.502794)">
	<g
   style="fill:#b4b4b4;fill-opacity:1"
   id="g5645">
		<path
   style="fill:#b4b4b4;fill-opacity:1"
   id="path5643"
   d="m 318.9,54.8 c 12.5,0 22.7,9.9 22.7,22.1 0,12.2 -10.2,22.1 -22.7,22.1 -12.5,0 -22.7,-9.9 -22.7,-22.1 0,-12.2 10.2,-22.1 22.7,-22.1 z m 0,33.2 c 6.1,0 11.1,-4.8 11.1,-11.1 0,-6.1 -5,-11.1 -11.1,-11.1 -6.1,0 -11.1,4.9 -11.1,11.1 0,6.2 5,11.1 11.1,11.1 z"
   class="st2"
   inkscape:connector-curvature="0" />
	</g>
	<g
   style="fill:#b4b4b4;fill-opacity:1"
   id="g5649">
		<path
   style="fill:#b4b4b4;fill-opacity:1"
   id="path5647"
   d="m 348.2,55 h 11.5 v 22.7 c 0,6.6 1.7,10.2 7.7,10.2 5.9,0 9.2,-3.7 9.2,-11.6 V 55 H 388 V 98.1 H 376.6 V 92.6 C 373.5,96.8 368.8,99 363.8,99 351.2,99 348.1,89 348.1,79.7 V 55 Z"
   class="st2"
   inkscape:connector-curvature="0" />
	</g>
	<g
   style="fill:#b4b4b4;fill-opacity:1"
   id="g5653">
		<path
   style="fill:#b4b4b4;fill-opacity:1"
   id="path5651"
   d="m 393.8,55 h 11.4 l 6.9,18.3 c 2.5,6.6 4.3,13.4 4.3,13.4 0,0 1.9,-6.8 4.3,-13.4 L 427.6,55 H 439 l -17,43.1 h -11.2 z"
   class="st2"
   inkscape:connector-curvature="0" />
	</g>
	<g
   style="fill:#b4b4b4;fill-opacity:1"
   id="g5657">
		<path
   style="fill:#b4b4b4;fill-opacity:1"
   id="path5655"
   d="m 460.4,54.8 c 4.9,0 9.6,2.3 12.8,6.5 V 55 h 11.4 v 43.1 h -11.4 v -5.5 c -3.1,4.2 -7.8,6.4 -12.8,6.4 -11.9,0 -19.7,-9.9 -19.7,-22.1 0,-12.2 7.8,-22.1 19.7,-22.1 z m 2.7,33.2 c 6,0 10,-4.5 10,-11.1 0,-6.6 -4.1,-11.1 -10,-11.1 -6,0 -10.2,4.5 -10.2,11.1 0,6.5 4.2,11.1 10.2,11.1 z"
   class="st2"
   inkscape:connector-curvature="0" />
	</g>
	<g
   style="fill:#b4b4b4;fill-opacity:1"
   id="g5661">
		<path
   style="fill:#b4b4b4;fill-opacity:1"
   id="path5659"
   d="m 500.7,37.9 c 3.7,0 6.8,3.1 6.8,6.8 0,3.7 -3.1,6.7 -6.8,6.7 -3.7,0 -6.7,-3.1 -6.7,-6.7 0,-3.8 3.1,-6.8 6.7,-6.8 z M 495,55 h 11.4 V 98.1 H 495 Z"
   class="st2"
   inkscape:connector-curvature="0" />
	</g>
	<g
   style="fill:#b4b4b4;fill-opacity:1"
   id="g5665">
		<path
   style="fill:#b4b4b4;fill-opacity:1"
   id="path5663"
   d="m 516.2,55 h 11.4 v 6.1 c 3.1,-4.2 7.7,-6.4 13.3,-6.4 12.2,0 15.1,8.3 15.1,20 V 98.1 H 544.5 V 76 c 0,-6.6 -0.8,-10.2 -7.3,-10.2 -5.9,0 -9.6,4.5 -9.6,11.1 v 21.3 h -11.4 z"
   class="st2"
   inkscape:connector-curvature="0" />
	</g>
</g>
<g
   style="fill:#b4b4b4;fill-opacity:1"
   id="g5671"
   transform="matrix(1.7200745,0,0,1.7200745,-67.598928,-64.502794)">
	<path
   style="fill:#b4b4b4;fill-opacity:1"
   id="path5669"
   d="m 224.5,100.2 c -17.3,0 -31.4,-14.1 -31.4,-31.4 0,-17.3 14.1,-31.3 31.4,-31.3 8.4,0 16.2,3.3 22.2,9.2 l -8.4,8.4 c -3.7,-3.7 -8.6,-5.7 -13.8,-5.7 -10.8,0 -19.5,8.8 -19.5,19.5 0,10.7 8.8,19.5 19.5,19.5 5.2,0 10.1,-2 13.8,-5.7 l 8.4,8.4 c -6,5.9 -13.8,9.1 -22.2,9.1 z"
   class="st2"
   inkscape:connector-curvature="0" />
</g>
</svg>