<?xml version="1.0" encoding="UTF-8" standalone="no"?>
<!-- Created with Inkscape (http://www.inkscape.org/) -->

<svg
   xmlns:dc="http://purl.org/dc/elements/1.1/"
   xmlns:cc="http://creativecommons.org/ns#"
   xmlns:rdf="http://www.w3.org/1999/02/22-rdf-syntax-ns#"
   xmlns:svg="http://www.w3.org/2000/svg"
   xmlns="http://www.w3.org/2000/svg"
   xmlns:sodipodi="http://sodipodi.sourceforge.net/DTD/sodipodi-0.dtd"
   xmlns:inkscape="http://www.inkscape.org/namespaces/inkscape"
   version="1.1"
   id="svg19960"
   width="933.43005"
   height="220.22482"
   viewBox="0 0 933.43005 220.22483"
   sodipodi:docname="uhasselt-greyscale.svg"
   inkscape:version="0.92.3 (2405546, 2018-03-11)">
  <metadata
     id="metadata19966">
    <rdf:RDF>
      <cc:Work
         rdf:about="">
        <dc:format>image/svg+xml</dc:format>
        <dc:type
           rdf:resource="http://purl.org/dc/dcmitype/StillImage" />
        <dc:title></dc:title>
      </cc:Work>
    </rdf:RDF>
  </metadata>
  <defs
     id="defs19964" />
  <sodipodi:namedview
     pagecolor="#ffffff"
     bordercolor="#666666"
     borderopacity="1"
     objecttolerance="10"
     gridtolerance="10"
     guidetolerance="10"
     inkscape:pageopacity="0"
     inkscape:pageshadow="2"
     inkscape:window-width="1920"
     inkscape:window-height="1056"
     id="namedview19962"
     showgrid="false"
     fit-margin-top="0"
     fit-margin-left="0"
     fit-margin-right="0"
     fit-margin-bottom="0"
     inkscape:zoom="1.012987"
     inkscape:cx="362.94855"
     inkscape:cy="224.84501"
     inkscape:window-x="0"
     inkscape:window-y="24"
     inkscape:window-maximized="1"
     inkscape:current-layer="svg19960" />
  <path
     style="fill:#b4b4b4;fill-opacity:1;stroke-width:2.02041125"
     d="M 0,110.11242 V 0 H 466.71499 933.43004 V 110.11242 220.22483 H 466.71499 0 Z m 216.184,0 V 20.204117 H 118.19406 20.204106 v 89.908303 89.90831 H 118.19406 216.184 Z M 59.381696,78.796041 115.38177,114.15324 59.381696,149.51043 Z m 70.580734,0.594767 c 53.57564,36.727822 0,0 53.57564,36.727822 -54.93163,33.3918 0,0 -54.93163,33.3918 1.35599,-70.119622 0,0 1.35599,-70.119622 z M 913.22584,110.11242 V 20.204117 H 574.80699 236.38812 v 89.908303 89.90831 h 338.41887 338.41885 z m -622.2128,49.14833 c -9.59861,-2.75398 -17.65144,-8.84063 -21.79815,-16.47594 -2.9127,-5.36311 -3.48384,-12.16801 -3.50524,-41.76424 l -0.0256,-35.357197 h 12.12247 12.12245 l 1.01021,32.765225 c 1.13873,36.933522 2.07414,39.363452 15.15308,39.363452 13.07896,0 14.01437,-2.42993 15.1531,-39.363452 l 1.0102,-32.765225 h 12.12247 12.12247 l 0.55821,30.903206 c 0.33258,18.411121 -0.36105,34.317121 -1.7159,39.348641 -5.28959,19.64405 -30.0893,30.30048 -54.32981,23.34553 z m 274.70211,-0.6976 c -5.00051,-1.664 -10.74107,-4.29704 -12.75679,-5.85122 -3.50564,-2.7029 -3.43639,-3.27684 1.59277,-13.20138 l 5.25772,-10.37563 5.17853,4.07343 c 10.44664,8.21732 26.99312,7.06392 26.99312,-1.8816 0,-4.47017 -4.37597,-7.199 -18.0619,-11.26327 -5.31451,-1.57825 -12.06197,-5.26875 -14.99433,-8.20111 -4.49812,-4.49814 -5.33041,-7.10459 -5.32403,-16.67345 0.0115,-17.922288 7.94656,-27.628874 25.71223,-31.454266 7.41219,-1.596042 26.53433,1.824054 31.82389,5.691872 3.32235,2.429365 3.26555,3.088994 -0.99285,11.529295 -5.75765,11.411821 -5.0208,10.90609 -10.40026,7.138148 -8.27945,-5.799145 -20.97804,-3.281367 -19.5789,3.881972 0.44932,2.300493 5.76997,5.655218 14.71172,9.275939 19.81232,8.02244 22.35957,11.0929 22.35957,26.9522 0,14.48742 -3.71697,21.53346 -14.77598,28.0101 -8.54234,5.00272 -25.51002,6.08742 -36.74451,2.34897 z m 79.80625,1.30081 c -6.76234,-1.75937 -21.21433,-8.32698 -21.21433,-9.64069 0,-0.46593 2.30783,-5.40143 5.1285,-10.96776 l 5.12849,-10.12059 5.17854,4.07343 c 10.33687,8.13099 26.99312,7.07871 26.99312,-1.7053 0,-5.10875 -3.16571,-7.2297 -16.49351,-11.05027 -15.53578,-4.45351 -21.89431,-11.97977 -21.89431,-25.915092 0,-22.804699 17.84817,-35.197132 43.13267,-29.948079 5.98787,1.243079 12.47282,3.419685 14.411,4.836917 3.32235,2.429365 3.26556,3.088994 -0.99284,11.529295 -5.75766,11.411821 -5.0208,10.90609 -10.40026,7.138148 -5.7981,-4.061143 -14.57081,-4.175107 -17.84346,-0.231799 -4.15398,5.005232 -0.84222,8.652338 11.34526,12.4941 6.41449,2.02198 14.59637,6.48188 18.30091,9.97571 6.00362,5.66214 6.69987,7.47025 6.69987,17.39881 0,12.80404 -5.19296,22.30669 -15.47004,28.30884 -7.28237,4.25314 -23.09856,6.14276 -32.00961,3.82433 z m -284.94311,-2.72322 c -0.56454,-1.47118 -0.78084,-22.65543 -0.48065,-47.07611 l 0.54576,-44.401257 12.62758,-0.601523 12.62757,-0.601507 v 18.280122 18.280105 h 16.08463 16.08462 l 0.58378,-17.678598 0.58376,-17.678599 h 12.12245 12.12247 v 46.469457 46.46947 h -12.12247 -12.12245 l -0.58094,-18.68882 -0.58091,-18.68879 h -16.01166 -16.01166 l -0.5809,18.68879 -0.58093,18.68882 -11.64182,0.60665 c -8.24727,0.42977 -11.94108,-0.1733 -12.66823,-2.06821 z m 89.97342,0.60026 c 0,-2.95519 32.62863,-87.532303 34.93764,-90.562322 1.14681,-1.504924 6.62344,-2.525519 13.55223,-2.525519 6.93459,0 12.40007,1.019333 13.54136,2.525519 1.77308,2.339984 34.9485,89.106132 34.9485,91.403412 0,0.56672 -5.91704,1.0304 -13.14903,1.0304 h -13.14902 l -3.23364,-8.08164 -3.23363,-8.08165 H 498.8381 482.91008 l -3.55882,7.57654 c -3.49608,7.44295 -3.78141,7.58715 -16.1792,8.17806 -7.63806,0.36405 -12.62035,-0.21344 -12.62035,-1.4628 z m 56.57152,-35.25209 c 0,-0.82094 -5.37562,-16.54962 -7.33725,-21.46834 -0.77705,-1.948382 -2.51283,0.57686 -4.86076,7.07143 -5.25796,14.54402 -5.09252,15.1531 4.11636,15.1531 4.4449,0 8.08165,-0.34029 8.08165,-0.75619 z m 196.90928,34.61094 c -0.5559,-1.44869 -0.76515,-22.61454 -0.46496,-47.03522 l 0.54578,-44.401257 h 26.26533 26.26536 l 0.61069,10.607166 0.61069,10.607149 h -14.24847 -14.24846 v 7.071449 7.071433 h 13.13266 13.13267 v 11.11226 11.11227 h -13.13267 -13.13266 v 7.07143 7.07143 h 14.24846 14.24847 l -0.61069,10.60717 -0.61069,10.60717 -25.80038,0.56575 c -19.75566,0.43323 -26.03718,-0.0513 -26.81113,-2.0682 z m 66.67357,0 c -0.5559,-1.44869 -0.76515,-22.61454 -0.46496,-47.03522 l 0.54578,-44.401257 h 12.12247 12.12245 l 0.55172,35.862307 0.55173,35.86228 h 14.20184 14.20186 l -0.61069,10.60717 -0.61069,10.60717 -25.80038,0.56575 c -19.75566,0.43323 -26.03718,-0.0513 -26.81113,-2.0682 z m 73.24052,1.25385 c -0.78932,-0.7893 -1.43511,-17.1943 -1.43511,-36.45554 V 86.877688 H 832.30385 822.0962 l 0.6107,-10.607149 0.61069,-10.607166 h 32.32658 32.32658 l 0.61069,10.607166 0.61069,10.607149 h -10.16104 -10.16101 l -0.55174,35.862302 -0.55171,35.86231 -11.19247,0.59324 c -6.15586,0.32629 -11.83827,-0.0525 -12.62756,-0.84184 z"
     id="path20515"
     inkscape:connector-curvature="0"
     sodipodi:nodetypes="cccccccccccccccccccccccccccccccccccccscccssscccssccscccssccccscccsscscssccssssscccsssscsscccccccccccccccccccccssscsssscccccssssccsscsccccccccccccccccccccccccsccccccccccccsccccccccccccccc" />
  <path
     style="fill:#000000;stroke-width:1.33333337"
     d=""
     id="path20513"
     inkscape:connector-curvature="0" />
</svg>
