<?xml version="1.0" encoding="UTF-8" standalone="no"?>
<!-- Generator: Adobe Illustrator 22.1.0, SVG Export Plug-In . SVG Version: 6.00 Build 0)  -->

<svg
   xmlns:dc="http://purl.org/dc/elements/1.1/"
   xmlns:cc="http://creativecommons.org/ns#"
   xmlns:rdf="http://www.w3.org/1999/02/22-rdf-syntax-ns#"
   xmlns:svg="http://www.w3.org/2000/svg"
   xmlns="http://www.w3.org/2000/svg"
   xmlns:sodipodi="http://sodipodi.sourceforge.net/DTD/sodipodi-0.dtd"
   xmlns:inkscape="http://www.inkscape.org/namespaces/inkscape"
   version="1.1"
   id="Layer_1"
   x="0px"
   y="0px"
   viewBox="0 0 2485.4733 860.00715"
   xml:space="preserve"
   sodipodi:docname="rsg_project.svg"
   inkscape:version="0.92.3 (2405546, 2018-03-11)"
   width="2485.4734"
   height="860.00714"><metadata
   id="metadata103"><rdf:RDF><cc:Work
       rdf:about=""><dc:format>image/svg+xml</dc:format><dc:type
         rdf:resource="http://purl.org/dc/dcmitype/StillImage" /><dc:title /></cc:Work></rdf:RDF></metadata><defs
   id="defs101" /><sodipodi:namedview
   pagecolor="#ffffff"
   bordercolor="#666666"
   borderopacity="1"
   objecttolerance="10"
   gridtolerance="10"
   guidetolerance="10"
   inkscape:pageopacity="0"
   inkscape:pageshadow="2"
   inkscape:window-width="1920"
   inkscape:window-height="1056"
   id="namedview99"
   showgrid="false"
   inkscape:zoom="0.32"
   inkscape:cx="1062.2337"
   inkscape:cy="747.59663"
   inkscape:window-x="0"
   inkscape:window-y="24"
   inkscape:window-maximized="1"
   inkscape:current-layer="Layer_1"
   fit-margin-top="0"
   fit-margin-left="0"
   fit-margin-right="0"
   fit-margin-bottom="0" /><style
   type="text/css"
   id="style2">
	.st0{fill-rule:evenodd;clip-rule:evenodd;fill:#0F1115;}
	.st1{fill-rule:evenodd;clip-rule:evenodd;fill:#FDFDFD;}
	.st2{fill-rule:evenodd;clip-rule:evenodd;}
	.st3{fill-rule:evenodd;clip-rule:evenodd;fill:#FFFFFF;}
	.st4{fill:none;stroke:#000000;stroke-width:0.216;stroke-miterlimit:22.9256;}
	.st5{fill:#231F20;}
	.st6{font-family:'ArialNarrow-Bold';}
	.st7{font-size:101.029px;}
	.st8{font-family:'Arial-BoldMT';}
	.st9{font-size:70.5193px;}
</style>

<circle
   style="display:inline;opacity:1;fill:none;fill-opacity:1;stroke:#49938d;stroke-width:18.4796257;stroke-miterlimit:4;stroke-dasharray:none;stroke-opacity:1"
   id="path4659"
   cx="1207.3662"
   cy="281.71432"
   r="155.39546"
   inkscape:label="path4659"
   inkscape:export-filename="/home/christophe/text1705-1-3.png"
   inkscape:export-xdpi="505"
   inkscape:export-ydpi="505" /><path
   style="opacity:1;fill:none;fill-opacity:1;stroke:#49938d;stroke-width:18.36681938;stroke-miterlimit:4;stroke-dasharray:none;stroke-opacity:1"
   d="M 1500.4529,297.74048 838.54374,260.59927 Z"
   id="path838"
   inkscape:connector-curvature="0"
   inkscape:export-filename="/home/christophe/text1705-1-3.png"
   inkscape:export-xdpi="505"
   inkscape:export-ydpi="505" /><path
   style="opacity:1;fill:none;fill-opacity:1;stroke:#49938d;stroke-width:18.87599945;stroke-miterlimit:4;stroke-dasharray:none;stroke-opacity:1"
   d="M 972.18529,7.2229138 1452.1957,563.01644"
   id="path840"
   inkscape:connector-curvature="0"
   inkscape:export-filename="/home/christophe/text1705-1-3.png"
   inkscape:export-xdpi="505"
   inkscape:export-ydpi="505" /><path
   style="opacity:1;fill:none;fill-opacity:1;stroke:#49938d;stroke-width:18.36681938;stroke-miterlimit:4;stroke-dasharray:none;stroke-opacity:1"
   d="M 1052.1054,586.94254 1348.2752,4.1605638"
   id="path844"
   inkscape:connector-curvature="0"
   inkscape:export-filename="/home/christophe/text1705-1-3.png"
   inkscape:export-xdpi="505"
   inkscape:export-ydpi="505" /><path
   style="opacity:1;fill:#ff0f21;fill-opacity:1;stroke:none;stroke-width:0.46470889;stroke-miterlimit:4;stroke-dasharray:none;stroke-opacity:1"
   d="m 1262.9086,417.19427 a 146.62368,146.62368 0 0 0 90.2912,-135.22608 146.62368,146.62368 0 0 0 -90.2912,-135.32865 z"
   id="path837"
   inkscape:connector-curvature="0"
   inkscape:export-filename="/home/christophe/text1705-1-3.png"
   inkscape:export-xdpi="505"
   inkscape:export-ydpi="505" /><path
   style="opacity:1;fill:#000000;fill-opacity:1;stroke:none;stroke-width:0.46470889;stroke-miterlimit:4;stroke-dasharray:none;stroke-opacity:1"
   d="m 1150.242,146.74304 a 146.62368,146.62368 0 0 0 -90.2902,135.22515 146.62368,146.62368 0 0 0 90.2902,135.32776 z"
   id="path835"
   inkscape:connector-curvature="0"
   inkscape:export-filename="/home/christophe/text1705-1-3.png"
   inkscape:export-xdpi="505"
   inkscape:export-ydpi="505" /><path
   style="opacity:1;fill:#ffe936;fill-opacity:1;stroke:none;stroke-width:0.46470889;stroke-miterlimit:4;stroke-dasharray:none;stroke-opacity:1"
   d="m 1150.242,146.74304 v 270.55291 a 146.62368,146.62368 0 0 0 56.3333,11.2967 146.62368,146.62368 0 0 0 56.3333,-11.39838 V 146.63954 a 146.62368,146.62368 0 0 0 -56.3333,-11.29487 146.62368,146.62368 0 0 0 -56.3333,11.39837 z"
   id="path830"
   inkscape:connector-curvature="0"
   inkscape:export-filename="/home/christophe/text1705-1-3.png"
   inkscape:export-xdpi="505"
   inkscape:export-ydpi="505" />
<flowRoot
   xml:space="preserve"
   id="flowRoot1695"
   style="font-style:normal;font-variant:normal;font-weight:normal;font-stretch:normal;font-size:5.33333349px;line-height:1.25;font-family:Arial;-inkscape-font-specification:'Arial, Normal';font-variant-ligatures:normal;font-variant-caps:normal;font-variant-numeric:normal;font-feature-settings:normal;text-align:start;letter-spacing:0px;word-spacing:0px;writing-mode:vertical-lr;text-anchor:start;fill:#000000;fill-opacity:1;stroke:none"
   transform="translate(633.52991,-195.59885)"><flowRegion
     id="flowRegion1697"><rect
       id="rect1699"
       width="32.841103"
       height="17.515255"
       x="-610.84448"
       y="-15.325837" /></flowRegion><flowPara
     id="flowPara1701" /></flowRoot><circle
   style="display:inline;opacity:1;fill:none;fill-opacity:1;stroke:#49938d;stroke-width:18.4796257;stroke-miterlimit:4;stroke-dasharray:none;stroke-opacity:1"
   id="path4659-8"
   cx="679.97424"
   cy="261.89145"
   r="155.39546"
   inkscape:label="path4659"
   inkscape:export-filename="/home/christophe/text1705-1-3.png"
   inkscape:export-xdpi="505"
   inkscape:export-ydpi="505" /><text
   xml:space="preserve"
   style="font-style:normal;font-variant:normal;font-weight:normal;font-stretch:normal;font-size:4.64999151px;line-height:1.25;font-family:Arial;-inkscape-font-specification:'Arial, Normal';font-variant-ligatures:normal;font-variant-caps:normal;font-variant-numeric:normal;font-feature-settings:normal;text-align:start;letter-spacing:0px;word-spacing:0px;writing-mode:vertical-lr;text-anchor:start;fill:#49938d;fill-opacity:1;stroke:none;stroke-width:1;"
   x="512.3299"
   y="329.8613"
   id="text1693"
   transform="scale(1.0695963,0.93493217)"
   inkscape:export-filename="/home/christophe/text1705-1-3.png"
   inkscape:export-xdpi="505"
   inkscape:export-ydpi="505"><tspan
     sodipodi:role="line"
     id="tspan1691"
     x="512.3299"
     y="329.8613"
     style="font-style:normal;font-variant:normal;font-weight:bold;font-stretch:normal;font-size:167.39968872px;font-family:Arial;-inkscape-font-specification:'Arial Bold';writing-mode:lr-tb;fill:#49938d;fill-opacity:1;stroke-width:1;">&lt;/&gt;</tspan></text>

<text
   xml:space="preserve"
   style="font-style:normal;font-variant:normal;font-weight:normal;font-stretch:normal;font-size:66.66666412px;line-height:1.25;font-family:Arial;-inkscape-font-specification:'Arial, Normal';font-variant-ligatures:normal;font-variant-caps:normal;font-variant-numeric:normal;font-feature-settings:normal;text-align:start;letter-spacing:0px;word-spacing:0px;writing-mode:vertical-lr;text-anchor:start;fill:#49938d;fill-opacity:1;stroke:none;"
   x="-6.84375"
   y="284.27872"
   id="text1705"
   inkscape:export-filename="/home/christophe/text1705-1-3.png"
   inkscape:export-xdpi="505"
   inkscape:export-ydpi="505"><tspan
     sodipodi:role="line"
     id="tspan1703"
     x="-6.84375"
     y="284.27872"
     style="font-style:normal;font-variant:normal;font-weight:bold;font-stretch:normal;font-size:96px;font-family:Arial;-inkscape-font-specification:'Arial Bold';writing-mode:lr-tb;fill:#49938d;fill-opacity:1;">hackathon</tspan></text>


<circle
   style="display:inline;opacity:1;fill:none;fill-opacity:1;stroke:#49938d;stroke-width:18.4796257;stroke-miterlimit:4;stroke-dasharray:none;stroke-opacity:1"
   id="path4659-8-8"
   cx="1662.5706"
   cy="288.21628"
   r="155.39546"
   inkscape:label="path4659"
   inkscape:export-filename="/home/christophe/text1705-1-3.png"
   inkscape:export-xdpi="505"
   inkscape:export-ydpi="505" /><path
   style="fill:#49938d;fill-opacity:1;stroke-width:1;stroke:none;stroke-opacity:1"
   d="m 1610.776,390.64302 c -4.2555,-1.6471 -7.5982,-4.61946 -9.9519,-8.84925 l -2.0716,-3.72272 -0.4057,-66.7011 -0.4058,-66.7011 -1.7292,-4.7362 c -3.2058,-8.7805 -0.8707,-18.7008 5.9296,-25.1908 3.2094,-3.063 8.3147,-5.9408 10.5939,-5.9716 0.711,-0.01 2.5768,-2.0349 4.1982,-4.5573 5.5335,-8.6076 12.4788,-13.8842 21.5669,-16.3848 11.6893,-3.2163 23.5422,0.5125 32.787,10.3146 l 4.5365,4.8099 2.9358,-1.1773 c 1.792,-0.7186 5.7017,-1.2033 10.0346,-1.244 6.4983,-0.061 7.5236,0.1459 12.1226,2.4473 12.7802,6.3956 19.8691,19.8943 17.7627,33.8236 -0.441,2.9161 -1.304,6.3279 -1.9178,7.5816 -0.8395,1.7151 -1.0636,4.4763 -0.9046,11.1493 l 0.2111,8.8698 7.4724,0.4021 c 5.7605,0.3099 8.2835,0.8224 11.0133,2.2368 4.5765,2.3713 9.0789,7.8205 11.0424,13.3643 1.4796,4.1776 1.5456,5.6675 1.3327,30.11187 l -0.2241,25.71684 -1.9904,3.9468 c -2.4116,4.78218 -6.5626,9.08281 -11.0862,11.48597 -2.5714,1.36601 -5.0769,1.87486 -10.6481,2.16263 l -7.2856,0.37631 -0.01,11.14289 c -0.01,10.06587 -0.1779,11.52435 -1.7735,15.08968 -2.1229,4.7436 -4.912,7.64386 -9.4276,9.80316 -3.2631,1.56035 -4.6558,1.60679 -47.0758,1.56963 -36.0134,-0.0316 -44.2278,-0.23744 -46.6344,-1.16891 z m 90.0404,-15.22484 c 1.3676,-1.78453 1.4281,-3.71709 1.4281,-45.59183 v -43.7283 l -45.0209,0.2035 -45.0209,0.2035 -0.1792,43.02022 c -0.1923,46.12084 -0.1758,46.34175 3.5478,47.4562 1.0241,0.30653 20.302,0.49948 42.8395,0.42877 l 40.9775,-0.1285 z m -74.4502,-9.15168 -1.8341,-1.93752 V 331.7102 c 0,-28.63075 0.1462,-32.83935 1.1962,-34.42295 1.7326,-2.613 4.4826,-3.51 7.5176,-2.4519 4.7043,1.6401 4.7364,1.8907 4.7364,36.95825 v 31.55313 l -1.9345,2.42864 c -2.5455,3.19575 -6.9116,3.41723 -9.6816,0.49113 z m 26.1533,0 -1.8342,-1.93752 v -29.92401 -29.92402 l 1.97,-2.081 c 2.7631,-2.9189 6.4025,-2.8303 9.296,0.2263 l 2.1842,2.3074 v 29.20652 29.20656 l -1.9345,2.42864 c -2.5455,3.19575 -6.9116,3.41723 -9.6815,0.49113 z m 24.7591,-0.49113 -1.9345,-2.42864 v -31.46255 c 0,-18.93038 0.2957,-32.28423 0.7424,-33.52553 0.8903,-2.4736 5.1883,-4.5954 7.8688,-3.8846 1.0305,0.2732 2.5409,1.3927 3.3563,2.4879 1.4245,1.913 1.4827,3.2732 1.4827,34.67905 v 32.68798 l -1.8341,1.93752 c -2.77,2.9261 -7.1361,2.70462 -9.6816,-0.49113 z m 52.5344,-28.80189 c 1.2524,-1.11327 2.6213,-3.33337 3.0421,-4.93352 1.1014,-4.18941 0.9319,-43.21101 -0.2029,-46.69161 -1.4402,-4.4171 -4.92,-6.3422 -11.4637,-6.3422 h -5.4938 v 29.99572 29.99575 h 5.9206 c 5.2646,0 6.1728,-0.22423 8.1977,-2.02414 z m -27.733,-75.53073 0.2092,-10.0643 h -5.4861 c -5.2503,0 -5.5586,0.1035 -7.1727,2.4098 -2.7107,3.8732 -10.144,9.1581 -15.593,11.0864 -6.5315,2.3114 -14.9509,2.3018 -21.9731,-0.025 -5.433,-1.8002 -12.8596,-7.0725 -15.5181,-11.0165 l -1.6546,-2.4547 h -11.5312 -11.5313 v 9.7355 c 0,5.3545 0.2268,9.975 0.504,10.2679 0.2772,0.2928 20.5366,0.4408 45.0209,0.3289 l 44.5169,-0.2035 z m -32.4882,-10.4147 c 7.0784,-2.6672 12.2636,-8.7039 13.9842,-16.2808 1.0323,-4.5456 3.5261,-7.0497 7.0209,-7.0497 3.2672,0 5.4711,1.8793 6.5133,5.5541 0.8752,3.0857 0.9374,3.1289 4.5054,3.1289 h 3.6178 l -0.016,-4.1442 c -0.019,-4.8296 -1.8707,-9.5543 -4.9332,-12.5879 -5.012,-4.9647 -13.2298,-6.2105 -18.9339,-2.8703 -1.7299,1.0129 -4.191,2.4527 -5.4692,3.1994 -2.3541,1.3752 -5.174,1.2052 -7.1332,-0.4302 -0.5458,-0.4556 -1.8062,-2.5248 -2.8008,-4.5982 -4.2427,-8.8447 -10.7789,-13.3959 -19.313,-13.4479 -3.8648,-0.024 -5.8113,0.4252 -9.006,2.0764 -4.8049,2.4833 -9.427,7.712 -10.8534,12.2777 -1.4936,4.7811 -4.4708,7.106 -9.0994,7.106 -3.2724,0 -4.0792,0.344 -6.2941,2.6839 -2.2251,2.3505 -2.5406,3.1837 -2.5406,6.7095 v 4.0258 h 10.8206 10.8207 l 0.4718,-1.9859 c 0.9733,-4.0962 6.3552,-6.3998 10.0594,-4.3056 1.7459,0.9871 3.6947,4.7779 3.6947,7.1871 0,0.9699 0.7133,3.3198 1.585,5.2222 3.4752,7.5834 14.8039,11.7308 23.2994,8.5297 z"
   id="path1718"
   inkscape:connector-curvature="0"
   inkscape:export-filename="/home/christophe/text1705-1-3.png"
   inkscape:export-xdpi="505"
   inkscape:export-ydpi="505" /><text
   xml:space="preserve"
   style="font-style:normal;font-variant:normal;font-weight:normal;font-stretch:normal;font-size:66.66666412px;line-height:1.25;font-family:Arial;-inkscape-font-specification:'Arial, Normal';font-variant-ligatures:normal;font-variant-caps:normal;font-variant-numeric:normal;font-feature-settings:normal;text-align:start;letter-spacing:0px;word-spacing:0px;writing-mode:vertical-lr;text-anchor:start;fill:#49938d;fill-opacity:1;stroke:none;"
   x="1854.9109"
   y="298.99246"
   id="text1705-1"
   inkscape:export-filename="/home/christophe/text1705-1-3.png"
   inkscape:export-xdpi="505"
   inkscape:export-ydpi="505"><tspan
     sodipodi:role="line"
     id="tspan1703-3"
     x="1854.9109"
     y="298.99246"
     style="font-style:normal;font-variant:normal;font-weight:bold;font-stretch:normal;font-size:96px;font-family:Arial;-inkscape-font-specification:'Arial Bold';writing-mode:lr-tb;fill:#49938d;fill-opacity:1;">beerformatics</tspan></text>


<circle
   style="display:inline;opacity:1;fill:none;fill-opacity:1;stroke:#49938d;stroke-width:18.4796257;stroke-miterlimit:4;stroke-dasharray:none;stroke-opacity:1"
   id="path4659-8-3"
   cx="1533.0018"
   cy="695.37189"
   r="155.39546"
   inkscape:label="path4659"
   inkscape:export-filename="/home/christophe/text1705-1-3.png"
   inkscape:export-xdpi="505"
   inkscape:export-ydpi="505" /><g
   id="g1518"><path
     inkscape:export-ydpi="505"
     inkscape:export-xdpi="505"
     inkscape:export-filename="/home/christophe/text1705-1-3.png"
     sodipodi:nodetypes="cccccccscccacccscccccccsccccsssccc"
     inkscape:connector-curvature="0"
     id="path1749"
     d="m 1526.0022,789.16024 c 0.5597,-0.4319 1.5943,0.1954 2.8725,-69.3257 l -0.6867,-23.6405 c -14.2476,1.5502 -6.2202,5.825 -14.2476,1.5502 0.6554,14.6564 -1.6843,71.6943 1.9661,91.9157 3.5992,0.8043 8.7349,0.5501 10.0957,-0.4997 z m 77.4346,-103.5762 c 11.2629,-10.2875 20.4779,-19.1772 20.4779,-19.7549 0,-1.534 3.1897,-1.6244 -14.778,-2.0929 -22.1512,-2.2331 -13.9023,2.0895 -15.4151,-4.3944 l -9.1032,-8.2177 c -6.1068,-4.5196 -10.9527,-6.9978 -15.6788,-11.4062 -1.9775,-1.8445 -4.7271,-3.9034 -5.2168,-6.2128 -1.1405,-2.074 -2.7716,-5.0142 -18.2099,-14.0197 -10.1794,-5.9379 -21.4175,-6.7864 -24.6261,-4.3561 -0.9579,0.7255 -1.7417,2.3168 -1.7417,3.5362 0,1.9004 1.8402,3.4191 12.8908,10.6382 l 12.8909,8.4212 h 5.586 5.5861 l 14.8589,11.1892 14.8589,11.189 c 0.3885,4.2928 1.1347,3.3734 -12.5507,2.8469 -6.4552,-0.2483 -25.2378,-0.8306 -41.739,-1.294 -16.5012,-0.4634 -37.0741,-1.0474 -45.7176,-1.2978 l -15.7155,-0.4552 -25.3967,17.3226 c -11.6227,10.1302 -36.0575,18.7716 -12.404,19.8236 6.6465,0.286 18.7279,0.8657 26.8475,1.2883 8.1197,0.4226 25.4781,1.2936 38.5743,1.9357 49.1582,2.41 60.3037,2.9678 71.4339,3.575 6.2861,0.343 11.965,0.5823 12.6198,0.5319 0.6546,-0.05 10.4053,-8.5087 21.6682,-18.7961 z"
     style="fill:#49938d;fill-opacity:1;stroke-width:1" /><path
     inkscape:export-ydpi="505"
     inkscape:export-xdpi="505"
     inkscape:export-filename="/home/christophe/text1705-1-3.png"
     sodipodi:nodetypes="ccccc"
     inkscape:connector-curvature="0"
     id="path1759"
     d="m 1463.3635,792.33074 41.8979,-27.7636 76.4602,0.7747 -41.5583,29.4038 z"
     style="fill:#49938d;fill-opacity:1;stroke:none;stroke-width:1px;stroke-linecap:butt;stroke-linejoin:miter;stroke-opacity:1" /></g><text
   xml:space="preserve"
   style="font-style:normal;font-variant:normal;font-weight:normal;font-stretch:normal;font-size:66.66666412px;line-height:1.25;font-family:Arial;-inkscape-font-specification:'Arial, Normal';font-variant-ligatures:normal;font-variant-caps:normal;font-variant-numeric:normal;font-feature-settings:normal;text-align:start;letter-spacing:0px;word-spacing:0px;writing-mode:vertical-lr;text-anchor:start;fill:#49938d;fill-opacity:1;stroke:none;"
   x="1729.2452"
   y="708.50653"
   id="text1705-1-3"
   inkscape:export-filename="/home/christophe/text1705-1-3.png"
   inkscape:export-xdpi="505"
   inkscape:export-ydpi="505"><tspan
     sodipodi:role="line"
     id="tspan1703-3-3"
     x="1729.2452"
     y="708.50653"
     style="font-style:normal;font-variant:normal;font-weight:bold;font-stretch:normal;font-size:96px;font-family:Arial;-inkscape-font-specification:'Arial Bold';writing-mode:lr-tb;fill:#49938d;fill-opacity:1;">symposium</tspan></text>


</svg>