<?xml version="1.0" encoding="UTF-8" standalone="no"?>
<!-- Created with Inkscape (http://www.inkscape.org/) -->

<svg
   xmlns:dc="http://purl.org/dc/elements/1.1/"
   xmlns:cc="http://creativecommons.org/ns#"
   xmlns:rdf="http://www.w3.org/1999/02/22-rdf-syntax-ns#"
   xmlns:svg="http://www.w3.org/2000/svg"
   xmlns="http://www.w3.org/2000/svg"
   xmlns:sodipodi="http://sodipodi.sourceforge.net/DTD/sodipodi-0.dtd"
   xmlns:inkscape="http://www.inkscape.org/namespaces/inkscape"
   width="86.551544mm"
   height="87.059616mm"
   viewBox="0 0 86.551544 87.059616"
   version="1.1"
   id="svg919"
   inkscape:version="0.92.3 (2405546, 2018-03-11)"
   sodipodi:docname="beerformatics_logo.svg">
  <defs
     id="defs913" />
  <sodipodi:namedview
     id="base"
     pagecolor="#ffffff"
     bordercolor="#666666"
     borderopacity="1.0"
     inkscape:pageopacity="0.0"
     inkscape:pageshadow="2"
     inkscape:zoom="0.35"
     inkscape:cx="223.28999"
     inkscape:cy="365.18084"
     inkscape:document-units="mm"
     inkscape:current-layer="layer1"
     showgrid="false"
     fit-margin-top="0"
     fit-margin-left="0"
     fit-margin-right="0"
     fit-margin-bottom="0"
     inkscape:window-width="960"
     inkscape:window-height="1028"
     inkscape:window-x="960"
     inkscape:window-y="24"
     inkscape:window-maximized="0" />
  <metadata
     id="metadata916">
    <rdf:RDF>
      <cc:Work
         rdf:about="">
        <dc:format>image/svg+xml</dc:format>
        <dc:type
           rdf:resource="http://purl.org/dc/dcmitype/StillImage" />
        <dc:title></dc:title>
      </cc:Work>
    </rdf:RDF>
  </metadata>
  <g
     inkscape:label="Layer 1"
     inkscape:groupmode="layer"
     id="layer1"
     transform="translate(-61.621094,-156.84833)">
    <rect
       style="opacity:1;vector-effect:none;fill:none;fill-opacity:1;stroke:#49938d;stroke-width:5;stroke-linecap:butt;stroke-linejoin:round;stroke-miterlimit:4;stroke-dasharray:none;stroke-dashoffset:0;stroke-opacity:1"
       id="rect1485"
       width="81.551544"
       height="82.059616"
       x="64.121094"
       y="159.34833"
       ry="13.630746"
       rx="13.630746" />
    <path
       style="fill:#49938d;fill-opacity:1;stroke:none;stroke-width:0.26458332;stroke-opacity:1"
       d="m 88.987454,227.20247 c -1.12593,-0.43579 -2.01035,-1.22223 -2.6331,-2.34136 l -0.54811,-0.98497 -0.10735,-17.648 -0.10736,-17.648 -0.45752,-1.25312 c -0.8482,-2.32318 -0.23037,-4.94792 1.56887,-6.66507 0.84916,-0.81042 2.19993,-1.57183 2.80297,-1.57998 0.18812,-0.003 0.68178,-0.5384 1.11077,-1.20579 1.46408,-2.27743 3.30169,-3.67353 5.70625,-4.33514 3.09279,-0.85098 6.228866,0.1356 8.674886,2.72907 l 1.20028,1.27262 0.77677,-0.3115 c 0.47413,-0.19013 1.50857,-0.31837 2.65498,-0.32914 1.71935,-0.0161 1.99062,0.0386 3.20744,0.64752 3.38143,1.69217 5.25704,5.2637 4.69972,8.94916 -0.11668,0.77155 -0.34502,1.67425 -0.50742,2.00596 -0.22212,0.45379 -0.28141,1.18436 -0.23934,2.94992 l 0.0558,2.3468 1.97707,0.10639 c 1.52413,0.082 2.19168,0.21759 2.91394,0.59182 1.21086,0.62741 2.40213,2.06918 2.92164,3.53597 0.39147,1.10533 0.40894,1.49953 0.35261,7.9671 l -0.0593,6.80425 -0.52662,1.04426 c -0.63807,1.26528 -1.73636,2.40316 -2.93323,3.03899 -0.68035,0.36143 -1.34327,0.49606 -2.81731,0.5722 l -1.92765,0.0996 -0.003,2.94823 c -0.003,2.66326 -0.0471,3.04915 -0.46924,3.99248 -0.56168,1.25507 -1.29963,2.02243 -2.49438,2.59375 -0.86337,0.41284 -1.23185,0.42513 -12.45548,0.4153 -9.528536,-0.008 -11.701936,-0.0628 -12.338676,-0.30928 z m 23.823186,-4.02824 c 0.36185,-0.47215 0.37785,-0.98348 0.37785,-12.06284 v -11.56978 l -11.91178,0.0538 -11.911776,0.0538 -0.0474,11.38243 c -0.0509,12.20281 -0.0465,12.26126 0.93869,12.55612 0.27096,0.0811 5.37157,0.13216 11.334616,0.11345 l 10.84196,-0.034 z m -19.698276,-2.42138 -0.48527,-0.51263 v -8.63039 c 0,-7.57522 0.0387,-8.68874 0.31649,-9.10774 0.45842,-0.69136 1.18602,-0.92869 1.98903,-0.64873 1.24468,0.43394 1.25318,0.50025 1.25318,9.77854 v 8.34843 l -0.51184,0.64258 c -0.6735,0.84554 -1.82869,0.90414 -2.56159,0.12994 z m 6.919726,0 -0.485296,-0.51263 v -7.9174 -7.9174 l 0.521226,-0.55059 c 0.73107,-0.7723 1.69399,-0.74885 2.45956,0.0599 l 0.57791,0.6105 v 7.72756 7.72757 l -0.51184,0.64258 c -0.6735,0.84554 -1.82869,0.90414 -2.56156,0.12994 z m 6.55084,-0.12994 -0.51183,-0.64258 v -8.32447 c 0,-5.00866 0.0782,-8.54187 0.19642,-8.87029 0.23556,-0.65448 1.37274,-1.21587 2.08196,-1.0278 0.27265,0.0723 0.67228,0.36848 0.88802,0.65825 0.3769,0.50615 0.39229,0.86604 0.39229,9.1755 v 8.6487 l -0.48527,0.51263 c -0.73289,0.7742 -1.88809,0.7156 -2.56159,-0.12994 z m 13.89973,-7.6205 c 0.33136,-0.29456 0.69355,-0.88196 0.80489,-1.30533 0.29141,-1.10845 0.24656,-11.43291 -0.0537,-12.35382 -0.38105,-1.16869 -1.30175,-1.67804 -3.03311,-1.67804 h -1.45356 v 7.93636 7.93638 h 1.56649 c 1.39292,0 1.63322,-0.0593 2.16897,-0.53555 z m -7.33769,-19.98418 0.0554,-2.66284 h -1.45153 c -1.38914,0 -1.47071,0.0274 -1.89778,0.63759 -0.7172,1.02478 -2.68393,2.42308 -4.12565,2.93328 -1.72812,0.61155 -3.95575,0.60901 -5.813706,-0.007 -1.43748,-0.4763 -3.40244,-1.87126 -4.10583,-2.91478 l -0.43778,-0.64947 h -3.05097 -3.05099 v 2.57585 c 0,1.41671 0.06,2.63922 0.13335,2.71671 0.0733,0.0775 5.43365,0.11663 11.911776,0.087 l 11.77843,-0.0538 z m -8.59584,-2.75555 c 1.87283,-0.7057 3.24475,-2.30291 3.69999,-4.30763 0.27313,-1.20269 0.93295,-1.86523 1.85761,-1.86523 0.86445,0 1.44756,0.49723 1.72331,1.46952 0.23157,0.81642 0.24802,0.82785 1.19206,0.82785 h 0.95721 l -0.004,-1.09648 c -0.005,-1.27784 -0.49496,-2.52791 -1.30525,-3.33055 -1.32609,-1.31358 -3.50038,-1.6432 -5.00959,-0.75944 -0.4577,0.268 -1.10887,0.64895 -1.44706,0.84651 -0.62286,0.36386 -1.36895,0.31888 -1.88733,-0.11382 -0.14441,-0.12055 -0.47789,-0.66802 -0.74104,-1.21661 -1.12255,-2.34016 -2.85192,-3.54433 -5.109896,-3.55809 -1.02256,-0.006 -1.53757,0.1125 -2.38284,0.54938 -1.27129,0.65704 -2.49422,2.04047 -2.87162,3.24848 -0.39519,1.265 -1.1829,1.88013 -2.40755,1.88013 -0.86583,0 -1.07929,0.091 -1.66532,0.71011 -0.58872,0.6219 -0.6722,0.84235 -0.6722,1.77522 v 1.06516 h 2.86295 2.86298 l 0.12483,-0.52543 c 0.25752,-1.08379 1.68148,-1.69328 2.66155,-1.13919 0.46193,0.26117 0.97755,1.26415 0.97755,1.90158 0,0.25662 0.18873,0.87837 0.41937,1.38171 0.91948,2.00644 3.916856,3.10377 6.164626,2.25682 z"
       id="path1718"
       inkscape:connector-curvature="0"
       inkscape:export-filename="/home/christophe/text1705-1-3.png"
       inkscape:export-xdpi="505"
       inkscape:export-ydpi="505" />
  </g>
</svg>
