<?xml version="1.0" encoding="UTF-8" standalone="no"?>
<!-- Generator: Adobe Illustrator 22.1.0, SVG Export Plug-In . SVG Version: 6.00 Build 0)  -->

<svg
   xmlns:dc="http://purl.org/dc/elements/1.1/"
   xmlns:cc="http://creativecommons.org/ns#"
   xmlns:rdf="http://www.w3.org/1999/02/22-rdf-syntax-ns#"
   xmlns:svg="http://www.w3.org/2000/svg"
   xmlns="http://www.w3.org/2000/svg"
   xmlns:sodipodi="http://sodipodi.sourceforge.net/DTD/sodipodi-0.dtd"
   xmlns:inkscape="http://www.inkscape.org/namespaces/inkscape"
   version="1.1"
   id="Layer_1"
   x="0px"
   y="0px"
   viewBox="0 0 1009.4 1033.4"
   style="enable-background:new 0 0 1009.4 1033.4;"
   xml:space="preserve"
   sodipodi:docname="rsgBe.svg"
   inkscape:version="0.92.3 (2405546, 2018-03-11)"><metadata
   id="metadata103"><rdf:RDF><cc:Work
       rdf:about=""><dc:format>image/svg+xml</dc:format><dc:type
         rdf:resource="http://purl.org/dc/dcmitype/StillImage" /><dc:title></dc:title></cc:Work></rdf:RDF></metadata><defs
   id="defs101" /><sodipodi:namedview
   pagecolor="#ffffff"
   bordercolor="#666666"
   borderopacity="1"
   objecttolerance="10"
   gridtolerance="10"
   guidetolerance="10"
   inkscape:pageopacity="0"
   inkscape:pageshadow="2"
   inkscape:window-width="1920"
   inkscape:window-height="1056"
   id="namedview99"
   showgrid="false"
   inkscape:zoom="0.45674472"
   inkscape:cx="794.37407"
   inkscape:cy="655.75061"
   inkscape:window-x="0"
   inkscape:window-y="24"
   inkscape:window-maximized="1"
   inkscape:current-layer="Layer_1" /><style
   type="text/css"
   id="style2">
	.st0{fill-rule:evenodd;clip-rule:evenodd;fill:#0F1115;}
	.st1{fill-rule:evenodd;clip-rule:evenodd;fill:#FDFDFD;}
	.st2{fill-rule:evenodd;clip-rule:evenodd;}
	.st3{fill-rule:evenodd;clip-rule:evenodd;fill:#FFFFFF;}
	.st4{fill:none;stroke:#000000;stroke-width:0.216;stroke-miterlimit:22.9256;}
	.st5{fill:#231F20;}
	.st6{font-family:'ArialNarrow-Bold';}
	.st7{font-size:101.029px;}
	.st8{font-family:'Arial-BoldMT';}
	.st9{font-size:70.5193px;}
</style><path
   d="M 330.5 188.19922 C 330.5 191.69922 324.29922 214.40078 324.19922 218.30078 C 317.79922 218.30078 316.6 218.10039 310 219.40039 C 306.4 220.10039 305.40039 220.49922 302.40039 221.69922 C 295.50039 224.39922 289.89961 229.39961 285.59961 235.09961 C 281.19961 240.89961 282.69922 239.39961 280.19922 244.59961 C 277.59922 249.99961 277.30078 255.29961 277.30078 261.09961 C 277.30078 268.69961 281.50039 274.39922 285.90039 277.69922 C 296.90039 285.89922 310.8 282.30078 321 282.30078 C 328.3 251.00078 335.29961 219.49922 342.59961 188.19922 L 330.5 188.19922 z M 314.69922 229.19922 L 321 229.19922 L 316.19922 250.90039 C 315.39922 254.60039 314.70078 258.09961 313.80078 261.59961 C 313.10078 264.19961 311.6 269.70039 311.5 272.40039 C 309.3 272.40039 309.09961 272.80078 306.59961 272.80078 C 295.79961 272.80078 289.5 267.09961 289.5 256.09961 C 289.5 248.89961 293.70039 239.80039 298.90039 235.90039 C 301.70039 233.80039 304.70039 231.6 308.40039 230.5 C 310.10039 230.1 312.79922 229.29922 314.69922 229.19922 z "
   id="path12" /><path
   class="st2"
   d="M83.3,270.5c-9.9,0-17.5-7.8-20.3-8.6c0,1.3-2.8,13.1-3.2,14c2.3,1.2,4.4,2.5,6.8,3.6c10.9,4.8,23.7,5,33.3-2.2  c10.9-8.2,14.3-23.9,6.8-35.1c-4-5.9-3.1-4.6-8-9.6c-5.8-5.8-20.3-18.6-11.9-27.9c2.3-2.5,4.3-5,9.8-5.9c11.5-2,14.1,2.9,20,4.3  c0-4.3,2.2-8.9,2.2-13.1c-17.5-8.4-39.8-3.2-46.3,15.4c-2.6,7.4-1.3,17.4,3.3,23.6c10.2,14,30.5,23.7,18.3,37.6  C92,268.9,87.5,270.5,83.3,270.5"
   id="path14" /><path
   d="M 387.74219 217.49609 C 382.55469 217.58691 377.25 219.27539 373 221.90039 C 372.1 222.50039 371.60078 222.60078 370.80078 223.30078 C 363.20078 229.50078 360.39922 235.30039 357.69922 243.90039 C 356.79922 246.50039 355.69922 252.49922 355.69922 255.69922 C 355.69922 263.49922 357.50039 270.69922 361.90039 275.19922 C 366.60039 280.09922 371.19922 282.69922 378.69922 282.69922 C 384.59922 282.69922 391.69961 280.20039 395.59961 277.90039 C 400.99961 274.70039 399.49961 276.00078 402.59961 262.80078 L 393.19922 268.30078 C 387.79922 271.60078 376.29922 274.39961 371.69922 267.59961 C 366.59922 259.99961 368.80078 255.10078 368.80078 249.30078 L 406.19922 249.30078 C 406.19922 239.40078 409.79922 225.09922 396.69922 219.19922 C 393.92422 217.96172 390.85469 217.4416 387.74219 217.49609 z M 386.51953 227.78906 C 389.31211 227.63965 391.86289 228.39922 393.40039 230.19922 C 396.10039 233.29922 395.69922 236.60039 395.69922 240.40039 L 371.90039 240.40039 C 372.30039 238.80039 373.39961 236.8 374.09961 235.5 C 376.53711 230.8125 381.86523 228.03809 386.51953 227.78906 z "
   id="path16" /><path
   class="st2"
   d="M231.9,272.3l-1.8,9h11.7l10.5-46.2c0.7-3.4,3.4-13.4,3.4-16h-11.7c-0.2,2.2-1.3,5.3-1.7,7.3  c-1,4.7-7,31.1-8.5,33.4c-2.5,3.6-8.8,8.9-13.1,10.8c-4.9,2.2-11.1,1.1-10.9-5c0.1-2.4,2.5-12.5,3.2-15.7l6.6-30.7H208  c-3.1,13.5-8.8,35.3-10.2,48.8c-0.2,1.4,0.5,4.9,0.8,6.1c2.8,9.1,12.1,10,19.5,7C226.9,277.6,229.9,272.9,231.9,272.3"
   id="path18" /><path
   class="st2"
   d="M452.5,229.6c0.3-3.1,1.8-5.6,1.8-9h-11.7c-0.4,5.5-14,58.1-14,62.1h11.7l9.9-41c1.1-2.1,8-8.2,11-9.8  c3.3-1.8,3.5-2.4,8.4-2.4c8.3,0,3.7,13.6,2.8,17.6l-5.2,23.6c-0.5,2.2-0.8,3.7-1.3,5.9c-0.3,1.6-1.1,4-1.2,6h11.7l8.3-36.3  c1.6-7.3,1.1-5.7,1.9-13c0.8-7.9-4.6-15.4-14.3-14.3C461.3,220.4,457.1,226.4,452.5,229.6"
   id="path20" /><path
   class="st2"
   d="M153.1,219.2h-9.9c-0.3,1.4-0.9,3.3-1.3,4.6c-0.4,1.2-1,3.5-1.4,4.4h9.9c-0.8,3.2-1.8,6.5-2.7,9.5  c-2.1,7.1-7.3,23.5-7.3,30.1c0,13,11.7,17.4,22.3,13.3c2.1-0.8,4.5-2.1,6.5-2.5c0-3.6,0.2-8.4,0.9-11.3c-3.7,0.9-5.5,3.6-10.8,3.6  c-10.1,0-5.2-13.1-3.2-19.9l4.8-16.8c0.5-1.8,1.5-4.4,1.6-6h11.7c0.5-1,2.6-7.8,2.7-9h-11.3l3.6-13.1h-12.2L153.1,219.2"
   id="path22" /><path
   class="st2"
   d="M528.6,219.2h-10.4l-2.7,9h9.9c-0.7,3.2-1.8,6.5-2.6,9.5c-2.1,7.2-7.3,23.8-7.3,30.1  c0,13.9,13.4,17.2,22.4,13.4c1.9-0.8,4.6-2.1,6.4-2.6c0-3.3,0.3-8.6,0.9-11.3c-3.7,0.9-5.5,3.6-10.8,3.6c-4.5,0-6.9-3.1-6.1-7.8  c0.8-4.6,1.7-8.1,2.9-12l6.4-22.9h11.7c0.5-1,2.6-7.8,2.7-9h-11.3c0.2-2.9,3.4-10.3,3.6-13.1h-12.2  C531.9,209.9,528.7,215.4,528.6,219.2"
   id="path24" /><path
   d="M 185.9043 84.150391 C 178.98257 84.204224 172.20625 85.256641 167 87.400391 C 150.4 94.100391 139.49922 108.79922 139.19922 127.19922 C 139.09922 135.29922 140.79961 138.99922 143.09961 145.19922 C 144.69961 149.69922 148.9 155.39961 152.5 158.59961 C 162 166.79961 170.79961 171.59961 185.09961 171.59961 C 198.89961 171.59961 202.3 168.30039 210.5 166.40039 L 210.5 171.09961 L 239.5 171.09961 C 254.4 171.09961 269 164.40078 269 148.30078 C 269 136.80078 261.20078 128.5 250.30078 126 C 253.00078 123.6 257 124.3 260.5 116.5 C 262.6 111.8 262.49922 104.6 260.69922 100 C 257.09922 90.1 247.99922 86.099609 234.69922 86.099609 L 210.30078 86.099609 L 210.30078 88.699219 C 203.94453 85.661719 194.80366 84.081177 185.9043 84.150391 z M 187.33789 95.693359 C 191.83789 95.713629 196.35273 96.48125 200.59961 98 C 202.79961 98.8 208.1 101.39961 210.5 101.59961 L 210.5 152.90039 C 209.1 153.00039 201.89961 156.59922 195.59961 158.19922 C 181.79961 161.79922 168.69961 158.10039 159.59961 147.40039 C 156.49961 143.70039 153.99922 138.49961 153.19922 133.59961 C 152.59922 129.89961 152.8 127.90039 153 124.90039 C 153.2 121.10039 153.59961 119.69922 154.59961 116.69922 C 155.09961 115.09922 156.90039 111.59961 157.90039 110.09961 C 164.44102 100.46836 175.83789 95.641559 187.33789 95.693359 z M 231.03516 97.378906 C 235.69531 97.387695 240.375 97.761719 244 99.699219 C 251 103.49922 252.30078 120.70078 234.80078 121.80078 L 222.90039 122.30078 L 222.90039 97.5 C 225.45039 97.5 228.23906 97.373633 231.03516 97.378906 z M 233.05664 133.69922 C 243.91289 133.78828 255.5 135.32422 255.5 146.19922 C 255.5 148.79922 254.90039 151.70039 253.90039 153.40039 C 249.20039 161.30039 233.30039 159.69922 222.90039 159.69922 L 222.90039 133.80078 C 225.90039 133.80078 229.43789 133.66953 233.05664 133.69922 z "
   id="path30" /><path
   class="st2"
   d="M93.9,107.3c0,12.7,13.6,21.5,21.1,30.7c18.9,23.2-18.1,46.7-32.1,33.2c-6.2-6-3.2-16.6-11.2-16.6  c-5.4,0-8.2,5.8-5.3,13.5c0.8,2,2.2,2.6,3.6,4.2c1.7,2.1,1.2,2,3.7,3.6c1.8,1.1,3,1.8,5.1,2.6c3.3,1.3,9.3,2.5,12.5,2.4  c3.6-0.2,10.2-1.1,13.4-2.2c8.7-2.9,7.6-3,14.9-7.4c5.1-3.1,11.4-12.2,12.5-18.1c3.6-19.9-8.7-26-20.1-39.5c-1.7-2-2.4-2.6-3.9-4.9  c-2.6-4.1-2.5-10.5-0.3-15.1c5.7-11.6,24.3-18.1,29.7-5c1.8,4.3,0.5,12.6,0.2,17.7l4.5,0c0.2-2,0.8-4.7,1-6.8  c0.6-5.2,1.2-9.3,2.6-14c0.6-1.9,1.4-4.7,1.6-6.7c-11.1-0.9-26.2-7.8-42.3,5.8c-2.4,2-6,6.3-7.4,9.2c-0.9,1.9-2,3.5-2.6,5.7  C94.5,101.7,93.9,104.8,93.9,107.3"
   id="path32" /><path
   class="st2"
   d="M57.1,97.5c2.4,0.6,1.2,1.4,4.1,2.1c4.1-2.7,7-9.3,13.5-9.3c0.8,3.5-1.4,8.1-2.9,13.2  c-1.3,4.7-2.5,8.9-3.8,13.3c-1.3,4.5-2.3,8.9-3.5,13.6c-1.4,5.6-6.3,22.5,4.3,21.9c3.7-0.2,7.3-2.2,10.1-3.9  c2.6-1.6,5.5-4.1,7.8-6.2c2-1.8,5.3-4.2,7.1-6.9l-3-3.2c-2,0.6-2,1.3-3.4,2.6c-15.8,15-12.6,4.5-9.4-8.4C81,115,84.3,105.1,87.3,94  c1.7-6.4,5.3-14.1-3.2-14.1C73.6,79.9,57.5,93.5,57.1,97.5"
   id="path34" /><path
   class="st2"
   d="M81.5,65.4v2.1c0,4,4.5,5.8,8.3,4.7c6.3-1.9,9.4-15-0.5-15C84.8,57.1,81.5,60.9,81.5,65.4"
   id="path42" /><g
   id="g70"><text
   transform="matrix(1.1582 0 0 1 743.7871 164.649)"
   class="st5 st6 st7"
   id="text50"
   style="-inkscape-font-specification:'Arial, Bold Condensed';font-family:Arial;font-weight:bold;font-style:normal;font-stretch:condensed;font-variant:normal;font-size:101.0285881px;text-anchor:start;text-align:start;writing-mode:lr;font-variant-ligatures:normal;font-variant-caps:normal;font-variant-numeric:normal;font-feature-settings:normal;">L</text>

<text
   transform="matrix(1.1582 0 0 1 674.6328 164.649)"
   class="st5 st6 st7"
   id="text52"
   style="-inkscape-font-specification:'Arial, Bold Condensed';font-family:Arial;font-weight:bold;font-style:normal;font-stretch:condensed;font-variant:normal;font-size:101.0285881px;text-anchor:start;text-align:start;writing-mode:lr;font-variant-ligatures:normal;font-variant-caps:normal;font-variant-numeric:normal;font-feature-settings:normal;">A</text>

<text
   transform="matrix(1.1582 0 0 1 605.4795 164.649)"
   class="st5 st6 st7"
   id="text54"
   style="-inkscape-font-specification:'Arial, Bold Condensed';font-family:Arial;font-weight:bold;font-style:normal;font-stretch:condensed;font-variant:normal;font-size:101.0285881px;text-anchor:start;text-align:start;writing-mode:lr;font-variant-ligatures:normal;font-variant-caps:normal;font-variant-numeric:normal;font-feature-settings:normal;">N</text>

<text
   transform="matrix(1.1582 0 0 1 530.8262 164.649)"
   class="st5 st6 st7"
   id="text56"
   style="-inkscape-font-specification:'Arial, Bold Condensed';font-family:Arial;font-weight:bold;font-style:normal;font-stretch:condensed;font-variant:normal;font-size:101.0285881px;text-anchor:start;text-align:start;writing-mode:lr;font-variant-ligatures:normal;font-variant-caps:normal;font-variant-numeric:normal;font-feature-settings:normal;">O</text>

<text
   transform="matrix(1.1582 0 0 1 504.1484 164.649)"
   class="st5 st6 st7"
   id="text58"
   style="-inkscape-font-specification:'Arial, Bold Condensed';font-family:Arial;font-weight:bold;font-style:normal;font-stretch:condensed;font-variant:normal;font-size:101.0285881px;text-anchor:start;text-align:start;writing-mode:lr;font-variant-ligatures:normal;font-variant-caps:normal;font-variant-numeric:normal;font-feature-settings:normal;">I</text>

<text
   transform="matrix(1.1582 0 0 1 429.4956 164.649)"
   class="st5 st6 st7"
   id="text60"
   style="-inkscape-font-specification:'Arial, Bold Condensed';font-family:Arial;font-weight:bold;font-style:normal;font-stretch:condensed;font-variant:normal;font-size:101.0285881px;text-anchor:start;text-align:start;writing-mode:lr;font-variant-ligatures:normal;font-variant-caps:normal;font-variant-numeric:normal;font-feature-settings:normal;">G</text>

<text
   transform="matrix(1.1582 0 0 1 365.6069 164.649)"
   class="st5 st6 st7"
   id="text62"
   style="-inkscape-font-specification:'Arial, Bold Condensed';font-family:Arial;font-weight:bold;font-style:normal;font-stretch:condensed;font-variant:normal;font-size:101.0285881px;text-anchor:start;text-align:start;writing-mode:lr;font-variant-ligatures:normal;font-variant-caps:normal;font-variant-numeric:normal;font-feature-settings:normal;">E</text>

<text
   transform="matrix(1.1582 0 0 1 296.3369 164.649)"
   class="st5 st6 st7"
   id="text64" />

<text
   transform="matrix(1.1582 0 0 1 296.3374 164.649)"
   class="st5 st6 st7"
   id="text66" />

<text
   transform="matrix(1.1582 0 0 1 296.4541 164.649)"
   class="st5 st6 st7"
   id="text68"
   style="-inkscape-font-specification:'Arial, Bold Condensed';font-family:Arial;font-weight:bold;font-style:normal;font-stretch:condensed;font-variant:normal;font-size:101.0285881px;text-anchor:start;text-align:start;writing-mode:lr;font-variant-ligatures:normal;font-variant-caps:normal;font-variant-numeric:normal;font-feature-settings:normal;">R</text>

</g><text
   transform="matrix(1.1375 0 0 1 576.3701 284.0729)"
   class="st5 st6 st7"
   id="text72"
   style="-inkscape-font-specification:'Arial, Bold Condensed';font-family:Arial;font-weight:bold;font-style:normal;font-stretch:condensed;font-variant:normal;font-size:101.02858777px;text-anchor:start;text-align:start;writing-mode:lr;font-variant-ligatures:normal;font-variant-caps:normal;font-variant-numeric:normal;font-feature-settings:normal;">GROUP</text>

<path
   class="st2"
   d="M102.5,906.6c0,3.3-0.4,5.2-1.4,7.5c-2.7,6.6-4.4,8.6-8.1,14.3c-0.6,0.9-1.1,1.7-1.2,2.8c1.1-0.9,1.9-2,2.7-3.1  c3.3-4.3,7.6-9.5,12.1-12.7c0.6-0.4,1-0.7,1.6-1.1c20.5-15.1,36.7-8,29.7,5.6c-0.6,1.9-2.2,4.2-3.2,5.8c-1.1,1.8-2.3,3.3-3.3,5.3  c-1.7,3.1-3.9,8.7-3.9,13.2c0,5.3,1.4,9.9,6.7,12.2c1.1,0.5,2.5,1.2,3.5,1.4c1.5,0.3,2.7,0.3,4.3,0.5c4.9,0.7,11.8-1.1,16.5-2.5  c5.9-1.8,14.6-6.5,19.4-9.6c0-5,0.1-6.1,2-11.3c0.5-1.3,1.2-2,1.4-3.4c-2,1.6-3.8,3.4-6,4.9c-2.1,1.4-4.3,2.9-6.6,4.1  c-3.5,1.7-11.4,5.3-16.6,4.5c-7.8-1.2-9.7-5.7-7.4-12.8c0.7-2.3,2.5-5,3.8-6.9c1.5-2.2,2.8-4,4.1-6.5c0.4-1.2,0.9-1.9,1.4-3.2  c0.4-1.1,0.8-2.4,1.1-3.4c0.7-2.6,1.1-5,1.1-8.1c-1.1-12.9-16.5-12.9-26.3-10.5c-7.8,1.9-17.6,6.3-24.2,10.7  C104.3,905.2,103.5,905.9,102.5,906.6"
   id="path74" /><path
   class="st2"
   d="M156,904.2c0,3.2-0.4,5.6-1.1,8.1c-0.3,1-0.6,2.3-1.1,3.4c-0.5,1.3-1,2-1.4,3.2c3-1.8,5.5-5.1,12.8-8.7  c4.3-2.1,14.6-6.9,20.9-3c8.3,5.1,1,15.5-2.8,21.1l-1.6,2.5c0,0.1-0.1,0.8-0.3,0.4c0-0.1-0.1,0.1-0.2,0.2c-0.2,1.3-0.9,2.1-1.4,3.4  c-1.9,5.2-2,6.3-2,11.3c0,9.5,10.6,13.1,18.5,12.1c3.1-0.4,1.5,0.2,6.8-0.8c3.6-0.7,8.7-2.2,11.8-3.7c1.4-0.7,3.9-2.3,5.5-2.4  c-0.3-1-1.7-2.2-3-3.8c-1.2-1.4-1.9-2.9-2.9-4.4c-1.4,0.1-13.2,4.8-18.8-0.7c-2.6-2.6-3-8.5,0.8-12.6c5.3-5.8,5.8-8.8,14.3-15  c4.1-3,1.5-3.4,7.1-10.5c1.8-2.2,2.3-2.2,2.6-3.9c-4.4,0.3-11.9,4.8-14.4,7.2c0-4.3,0-7.9-3.2-11.1c-8.2-8-25.7-3.2-34.3,0.6  C162.9,900,160.6,901.8,156,904.2"
   id="path76" /><path
   class="st2"
   d="M77.1,932.3c-0.1,1.1-0.9,2.5-1.3,3.4c-0.5,1.1-0.7,2.1-1.1,3.4c-0.6,1.9-1.1,5.5-0.6,7.6c0,5.2,4,9.1,8.9,10.8  c8.1,2.8,20.5-0.2,28.5-4c1.3-0.6,2.4-1,3.6-1.6l9.4-5.4c1.1-0.8,2-1.4,3.1-2.1c0-4.5,2.2-10.1,3.9-13.2c1.1-2,2.3-3.5,3.3-5.3  c1-1.6,2.6-3.9,3.2-5.8c-1,0.6-8.7,10.9-13.2,14.4c-3.7,3-6.2,4.2-10.1,6.5c-4.5,2.7-20.9,8.2-24.1-1c-0.8-2.4-0.4-5.7,0.9-8.1  c0,0,0.1-0.1,0.1-0.2c0-0.1,0.1-0.2,0.1-0.2c0.1-1.1,0.6-1.9,1.2-2.8c3.7-5.7,5.4-7.7,8.1-14.3c1-2.3,1.4-4.2,1.4-7.5  c0-4.9-0.6-8.1-4.7-11.1c-7.9-5.9-23.7-2-31.7,1.5c-1.7,0.8-3.6,1.9-5.6,2.4v11.3c6.3-3.3,20.3-8.4,24.5-1.2  c2.4,4.2,0.5,9.3-1.4,12.6c-0.6,1.1-1,1.6-1.6,2.5l-4.7,7.4C77.2,932.1,77.1,932.2,77.1,932.3"
   id="path78" /><path
   class="st2"
   d="M74,946.7c-0.5-2.1,0-5.6,0.6-7.6c0.4-1.3,0.6-2.2,1.1-3.4c0.4-1,1.2-2.3,1.3-3.4c-7.1,5.6-3.7,3.4-11.9,8.4  c-1.7,1-3,1.4-4.7,2.2v10.9C63.2,953.2,71.6,948.2,74,946.7"
   id="path80" /><text
   transform="scale(0.99146064,1.0086129)"
   id="text96"
   x="-41.359371"
   y="941.12964"
   style="font-style:normal;font-variant:normal;font-weight:bold;font-stretch:normal;font-size:71.12667084px;font-family:Arial;-inkscape-font-specification:'Arial, Bold';font-variant-ligatures:normal;font-variant-caps:normal;font-variant-numeric:normal;font-feature-settings:normal;text-align:start;writing-mode:lr-tb;text-anchor:start;stroke-width:1.00861287"><tspan
     x="231.16785"
     y="941.12964"
     class="st5 st8 st9"
     id="tspan94"
     style="font-style:normal;font-variant:normal;font-weight:bold;font-stretch:normal;font-size:71.12667084px;font-family:Arial;-inkscape-font-specification:'Arial, Bold';font-variant-ligatures:normal;font-variant-caps:normal;font-variant-numeric:normal;font-feature-settings:normal;text-align:start;writing-mode:lr-tb;text-anchor:start;fill:#231f20;stroke-width:1.00861287">Belgium</tspan></text>

<circle
   style="opacity:1;fill:none;fill-opacity:1;stroke:#000000;stroke-width:11.25548172;stroke-miterlimit:4;stroke-dasharray:none;stroke-opacity:1"
   id="path4661"
   cx="73.141212"
   cy="546.83966"
   r="37.529007" /><circle
   style="opacity:1;fill:none;fill-opacity:1;stroke:#000000;stroke-width:11.25548172;stroke-miterlimit:4;stroke-dasharray:none;stroke-opacity:1"
   id="path4672"
   cx="811.83606"
   cy="588.92499"
   r="37.4636" /><circle
   style="opacity:1;fill:none;fill-opacity:1;stroke:#000000;stroke-width:11.25548172;stroke-miterlimit:4;stroke-dasharray:none;stroke-opacity:1"
   id="path4674"
   cx="751.47797"
   cy="880.32935"
   r="36.69231" /><circle
   style="display:inline;opacity:1;fill:#000000;fill-opacity:1;stroke:#000000;stroke-width:18.4796257;stroke-miterlimit:4;stroke-dasharray:none;stroke-opacity:1"
   id="path4659"
   cx="480.94769"
   cy="570.20184"
   r="155.39546"
   inkscape:label="path4659" /><path
   style="opacity:1;fill:#ff0f21;fill-opacity:1;stroke:#000000;stroke-width:18.36681938;stroke-miterlimit:4;stroke-dasharray:none;stroke-opacity:1"
   d="M 774.03432,586.228 112.12516,549.08678 Z"
   id="path838"
   inkscape:connector-curvature="0" /><path
   style="opacity:1;fill:#ff0f21;fill-opacity:1;stroke:#000000;stroke-width:18.87599945;stroke-miterlimit:4;stroke-dasharray:none;stroke-opacity:1"
   d="M 245.76672,295.71043 725.77709,851.50395"
   id="path840"
   inkscape:connector-curvature="0" /><path
   style="opacity:1;fill:#ff0f21;fill-opacity:1;stroke:#000000;stroke-width:18.36681938;stroke-miterlimit:4;stroke-dasharray:none;stroke-opacity:1"
   d="M 325.68678,875.43006 621.85659,292.64808"
   id="path844"
   inkscape:connector-curvature="0" /><path
   style="opacity:1;fill:#ff0f21;fill-opacity:1;stroke:none;stroke-width:0.46470889;stroke-miterlimit:4;stroke-dasharray:none;stroke-opacity:1"
   d="M 537.39376,705.48921 A 146.62368,146.62368 0 0 0 627.68491,570.26313 146.62368,146.62368 0 0 0 537.39376,434.93447 Z"
   id="path837"
   inkscape:connector-curvature="0" /><path
   style="opacity:1;fill:#000000;fill-opacity:1;stroke:none;stroke-width:0.46470889;stroke-miterlimit:4;stroke-dasharray:none;stroke-opacity:1"
   d="m 424.72719,435.03798 a 146.62368,146.62368 0 0 0 -90.29026,135.22515 146.62368,146.62368 0 0 0 90.29026,135.32776 z"
   id="path835"
   inkscape:connector-curvature="0" /><path
   style="opacity:1;fill:#ffe936;fill-opacity:1;stroke:none;stroke-width:0.46470889;stroke-miterlimit:4;stroke-dasharray:none;stroke-opacity:1"
   d="m 424.72719,435.03798 v 270.55291 a 146.62368,146.62368 0 0 0 56.33326,11.2967 146.62368,146.62368 0 0 0 56.33331,-11.39838 V 434.93447 a 146.62368,146.62368 0 0 0 -56.33331,-11.29486 146.62368,146.62368 0 0 0 -56.33326,11.39837 z"
   id="path830"
   inkscape:connector-curvature="0" /></svg>