<?xml version="1.0" encoding="UTF-8" standalone="no"?>
<!-- Created with Inkscape (http://www.inkscape.org/) -->

<svg
   xmlns:dc="http://purl.org/dc/elements/1.1/"
   xmlns:cc="http://creativecommons.org/ns#"
   xmlns:rdf="http://www.w3.org/1999/02/22-rdf-syntax-ns#"
   xmlns:svg="http://www.w3.org/2000/svg"
   xmlns="http://www.w3.org/2000/svg"
   xmlns:sodipodi="http://sodipodi.sourceforge.net/DTD/sodipodi-0.dtd"
   xmlns:inkscape="http://www.inkscape.org/namespaces/inkscape"
   width="92.09568mm"
   height="26.631706mm"
   viewBox="0 0 92.095681 26.631705"
   version="1.1"
   id="svg11858"
   inkscape:version="0.92.3 (2405546, 2018-03-11)"
   sodipodi:docname="uantwerp-greyscale.svg">
  <defs
     id="defs11852" />
  <sodipodi:namedview
     id="base"
     pagecolor="#ffffff"
     bordercolor="#666666"
     borderopacity="1.0"
     inkscape:pageopacity="0.0"
     inkscape:pageshadow="2"
     inkscape:zoom="1.4"
     inkscape:cx="103.84073"
     inkscape:cy="54.179828"
     inkscape:document-units="mm"
     inkscape:current-layer="g12591"
     showgrid="false"
     inkscape:window-width="1920"
     inkscape:window-height="1056"
     inkscape:window-x="0"
     inkscape:window-y="24"
     inkscape:window-maximized="1"
     fit-margin-top="0"
     fit-margin-left="0"
     fit-margin-right="0"
     fit-margin-bottom="0" />
  <metadata
     id="metadata11855">
    <rdf:RDF>
      <cc:Work
         rdf:about="">
        <dc:format>image/svg+xml</dc:format>
        <dc:type
           rdf:resource="http://purl.org/dc/dcmitype/StillImage" />
        <dc:title></dc:title>
      </cc:Work>
    </rdf:RDF>
  </metadata>
  <g
     inkscape:label="Layer 1"
     inkscape:groupmode="layer"
     id="layer1"
     transform="translate(-22.34799,-68.696324)">
    <g
       transform="matrix(0.26458333,0,0,0.26458333,19.569712,85.458978)"
       id="g12591">
      <path
         d="m 15.484075,-63.338517 c -2.61089,0 -4.983498,2.135257 -4.983498,4.983501 v 90.671868 c 0,2.61089 2.135255,4.983501 4.983498,4.983501 h 90.908285 c 2.61089,0 4.98351,-2.136183 4.98351,-4.747073 v -90.908296 c 0,-2.848244 -2.37262,-5.220855 -4.98351,-4.983501 z m 12.340536,20.647915 H 42.06583 v 34.4162785 c 0,12.8170966 8.783931,19.2293475 17.328662,19.2293475 11.155621,0 16.139122,-9.0203639 15.664415,-21.1254 -15.190633,-7.595316 -24.685705,-2.609964 -24.685705,-2.609964 0,0 4.747999,-18.039802 24.685705,-11.631254 v -18.279008 h 10.208058 v 21.839313 c 12.579743,3.560304 16.613825,0.947563 19.224715,-1.900681 1.89883,7.357963 -4.746143,18.0416538 -19.224715,15.905471 -0.237354,11.8676821 -8.071876,26.108901 -28.009582,26.108901 -20.649759,0 -29.432772,-13.5310093 -29.432772,-26.8228133 z"
         id="path12587"
         style="fill:#949494;fill-opacity:1;stroke-width:2.37353635"
         inkscape:connector-curvature="0" />
      <g
         transform="matrix(2.3735364,0,0,2.3735364,-20.000301,-79.581213)"
         id="g12643"
         style="fill:#b4b4b4;fill-opacity:1">
        <g
           id="g12619"
           style="fill:#b4b4b4;fill-opacity:1">
          <g
             id="g12617"
             style="fill:#b4b4b4;fill-opacity:1">
            <path
               inkscape:connector-curvature="0"
               class="st2"
               d="M 68.7,24.3 C 66,24.3 63.8,22.9 63.8,20 v -8 h 2.5 v 7.6 c 0,1.9 1.4,2.6 2.7,2.6 1.3,0 2.5,-0.7 2.5,-2.6 V 12 H 74 v 7.7 c 0.1,3 -2.1,4.6 -5.3,4.6 z"
               id="path12593"
               style="fill:#b4b4b4;fill-opacity:1" />
            <path
               inkscape:connector-curvature="0"
               class="st2"
               d="m 82.8,24 v -5.4 c 0,-1.3 -0.7,-1.9 -1.8,-1.9 -0.6,0 -1.3,0.2 -1.7,0.5 V 24 h -2.4 v -8.9 l 2.3,-0.2 v 1.2 h 0.1 c 0.7,-0.7 1.7,-1.4 3,-1.4 1.6,0 2.9,1.1 2.9,3.1 V 24 Z"
               id="path12595"
               style="fill:#b4b4b4;fill-opacity:1" />
            <path
               inkscape:connector-curvature="0"
               class="st2"
               d="m 88.9,13.4 c -0.7,0 -1.2,-0.6 -1.2,-1.3 0,-0.7 0.6,-1.2 1.2,-1.2 0.7,0 1.2,0.5 1.2,1.2 0,0.7 -0.5,1.3 -1.2,1.3 z M 87.7,24 v -9 h 2.4 v 9 z"
               id="path12597"
               style="fill:#b4b4b4;fill-opacity:1" />
            <path
               inkscape:connector-curvature="0"
               class="st2"
               d="m 97.1,24.1 h -2 L 91.6,15 h 2.7 l 1.6,4.8 c 0.3,0.7 0.5,2 0.5,2 0,0 0.2,-1.3 0.5,-2 L 98.5,15 h 2.4 z"
               id="path12599"
               style="fill:#b4b4b4;fill-opacity:1" />
            <path
               inkscape:connector-curvature="0"
               class="st2"
               d="m 109.5,19.9 h -6 c 0.1,1.5 1,2.6 2.7,2.6 1.1,0 2,-0.2 3.1,-0.6 l -0.1,1.7 c -1.1,0.4 -2.2,0.7 -3.6,0.7 -2.7,0 -4.4,-1.9 -4.4,-4.5 0,-2.9 1.9,-4.9 4.5,-4.9 2.6,0 3.8,1.8 3.8,3.8 0.1,0.3 0.1,0.9 0,1.2 z m -3.9,-3.5 c -1.1,0 -1.8,1.1 -2,2.2 h 3.8 c 0,-1.3 -0.6,-2.2 -1.8,-2.2 z"
               id="path12601"
               style="fill:#b4b4b4;fill-opacity:1" />
            <path
               inkscape:connector-curvature="0"
               class="st2"
               d="m 117.1,17.5 c -0.5,-0.3 -1.1,-0.4 -1.6,-0.4 -0.5,0 -1.1,0.2 -1.4,0.5 V 24 h -2.4 v -8.9 l 2.2,-0.2 -0.1,1.6 h 0.1 c 0.5,-1 1.3,-1.7 2.3,-1.7 0.4,0 0.9,0.1 1.2,0.3 z"
               id="path12603"
               style="fill:#b4b4b4;fill-opacity:1" />
            <path
               inkscape:connector-curvature="0"
               class="st2"
               d="m 121.2,24.2 c -1.2,0 -2.1,-0.2 -2.9,-0.7 l 0.3,-1.8 c 0.8,0.4 1.8,0.7 2.7,0.7 0.7,0 1.4,-0.2 1.4,-0.9 0,-1.4 -4.1,-1.1 -4.1,-4 0,-1.8 1.7,-2.8 3.6,-2.8 1,0 1.9,0.3 2.6,0.5 l -0.3,1.7 c -0.7,-0.3 -1.6,-0.5 -2.5,-0.5 -0.6,0 -1.2,0.2 -1.2,0.8 0,1.4 4.1,1.1 4.1,4 0.1,2 -1.6,3 -3.7,3 z"
               id="path12605"
               style="fill:#b4b4b4;fill-opacity:1" />
            <path
               inkscape:connector-curvature="0"
               class="st2"
               d="m 128.3,13.4 c -0.7,0 -1.2,-0.6 -1.2,-1.3 0,-0.7 0.6,-1.2 1.2,-1.2 0.7,0 1.2,0.5 1.2,1.2 0,0.7 -0.5,1.3 -1.2,1.3 z M 127.1,24 v -9 h 2.4 v 9 z"
               id="path12607"
               style="fill:#b4b4b4;fill-opacity:1" />
            <path
               inkscape:connector-curvature="0"
               class="st2"
               d="m 134.8,24.2 c -1.6,0 -2.6,-1 -2.6,-2.5 0,-0.5 0.1,-2.9 0.1,-4.3 v -0.8 h -0.8 v -0.9 l 2.9,-2.7 h 0.2 v 2 h 2.9 v 1.7 h -2.9 c 0,0.1 0,3 0,4.2 0,1 0.6,1.4 1.4,1.4 0.5,0 1,-0.1 1.5,-0.2 v 1.6 c -0.8,0.3 -1.7,0.5 -2.7,0.5 z"
               id="path12609"
               style="fill:#b4b4b4;fill-opacity:1" />
            <path
               inkscape:connector-curvature="0"
               class="st2"
               d="m 146.8,19.9 h -6 c 0.1,1.5 1,2.6 2.7,2.6 1.1,0 2,-0.2 3.1,-0.6 l -0.1,1.7 c -1.1,0.4 -2.2,0.7 -3.6,0.7 -2.7,0 -4.3,-1.9 -4.3,-4.5 0,-2.9 1.9,-4.9 4.5,-4.9 2.6,0 3.8,1.8 3.8,3.8 0,0.3 0,0.9 -0.1,1.2 z m -3.9,-3.5 c -1.1,0 -1.8,1.1 -2,2.2 h 3.8 c 0,-1.3 -0.6,-2.2 -1.8,-2.2 z"
               id="path12611"
               style="fill:#b4b4b4;fill-opacity:1" />
            <path
               inkscape:connector-curvature="0"
               class="st2"
               d="m 150.2,13.4 c -0.7,0 -1.2,-0.6 -1.2,-1.3 0,-0.7 0.6,-1.2 1.2,-1.2 0.7,0 1.2,0.5 1.2,1.2 0.1,0.7 -0.5,1.3 -1.2,1.3 z M 149.1,24 v -9 h 2.4 v 9 z"
               id="path12613"
               style="fill:#b4b4b4;fill-opacity:1" />
            <path
               inkscape:connector-curvature="0"
               class="st2"
               d="m 156.8,24.2 c -1.6,0 -2.6,-1 -2.6,-2.5 0,-0.5 0.1,-2.9 0.1,-4.3 v -0.8 h -0.8 v -0.9 l 2.9,-2.7 h 0.2 v 2 h 2.9 v 1.7 h -2.9 c 0,0.1 0,3 0,4.2 0,1 0.6,1.4 1.4,1.4 0.5,0 1,-0.1 1.5,-0.2 v 1.6 c -0.8,0.3 -1.7,0.5 -2.7,0.5 z"
               id="path12615"
               style="fill:#b4b4b4;fill-opacity:1" />
          </g>
        </g>
        <g
           id="g12641"
           style="fill:#b4b4b4;fill-opacity:1">
          <g
             id="g12639"
             style="fill:#b4b4b4;fill-opacity:1">
            <path
               inkscape:connector-curvature="0"
               class="st2"
               d="M 72.1,41.2 71,38 h -4 l -1,3.2 h -2.6 l 4.4,-12 h 2.8 l 4.4,12 z M 69.3,32.7 C 69.1,32.2 69,31.3 69,31.3 c 0,0 -0.1,0.9 -0.3,1.4 l -1.2,3.6 h 3.1 z"
               id="path12621"
               style="fill:#b4b4b4;fill-opacity:1" />
            <path
               inkscape:connector-curvature="0"
               class="st2"
               d="m 82.4,41.2 v -5.4 c 0,-1.3 -0.7,-1.9 -1.8,-1.9 -0.6,0 -1.3,0.2 -1.7,0.5 v 6.9 h -2.4 v -8.9 l 2.3,-0.2 v 1.2 h 0.1 c 0.7,-0.7 1.7,-1.4 3,-1.4 1.6,0 2.9,1.1 2.9,3.1 v 6.1 z"
               id="path12623"
               style="fill:#b4b4b4;fill-opacity:1" />
            <path
               inkscape:connector-curvature="0"
               class="st2"
               d="m 89.9,41.3 c -1.6,0 -2.6,-1 -2.6,-2.5 0,-0.5 0.1,-2.9 0.1,-4.3 v -0.8 h -0.8 v -0.9 l 2.9,-2.7 h 0.2 v 2 h 2.9 v 1.7 h -2.9 c 0,0.1 0,3 0,4.2 0,1 0.6,1.4 1.4,1.4 0.5,0 1,-0.1 1.5,-0.2 v 1.6 c -0.8,0.3 -1.7,0.5 -2.7,0.5 z"
               id="path12625"
               style="fill:#b4b4b4;fill-opacity:1" />
            <path
               inkscape:connector-curvature="0"
               class="st2"
               d="m 104.7,41.2 h -1.9 l -1.7,-4.5 c -0.3,-0.7 -0.4,-1.9 -0.4,-1.9 0,0 -0.3,1.2 -0.5,1.9 l -1.7,4.5 h -1.8 l -3.1,-9.1 h 2.6 l 1.3,4.4 c 0.2,0.7 0.4,2.1 0.4,2.1 0,0 0.3,-1.3 0.5,-2.1 L 100,32 h 1.7 l 1.6,4.5 c 0.3,0.7 0.5,2 0.5,2 0,0 0.2,-1.3 0.4,-2.1 l 1.3,-4.4 h 2.3 z"
               id="path12627"
               style="fill:#b4b4b4;fill-opacity:1" />
            <path
               inkscape:connector-curvature="0"
               class="st2"
               d="m 116.8,37 h -6 c 0.1,1.5 1,2.6 2.7,2.6 1.1,0 2,-0.2 3.1,-0.6 l -0.1,1.7 c -1.1,0.4 -2.2,0.7 -3.6,0.7 -2.7,0 -4.3,-1.9 -4.3,-4.5 0,-2.9 1.9,-4.9 4.5,-4.9 2.6,0 3.8,1.8 3.8,3.8 0,0.3 0,0.9 -0.1,1.2 z m -3.9,-3.5 c -1.1,0 -1.8,1.1 -2,2.2 h 3.8 c 0,-1.3 -0.6,-2.2 -1.8,-2.2 z"
               id="path12629"
               style="fill:#b4b4b4;fill-opacity:1" />
            <path
               inkscape:connector-curvature="0"
               class="st2"
               d="m 124.4,34.6 c -0.5,-0.3 -1.1,-0.4 -1.6,-0.4 -0.5,0 -1.1,0.2 -1.4,0.5 v 6.5 H 119 v -8.9 l 2.2,-0.2 -0.1,1.6 h 0.1 c 0.5,-1 1.3,-1.7 2.3,-1.7 0.4,0 0.9,0.1 1.2,0.3 z"
               id="path12631"
               style="fill:#b4b4b4;fill-opacity:1" />
            <path
               inkscape:connector-curvature="0"
               class="st2"
               d="m 130,41.3 c -0.5,0 -1,-0.1 -1.3,-0.3 v 4.7 h -2.4 V 32.2 l 2.3,-0.2 v 1.2 h 0.1 c 0.7,-0.8 1.7,-1.3 2.7,-1.3 2.2,0 3.6,1.9 3.6,4.4 -0.1,3 -2,5 -5,5 z m 0.3,-7.5 c -0.6,0 -1.2,0.2 -1.6,0.5 v 5 c 0.3,0.2 0.9,0.4 1.5,0.4 1.6,0 2.4,-1.2 2.4,-2.9 -0.1,-1.9 -1,-3 -2.3,-3 z"
               id="path12633"
               style="fill:#b4b4b4;fill-opacity:1" />
            <path
               inkscape:connector-curvature="0"
               class="st2"
               d="m 144.6,37 h -6 c 0.1,1.5 1,2.6 2.7,2.6 1.1,0 2,-0.2 3.1,-0.6 l -0.1,1.7 c -1.1,0.4 -2.2,0.7 -3.6,0.7 -2.7,0 -4.4,-1.9 -4.4,-4.5 0,-2.9 1.9,-4.9 4.5,-4.9 2.6,0 3.8,1.8 3.8,3.8 0.1,0.3 0.1,0.9 0,1.2 z m -3.9,-3.5 c -1.1,0 -1.8,1.1 -2,2.2 h 3.8 c 0,-1.3 -0.6,-2.2 -1.8,-2.2 z"
               id="path12635"
               style="fill:#b4b4b4;fill-opacity:1" />
            <path
               inkscape:connector-curvature="0"
               class="st2"
               d="m 152.7,41.2 v -5.4 c 0,-1.3 -0.7,-1.9 -1.8,-1.9 -0.6,0 -1.3,0.2 -1.7,0.5 v 6.9 h -2.4 v -8.9 l 2.3,-0.2 v 1.2 h 0.1 c 0.7,-0.7 1.7,-1.4 3,-1.4 1.6,0 2.9,1.1 2.9,3.1 v 6.1 z"
               id="path12637"
               style="fill:#b4b4b4;fill-opacity:1" />
          </g>
        </g>
      </g>
    </g>
  </g>
</svg>
