<?xml version="1.0" encoding="utf-8"?>
<!-- Generator: Adobe Illustrator 25.0.0, SVG Export Plug-In . SVG Version: 6.00 Build 0)  -->
<!DOCTYPE svg PUBLIC "-//W3C//DTD SVG 1.1//EN" "http://www.w3.org/Graphics/SVG/1.1/DTD/svg11.dtd" [
	<!ENTITY ns_extend "http://ns.adobe.com/Extensibility/1.0/">
	<!ENTITY ns_ai "http://ns.adobe.com/AdobeIllustrator/10.0/">
	<!ENTITY ns_graphs "http://ns.adobe.com/Graphs/1.0/">
	<!ENTITY ns_vars "http://ns.adobe.com/Variables/1.0/">
	<!ENTITY ns_imrep "http://ns.adobe.com/ImageReplacement/1.0/">
	<!ENTITY ns_sfw "http://ns.adobe.com/SaveForWeb/1.0/">
	<!ENTITY ns_custom "http://ns.adobe.com/GenericCustomNamespace/1.0/">
	<!ENTITY ns_adobe_xpath "http://ns.adobe.com/XPath/1.0/">
]>
<svg version="1.1" id="Layer_1" xmlns:x="&ns_extend;" xmlns:i="&ns_ai;" xmlns:graph="&ns_graphs;"
	 xmlns="http://www.w3.org/2000/svg" xmlns:xlink="http://www.w3.org/1999/xlink" x="0px" y="0px" viewBox="0 0 170.1 56.7"
	 style="enable-background:new 0 0 170.1 56.7;" xml:space="preserve">
<style type="text/css">
	.st0{fill:#EA2C38;}
	.st1{fill:#FFFFFF;}
	.st2{fill:#002E65;}
</style>
<metadata><?xpacket begin="﻿" id="W5M0MpCehiHzreSzNTczkc9d"?>
<x:xmpmeta xmlns:x="adobe:ns:meta/" x:xmptk="Adobe XMP Core 6.0-c002 79.164519, 2020/08/25-17:54:00        ">
   <rdf:RDF xmlns:rdf="http://www.w3.org/1999/02/22-rdf-syntax-ns#">
      <rdf:Description rdf:about=""
            xmlns:dc="http://purl.org/dc/elements/1.1/"
            xmlns:xmp="http://ns.adobe.com/xap/1.0/"
            xmlns:xmpGImg="http://ns.adobe.com/xap/1.0/g/img/"
            xmlns:xmpMM="http://ns.adobe.com/xap/1.0/mm/"
            xmlns:stRef="http://ns.adobe.com/xap/1.0/sType/ResourceRef#"
            xmlns:stEvt="http://ns.adobe.com/xap/1.0/sType/ResourceEvent#"
            xmlns:illustrator="http://ns.adobe.com/illustrator/1.0/"
            xmlns:pdf="http://ns.adobe.com/pdf/1.3/"
            xmlns:xmpTPg="http://ns.adobe.com/xap/1.0/t/pg/"
            xmlns:stDim="http://ns.adobe.com/xap/1.0/sType/Dimensions#"
            xmlns:xmpG="http://ns.adobe.com/xap/1.0/g/">
         <dc:format>image/svg+xml</dc:format>
         <dc:title>
            <rdf:Alt>
               <rdf:li xml:lang="x-default">UAntwerp-HOR-1-RGB</rdf:li>
            </rdf:Alt>
         </dc:title>
         <xmp:MetadataDate>2020-11-11T15:33:10+01:00</xmp:MetadataDate>
         <xmp:ModifyDate>2020-11-11T15:33:10+01:00</xmp:ModifyDate>
         <xmp:CreateDate>2020-11-11T15:33:09+01:00</xmp:CreateDate>
         <xmp:CreatorTool>Adobe Illustrator 25.0 (Macintosh)</xmp:CreatorTool>
         <xmp:Thumbnails>
            <rdf:Alt>
               <rdf:li rdf:parseType="Resource">
                  <xmpGImg:width>256</xmpGImg:width>
                  <xmpGImg:height>76</xmpGImg:height>
                  <xmpGImg:format>JPEG</xmpGImg:format>
                  <xmpGImg:image>/9j/4AAQSkZJRgABAgEASABIAAD/7QAsUGhvdG9zaG9wIDMuMAA4QklNA+0AAAAAABAASAAAAAEA&#xA;AQBIAAAAAQAB/+4ADkFkb2JlAGTAAAAAAf/bAIQABgQEBAUEBgUFBgkGBQYJCwgGBggLDAoKCwoK&#xA;DBAMDAwMDAwQDA4PEA8ODBMTFBQTExwbGxscHx8fHx8fHx8fHwEHBwcNDA0YEBAYGhURFRofHx8f&#xA;Hx8fHx8fHx8fHx8fHx8fHx8fHx8fHx8fHx8fHx8fHx8fHx8fHx8fHx8fHx8f/8AAEQgATAEAAwER&#xA;AAIRAQMRAf/EAaIAAAAHAQEBAQEAAAAAAAAAAAQFAwIGAQAHCAkKCwEAAgIDAQEBAQEAAAAAAAAA&#xA;AQACAwQFBgcICQoLEAACAQMDAgQCBgcDBAIGAnMBAgMRBAAFIRIxQVEGE2EicYEUMpGhBxWxQiPB&#xA;UtHhMxZi8CRygvElQzRTkqKyY3PCNUQnk6OzNhdUZHTD0uIIJoMJChgZhJRFRqS0VtNVKBry4/PE&#xA;1OT0ZXWFlaW1xdXl9WZ2hpamtsbW5vY3R1dnd4eXp7fH1+f3OEhYaHiImKi4yNjo+Ck5SVlpeYmZ&#xA;qbnJ2en5KjpKWmp6ipqqusra6voRAAICAQIDBQUEBQYECAMDbQEAAhEDBCESMUEFURNhIgZxgZEy&#xA;obHwFMHR4SNCFVJicvEzJDRDghaSUyWiY7LCB3PSNeJEgxdUkwgJChgZJjZFGidkdFU38qOzwygp&#xA;0+PzhJSktMTU5PRldYWVpbXF1eX1RlZmdoaWprbG1ub2R1dnd4eXp7fH1+f3OEhYaHiImKi4yNjo&#xA;+DlJWWl5iZmpucnZ6fkqOkpaanqKmqq6ytrq+v/aAAwDAQACEQMRAD8ALL29ur26lu7uVprmZi8s&#xA;rmrFjmjJJNl9Tx44wiIxFAKGBm7FXYq7FXYq7FXYquSR43V42KOpBVlNCCOhBGKCAdi+qvJ97c3v&#xA;lXSbu5cyXE1pC0sh6sxQVY+56nNziNxBfNNdjEM84jkJFN8scV2KuxV2KuxV2KoHV9c0XRbUXer3&#xA;9vp9qziNZ7qVIULt0UM5ArtkoxMuQtBkBzRqOkiLJGwdHAZHU1BB3BBGRS3irsVdirsVdirsVdiq&#xA;A07X9D1K5urbTtQtry4sn9O8hglSR4n6cZFUkqagjfJGBHMIEgUfkUuxV2KqN7e2djaS3l7PHbWk&#xA;Cl5riZgkaKOrMzEAD54QCdggmlun6jp+pWcV9p9zFeWc45Q3MDrJG4BoeLKSDuKYkEGioNojAl8e&#xA;Zon1ZF6fpOq6k7x6dZz3jxjk628TylQdqkIDTJRiTyDVlzQx7zkI+80i5vKfmqCGSefRr6KGJS8s&#xA;r20yqqqKszMVoAB1OE45DoWqOtwSNCcCT/SCU5BynYqqW9vPcTpBbxtNPKwWOKNSzsx2AVRUknCB&#xA;bGUhEWTQCPu/LHmWzt3ubvSb23t495JpbeVEUE0FWZQBuckcchzBaIazDI1GcSfIhLMg5LsVfUvk&#xA;L/lCtE/5g4f+IDNxh+ge5827S/xif9Yp9lrhPm//AJyo1/XdM8waHHpupXViklpK0iW00kQYiSlS&#xA;EZa5stDAEGw4mpkQRT6I05mbT7ZmJLGJCSdySVGa483KD5v/ACj8w6/d/n3q1jdandz2SS6kEtZZ&#xA;5HiASVgtEZio49ts2WogBhBrucTFI8Ze1ar+bX5faT5jk8uajq6WurwUM8MkcyogMPrgtMUENPTI&#xA;P2/brmFHBMx4gNnIOWINWlekfn3+V2razHpNpqxFxO4it5JYZYopHY0Cq7qoFT05UyUtLkAukDNE&#xA;mrQn576f+XN/oenQ+d9VuNItxcl7K4tkkkZpAhDoVSKcU4nuPpyWlMwTwi0ZhEj1JlN+Zf5Z+TtC&#xA;0C1utUe10250+B9Gd7e6l9W0WNVjYskTUPDjUNRvEZDwZzJ23vdPiRiAyzUde0jTdEm1y9uVi0qC&#xA;H6zJdULL6VKhgFDM1QdgBU5UIEmhzbDIAWluhfmB5P13QrnX9N1FX0azZkub6ZJbeNDGoZqmdI9g&#xA;GG42yUsUomiN2MZgiwxaP/nIr8pX1AWY1hlBPEXTW84hrWn2ilQPcinvlv5TJV0w8eHezTWfNfl/&#xA;RvL7+YtRvFj0WNY5GvYw8yFJnVI2UQh2YMzr9kZTHGZHhHNsMgBfRiU/5/flXDFYynVy66hyMAjt&#xA;53dVWRouUiKhdashoCOR60plo0uTfbkw8ePenHnP80fI/k144te1FYLqVecVpGjyzFenIpGG4g02&#xA;LUByGPBKfIMp5Ix5t+SvzP8AJnnRp49AvWuJ7ZQ9xA8UsTorGgJ5qFO/gTjkwShzWGQS5MJ/JrS/&#xA;yksfMmv3fk/WbjUL6RSb2G4SWOO3hMpYhTJFCG+LapYmg+eX6iWQxHEGrEIAmih/+hl/KJ89yac9&#xA;wtv5WtoJA+rGKaVp7oMoURpErsIwOXxFd/YdT+SlwX/Ev5gcVdHpukedPK+reXT5ksdQjbQwJC19&#xA;KHgRRExVy3rLGygEdxmLLHIS4SN24TBF9GHr/wA5F/lK1+LT9LuATxF0becQ1rT7XCtPelPfLvye&#xA;Srpr8eHenf5mf4O1P8udRPmG/a38tXUcDy6ja1lIDTRtA6emspYGTh0U7e2Qw8QmOEeplkox35JP&#xA;5L1z8tvJf5Uxanpepy3Pli1aXjezI4mmmaQhlWNkibkX+EDiB36VOTyRnPJRHqYwlGMbHJj/AJK/&#xA;5yY8nX9nf3Hmm8TR7g3si6dZJBczEWYjj9NnkijkUuX516fKmWZNFIEcO7GGoB5vJM5V9eeq/kB/&#xA;x2dV/wCYZP8AieZui5l5n2l/u4e/9D1bzn/yh+u/9s+6/wCTD5mZfoPuea0H+MY/68fvD5UzTPpb&#xA;sVT7yH/ymmif8xsP/ExluH6w4PaX+Lz/AKpe9fmp/wAoBq//ABjj/wCTyZstR9BeK7H/AMah7/0F&#xA;8z5qH0N2KvqXyF/yhWif8wcP/EBm4w/QPc+bdpf4xP8ArFPstcJ8wf8AOXIP+ItAPb6nL/ydzaaD&#xA;6S4Wq5h9LaWytploykFTDGQRuCCgzWS5uYOT5h/JcF/+chtZZByUS6oxYbgAzEV/HNpqf7kfBw8P&#xA;94VXzPo+maz/AM5WPpup263VjPNbetbvXi4TTI3AahFRyUbYISI09j8brIA5aP42Uv8AnKDyb5Z8&#xA;u3fl260LT4dNe9W6S5S2URxt9XMJjbgtFDfvWqR1w6LJKQNm11EAKpkn/OVLM/k3yuzEszTsWY7k&#xA;kwDc5VofqLPU8gr/AJleT/07/wA48eWdShTle6DpVhdoR1MDWsa3C/LjRz/q4MOThzEd5K5IXjB7&#xA;mD+ZfzMl1T8g/L3lyJzJqc90dOu0XctBp/B4loN9xLBTxIOXww1mMun62uWS8YCYfnhpt35L/K/y&#xA;V5LhbhFP69zqvE09S5hEbsCR9pRJctSvgvhkdMePJKScw4YgK+s6V5h1LyDH5XtPylktHjijFrrC&#xA;TxPMsq8SZiRArOZKfF8e9cEZAT4jP4JIJjXCm2paV5k0n/nFbUtN8wW8lreWssSRQTU5rCdRhZK7&#xA;nb4jT2yMZROoBH42SQRioq35F/lD5B1/8v7DXNV043GqyXEj/WfWlXibeZlQBFYJSi7gqa4NVqJx&#xA;mQDsnDiiY2WP/nN5Y81eXPzUl8+Po0evaDI0cwWeM3FuoSBYWjuEFeHEiqMRx6d6jLNPOMsfBdFh&#xA;liRLiqw9L/JTzp+XPmaa/uPL+iQ6Br3podSsokRA8QY8XQxhFdQzbniDU79sxtTjnGrNhuwzieQo&#xA;vPv+cWlV/OXmtWAZWgAZTuCDOdjmRrvpi1abmUL+W/l7yzf/APOQnmfTJ9Ls7nSrdtQWCxlt43t4&#xA;zFcIg4RMvBeO4FBhzTkMIN77IxxByEJ1/wA5SzwaF5X8v+WtGtodO0m+nubia1tUWGIm39MqOEYV&#xA;aFpyx9xXIaEcUjI7llqdgAEo1TS/MGpfl7F5Xs/ymktmSGP6rrCzxvMJVoTOSIEZjJvyHPocnGQE&#xA;+Iz+DEgmNcKa6hpXmPSP+cV9U03X7eW1vLWaJY4J/trCdRhZB1O3xGmQEonOCPxsyIIxUUX5Jt7O&#xA;b/nFnUDdW0VyIrXU5IlmRXCSh5Qki8gaOhNVI3BwZCfHHwTD+6W/84x+UfKms+Qr+61fRbDUblNV&#xA;liSe7toZ3CC3t2CBpFYhQWJp7463JITFEjZdPEGO4eeZyT7A9V/ID/js6r/zDJ/xPM3Rcy8z7S/3&#xA;cPf+h6t5z/5Q/Xf+2fdf8mHzMy/Qfc81oP8AGMf9eP3h8qgFiABUnYAdSc0z6U9T8sfkXqF7apda&#xA;3dGw9QBltI1DygH+dieKH2oczcejJ3ls83q/aKMJcOMcXn0ZNpn5J6bpms2Gp2epzE2U0cximRG5&#xA;8GrTkpTjX5HLY6QAgguuze0E8mOUJRHqFbMj/Mq0urvyPqtvawvPcPGnCGJS7tSVCaKKk7DLs4Jg&#xA;acDsqcY6mBkaF/ofM89tc28hinieGQbFJFKt9xzUEEPocZiQsGwi7rQNXtNMg1K6tngtLlzHA8g4&#xA;lyoqSqnfjv16ZIwIFlqhqccpmETchzfSvkL/AJQrRP8AmDh/4gM2uH6B7nz3tL/GJ/1in2WuE84/&#xA;Or8pR+YGj2v1O4S11rTS7WcktfSdZQOcUhUFhUopDUNPDfMnTZ/DO/ItObFxDzeY6boP/OVmlaQv&#xA;l6yFNPhX0ILkz2DPHFSgCSu/rBVH2dqjt2zJlLTk2efxaRHKBTPfyQ/JebyP9a1fWbhLrzBfJ6Te&#xA;kS0cMJYOyh2ALu7KCx9qDxNGp1PHsOTbhw8O55pXd/lj5wk/5yIXzolqh8viSJjc+rHyolgsB/d8&#xA;uf8AeCnTJDNHweHr+1icZ8S+it/zkV+W3m7zr/h//D1qlz+j/rn1rnLHFx9b0OFPUK1r6bdMdJmj&#xA;C7TnxmVUr/nx+XXmvzd5a0Gx0K2S4ubGQtcq8scYUekF2LlQd/DBpc0YSJK5sZkBT0Hynoklp5E0&#xA;bQ9VhUyQaXbWN9ASGXklusUqVGxGxG2Y+SVzJHe3RHpALwryF/zjv5l0n8zLe91WFG8s6XdS3NnN&#xA;6qM0vpmttWMHkpJCM1R2pmdl1cTCh9RcWGAiW/J6p+c35XL5/wDLkVtbzJbavYO02nTyV9MlwA8T&#xA;0BIV6DcDYgZi6fP4cvJvy4+IPPdAi/5yp0bTodEhsLO4tbYCG3v7mW1kZI1FF3EyswAG3JCcyJ/l&#xA;ybtqj4o2Zp5u8oeftb/JK68vajNFqnm+6ETTyRlIomYXyT8QSIkHpwjj0FaZTjyQjl4htH9jZKMj&#xA;Cuqafkt5W1ryv+X1jo2swrBqEEk7SRq6yACSZnX4kJHQ5DUzEpkhOGJjGixbzRP/AM5I2HmXUj5e&#xA;tLLVdCuJS2npK9sDDHTZf3j2z18QeQ8DlsBhMRexYS8QHbkt/Iz8odf8q6tqfmbzI0MWralG0Mdl&#xA;bFSkSSSLLIW4UjBLovFU2A+4Oq1AmBGPILhxGJsof8h/yx84eUfMuvX2u2qW9tfRhbZkljkLH1S2&#xA;4RmI28cOqzRnEAIw4zEm2N+Yfyp/N/y9+aGo+bPI0Ud2moTz3KyerbrxF03OWKWO4ZKjkTTjXsdj&#xA;lsM+OWMRmxlimJXFl3mP8rfOvnz8toLTzbdW8XnG0uJLmzmQJ6KowC+hJ6S0ow6la0IHXplMM8cc&#xA;7j9LOWMyjvzY95fg/wCcqNE02HQ7fT7O4tLVRDbXtzLayMkaiigETK5AGw5ITlkzgkbtjHxQKZp5&#xA;s8o/mBrn5I3Xl7U5YdT84XXptPJEyRxMVv1nChisKDhAoXoNx3ynHkhHLY2j+xslGRhR5u8hflzr&#xA;Nr+S8/kvWQtlqF3DewMVZZVT6w7mNqoSDTkCRXHLmBy8Q5bLDGeCi8z8meRP+ckvJiXejaBDbQaf&#xA;czeo108tpLCJKBTKiyEyDkqgGsfbpmTky4Z7lphDJHYMXzj32J6r+QH/AB2dV/5hk/4nmbouZeZ9&#xA;pf7uHv8A0PVvOf8Ayh+u/wDbPuv+TD5mZfoPuea0H+MY/wCvH7w+b/J+s6bouuRapf2jXotAZLa3&#xA;BCgz7cCzGtAu7DY7gZqsUxE2Xv8AXYJ5sZhE8PFzPk9ET/nIOb1fj0NfSr0W5PID5mOhzK/O+ToT&#xA;7Mitsm/9X9rL/K/5teV9euIrOsljfzEJHBOtVdj0VHWo/wCCpl+PUxlt1dVrOxc2EGW0ojqP1M1z&#xA;IdQ4kAEk0A3JOKvAvzl85WWt6rb6dp0omstODc50NVkmeleJ7qgWlfGua3VZRI0Oj2/YOglhgZzF&#xA;Sl08nr/kL/lCtE/5g4f+IDM3D9A9zyvaX+MT/rFPstcJ2KsT1j81/wAvNH1mTRdT1qG21OJkSW3Z&#xA;ZTxaRQygsqFOjDvl0cEyLA2azliDRLLMpbHYq7FXYq7FXYq7FXYq7FXYq7FXYq7FXYq7FXYq7FXY&#xA;q7FXx5mifVnpP5EX0cHmy4tXahu7RxGPF43V6f8AA8jmXoz6qef9o8ZOAS/mye4arZfXtMvLKvH6&#xA;1BJDy8PUQrX8c2MhYp43Dk4JiXcQXyXc281tcS286GOaF2jlQ9VZTQg/I5pCK2fUISEgCORUsDJl&#xA;f5XadJf+etLRBVYJDcyN2CwqXFfmwA+nL9PG5h1nbGUQ00/Pb5vbfzR1mfSPJd7c20z2927RRW0s&#xA;bcWDtIpNCP8AIDZsNRPhgS8f2RgGXURBFx3v5Pn7UvNvmfU4jDf6pc3ELfahaRvTPzQEKfuzWSyy&#xA;PMvc4tDhxm4wiD7koytyn1L5C/5QrRP+YOH/AIgM3GH6B7nzbtL/ABif9Yp9lrhIXVdStNL0y71K&#xA;8bha2UMlxO/gkSl2/AYYxs0EE0LfEF/out+adE8zfmHOCVh1KL6wNyv+ls5eh8ImaJfk2bwSESIe&#xA;TriDIGT63/J/zZ/in8vNI1KR+d4kX1W+JNW9e3/dsze7gB/9lmo1GPhmQ52KXFEFgOs/n95nsvzF&#xA;1Pynp/lwasbRpIbSG2MhuJZFUMGY/EFQCpb4T0zIjpYmAkTTUc5EqpLdL/5yI87ab5zttD89eX4d&#xA;Lt7qSNP3aTRTRJK3FJT6jyLKlevGnfwpkpaSJjcDaBnkDUgs/wCcnvP/AJt00weWrKF7DR9QjLS6&#xA;krUe6409SBCPsonNef8ANWnStXRYon1HmjUTI2ZZ5F85/nFqMN9Dq3leHTorXS5Z9KmZZOM13HwE&#xA;MLfvG2cE9Mqy48Yqje7ZCczzCp+SH5x3/n+TVbXVLW3s72wEUkKW/OjxSFlYkOzGqMo+/HU6cY6p&#xA;cOXi5pd5O/5yA/T/AOadx5Ue3t00eSS4g0u+Qv6kkkNShYlinGRUalAOoyWTScOPi6ohnuVI/wA1&#xA;fm7r1n+bem+QtDsra5FwbcX08/qF4zLWWQqEZRRLej75GGnBxmZTLKePhCH87fnZrUXnA+S/Iejp&#xA;revxErcyzMRAjqKslA0f2P22Z1AO2HHphw8UzQRPMb4Yiyo+Sfzu8yN52XyV5+0WLR9YuDwtprcs&#xA;IjIw5IjKzzAiTorpIRXangcmmjw8UDYWGY8XDILPzM/PvVPJnn1dAj0uK8sVhjlkYF/XdpVJVEoe&#xA;K/FQVofljh0onC7XJmMZUqeRvzg89avo/nHUdd0OHTz5dsGvrWAxzwM59KWRI5PVZiQRD9pQPlgy&#xA;6eAMQDzKwyyINjkx/R/+cgPzS8w6HcXHl7yel9eW0zevcxrNJbRxBFZE4K6u8p+KtGG1NjXLJaTH&#xA;E+qTAZ5EbBlX5Nfnk3ne9uNE1myj0/XreMyoIeQimRCFkAVyzI6E/ZLHb5ZVqNNwCxybMWbi2PND&#xA;+b/zt19/OMvk38vdFj1vWbUst3POxECPH/eKAHiFEPws7SKOW2HHphw8UzQRLMbqItvyH+duv3Pn&#xA;Q+SfPejx6Prsh420luW9Jn481RlZ5ftr9l1cgnbHLpgI8UDYWGY3wyG6l55/PbXPLf5lnypaaGNU&#xA;t0WPjHBza7meaASIkYHwj4zQni23bDi0olDiulnmIlVMcvf+ci/zF8u+YYIPOHlWLT9MuDyEKpMl&#xA;z6RNCySu7RyFe44jw2ywaOEh6ZWWBzyB3D6GgningjnhYPFKoeNx0KsKgj5jNcQ5b4/zRPqyO0XV&#xA;rvR9VtdTtDS4tZBIlehp1U07MKg+2ShIxNhp1GCOWBhLlIPp/wAseZtL8x6VFqFhICGAE0JI5xPT&#xA;dHHYj8eubjHkEhYfOdXpJ4JmEh+1iX5g/lLbeYbhtT0yVLPVGH75XB9GYjYFuNSre4Br4d8ozaYS&#xA;3HN2nZnbRwDgmOKH2h52n5K+e2n9M28CJWnrmZOHzoKv/wALmL+Um749v6ars/J6v+X35e2flG0l&#xA;lllW41O4UC5uaURUG/ppXfjXck9czcOEQHm8x2n2nLVSAAqA5D9JeX/m956g1/UItM06QSaZYMSZ&#xA;h9mWc/CWXxVRsp779qZh6nNxGhyD0fYfZxwwM5/XL7A88zFd87FX1L5C/wCUK0T/AJg4f+IDNxh+&#xA;ge5827S/xif9Yp9lrhPH/wDnJ7zZ+iPIK6RC/G712YQkDr9XhpJMfpPBT7NmZosdzvucfUSqNd7z&#xA;jyx5L/Pgfl2dA0zSrL/Duswmdlma3EzrdKGDsWcMrheNKiooPDMmeTFx2TuGqMJ8NAbFMf8AnFXz&#xA;JNYa3rXk6+rE81bq3hfYrcQH0p0p/My8T/sMjroWBIJ00qJDvKv/AK1fqP8AxmvP+oU4z/xcLH+9&#xA;a/5ymVR528rNQcjAQW7kCcUH446H6Sup5hFf85g/9Ml/28P+xXB2f/F8P0p1XR73oeqaZd6dY/Vb&#xA;uGcy28ckQjkVyycF+IUJqNxmvlEguUCHyr5rvb38q/zb8y/o9Wit9Vs7oWTLtxW+jMkTL7RXC0/2&#xA;ObXGBlxi+n6HBkeCZQGt+RNU8leSvJHny1Bjv5Z/rFyT+w7MLiy28GiQ8vuyUconKUPx5oMDGIk9&#xA;D/IO2fzd+Zvmn8wblD6SSPHYB9+LXJNAD4x26BP9lmPqjwQEG3B6pGTAfJmjape/m7r2l/4nl8pa&#xA;xNPeRreKpd55PrHJoOXqw7vTkPi3p8syMkgMYNcQaoAmZF09VT8hb+LzlofmHzD59bU76wuraS1j&#xA;vLfjJMLab1lgR3uWO5r0B69MxPzQ4SIxr8e5v8HcEljX5if+tQeX/wDjNp3/ABLLcP8AcH4sMn96&#xA;Huf5lf8AkuvNX/bHv/8AqFkzAw/XH3hycn0n3PLP+cTZ4I/Jet85FThfl35EDiggj+I16DbrmXrx&#xA;6h7mnTcixX8t1h1r/nJnUtV0QiTSree/uZZo/wC7aN43h5gjYh5pAw8euW5vTgAPPZrx75LDFvy2&#xA;0TVr/wDMfWdIXzVN5S1p5J4/XRCz3Eiz/vIK+rB8VRypXemW5pAQB4eIMMYJkRdF61ZfkRe2nnjR&#xA;vMWvee21TUbS4ieCG7t+Ms4gYuIkd7l28einMQ6oGBiI0Px5N4w+oEljHmr/ANav07/jNZ/9Qoy2&#xA;H+LlhL+9TH/nL1V/R/lhqDkJbsA96FYq/qyPZ/Mp1XR7p5a/5RzSv+YO3/5NLmBP6i5UeT5NzQPq&#xA;7sVTDRde1fRLwXml3T2s42LIdmHg6mqsPYjJQmYmw0ajTY80eGYsPQ9N/PzW4UVdR02C7IFOcTtA&#xA;x9zUSrX5DMqOsPUOhy+zWMn0SMft/UjJf+cg5ihEWhKknZnuSw+4RL+vJfnfJqHswL3yf7H9rDfN&#xA;H5n+a/MMbW8862ti+zWlsCisP8tiS7fImntlGTUSl7nbaPsjBgNgcUu8sSyh2jsVdir6l8hf8oVo&#xA;n/MHD/xAZuMP0D3Pm3aX+MT/AKxT7LXCYF+YP5M+WfPeq2mo61e36Gzi9GG2tpIUhpyLsSGikerV&#xA;ofi6AZkYtRLGKFNU8Qkd2dxxpHGscahI0AVFAoAAKAAZjtrz62/I/wAqWvn4+d7S7v7bVWuXu2gj&#xA;khFuXlBEqlTCX4ycm5fH3zIOpkYcJqmrwRxcSL0/8oPLVj+YU3nuK5vW1edpXeB3iNsDNGY2ooiD&#xA;9Dt8eA6iRhwdEjEBLid5/wDyg8teeNT0/UdWub2CfTl4QLavEiEF+fxiSKUncdiMcWolAEDqs8Qk&#xA;d0V+Y/5ZeXvP2mQWerNLDLaO0lndwECSMuAHFGDKVbiKinbBhzHGbC5MYkN0j/LX8ifLnkTVn1e0&#xA;vru9v3ha3rN6axBHYMaIq1r8I6tk82qlkFUxx4RE2jPzH/Jny1591Kw1DU57i3nsYzCTblB6sZbm&#xA;EfkrH4TypTxwYdRLGCAnJiEjuyDzj5L0jzV5WuPLd6Ghsp1jCNDRWiMTBkMdQQKcadOmV48hhLiD&#xA;OcBIUh/y98gaR5G8v/oXS5JJomme4lnn4+o8j0FTwCjZVVenbDlymZsoxwERQY7+Yf5DeTPOuoNq&#xA;s7TadqzgCa6tStJeI4qZY3DAkAUqKHxyzDqpQFcwwyYRLdBeS/8AnHbyl5Z1y111r6+1HUrJuduZ&#xA;3RYgwBUHgq8jQHu9Mlk1cpCqACIYADae6z+UHlrV/Pln52ubm9TVbJoHigjeIW5NuapyVomffvR8&#xA;rjqJCHD0ZnEDLiTX8yv/ACXXmr/tj3//AFCyZDD9cfeE5PpPufN35I/kt5f8+eX77UdRvry0mtrs&#xA;23C1aMI0fppJuHRzWreP0ZstTqTjIADiYcIkH0d5F/Lnyr5I097PQrYo0xBubuU855SvTm9BsOyq&#xA;APbNdlzSmbLlwxiPJjP5gfkB5L846k+rO8+mapLT6xPaleEpAoGkjcEcqDqpFe9ctxauUBXMMJ4B&#xA;I2o+SP8AnHvyp5W12314X17qOqWpJged0WNSUKV4IoY/Cabtjl1cpCqACIYBE2nWoflB5avvzCh8&#xA;9y3N6urwNE6QI8QtiYYxGtVMRfoN/jyA1EhDg6MziBlxK/5j/lZ5e8/w2MOs3F3brp7SPCbN40JM&#xA;oUNy9SOX+QUpTBhznHdLkxiXNldjaR2dlb2cRJito0hQtQsVjUKK0A32yomzbMB8iSI8btG6lXQl&#xA;WUihBGxBGaF9WBsWFuKXYq7FXYq7FXYq7FXYq+qPI8UsXk7RY5VKSLZw8lbYiqA7jNzhHoHufNe0&#xA;ZA6iZH84p3ljhuxV2KuxV2KuxV2KuxV2KuxV2KuxV2KuxVB6zpVrq+j32k3ZYWuoW8trOUNH9OdD&#xA;G/EkGho222SjKiD3IIsUknkH8u9A8jabcaforTtBdTfWJDcusjc+ITYqqbUXJ5cxmbLGGMRGzJ8q&#xA;ZuxV2KuxV2KuxViGs/8AKqv0jN+lf0T+kK/6R6vo+py7+p35fPfKJeFe9W7XB+d4BweJw9OdfBA/&#xA;8gW/7U//ACSyP7nybv8AXH/bPtd/yBb/ALU//JLH9z5L/rj/ALZ9rv8AkC3/AGp/+SWP7nyX/XH/&#xA;AGz7Xf8AIFv+1P8A8ksf3Pkv+uP+2fa7/kC3/an/AOSWP7nyX/XH/bPtd/yBb/tT/wDJLH9z5L/r&#xA;j/tn2u/5At/2p/8Aklj+58l/1x/2z7Va0/5U79Zi+r/of1+Q9L+5ry7Ur38MI8LyYz/P0b8Svizf&#xA;Mh0zsVdirsVdirsVdirsVdirsVdirsVdirsVdirsVdirsVdirsVdirsVdir/AP/Z</xmpGImg:image>
               </rdf:li>
            </rdf:Alt>
         </xmp:Thumbnails>
         <xmpMM:InstanceID>xmp.iid:7bf134cd-33d9-450a-a46b-f99f1cd06b18</xmpMM:InstanceID>
         <xmpMM:DocumentID>xmp.did:7bf134cd-33d9-450a-a46b-f99f1cd06b18</xmpMM:DocumentID>
         <xmpMM:OriginalDocumentID>uuid:5D20892493BFDB11914A8590D31508C8</xmpMM:OriginalDocumentID>
         <xmpMM:RenditionClass>proof:pdf</xmpMM:RenditionClass>
         <xmpMM:DerivedFrom rdf:parseType="Resource">
            <stRef:instanceID>xmp.iid:b8d28afc-9262-447e-8e5b-52b513e8e90c</stRef:instanceID>
            <stRef:documentID>xmp.did:b8d28afc-9262-447e-8e5b-52b513e8e90c</stRef:documentID>
            <stRef:originalDocumentID>uuid:5D20892493BFDB11914A8590D31508C8</stRef:originalDocumentID>
            <stRef:renditionClass>proof:pdf</stRef:renditionClass>
         </xmpMM:DerivedFrom>
         <xmpMM:History>
            <rdf:Seq>
               <rdf:li rdf:parseType="Resource">
                  <stEvt:action>saved</stEvt:action>
                  <stEvt:instanceID>xmp.iid:3835e419-95b8-4fe5-a956-9d89c016f4eb</stEvt:instanceID>
                  <stEvt:when>2020-04-14T10:21:39+02:00</stEvt:when>
                  <stEvt:softwareAgent>Adobe Illustrator 24.1 (Macintosh)</stEvt:softwareAgent>
                  <stEvt:changed>/</stEvt:changed>
               </rdf:li>
               <rdf:li rdf:parseType="Resource">
                  <stEvt:action>converted</stEvt:action>
                  <stEvt:parameters>from application/postscript to application/vnd.adobe.illustrator</stEvt:parameters>
               </rdf:li>
               <rdf:li rdf:parseType="Resource">
                  <stEvt:action>saved</stEvt:action>
                  <stEvt:instanceID>xmp.iid:88bfd1fa-7b9c-4947-b3dc-f021b6aa3cbb</stEvt:instanceID>
                  <stEvt:when>2020-05-06T13:32:03+02:00</stEvt:when>
                  <stEvt:softwareAgent>Adobe Illustrator 24.1 (Macintosh)</stEvt:softwareAgent>
                  <stEvt:changed>/</stEvt:changed>
               </rdf:li>
               <rdf:li rdf:parseType="Resource">
                  <stEvt:action>saved</stEvt:action>
                  <stEvt:instanceID>xmp.iid:b8d28afc-9262-447e-8e5b-52b513e8e90c</stEvt:instanceID>
                  <stEvt:when>2020-06-11T11:58:43+02:00</stEvt:when>
                  <stEvt:softwareAgent>Adobe Illustrator 24.1 (Macintosh)</stEvt:softwareAgent>
                  <stEvt:changed>/</stEvt:changed>
               </rdf:li>
               <rdf:li rdf:parseType="Resource">
                  <stEvt:action>converted</stEvt:action>
                  <stEvt:parameters>from application/postscript to application/vnd.adobe.illustrator</stEvt:parameters>
               </rdf:li>
               <rdf:li rdf:parseType="Resource">
                  <stEvt:action>converted</stEvt:action>
                  <stEvt:parameters>from application/postscript to application/vnd.adobe.illustrator</stEvt:parameters>
               </rdf:li>
               <rdf:li rdf:parseType="Resource">
                  <stEvt:action>converted</stEvt:action>
                  <stEvt:parameters>from application/postscript to application/vnd.adobe.illustrator</stEvt:parameters>
               </rdf:li>
               <rdf:li rdf:parseType="Resource">
                  <stEvt:action>saved</stEvt:action>
                  <stEvt:instanceID>xmp.iid:7bf134cd-33d9-450a-a46b-f99f1cd06b18</stEvt:instanceID>
                  <stEvt:when>2020-11-11T15:33:10+01:00</stEvt:when>
                  <stEvt:softwareAgent>Adobe Illustrator 25.0 (Macintosh)</stEvt:softwareAgent>
                  <stEvt:changed>/</stEvt:changed>
               </rdf:li>
            </rdf:Seq>
         </xmpMM:History>
         <illustrator:StartupProfile>Print</illustrator:StartupProfile>
         <illustrator:CreatorSubTool>AIRobin</illustrator:CreatorSubTool>
         <pdf:Producer>Adobe PDF library 15.00</pdf:Producer>
         <xmpTPg:NPages>1</xmpTPg:NPages>
         <xmpTPg:HasVisibleTransparency>False</xmpTPg:HasVisibleTransparency>
         <xmpTPg:HasVisibleOverprint>False</xmpTPg:HasVisibleOverprint>
         <xmpTPg:MaxPageSize rdf:parseType="Resource">
            <stDim:w>60.000000</stDim:w>
            <stDim:h>20.000000</stDim:h>
            <stDim:unit>Millimeters</stDim:unit>
         </xmpTPg:MaxPageSize>
         <xmpTPg:PlateNames>
            <rdf:Seq>
               <rdf:li>Cyan</rdf:li>
               <rdf:li>Magenta</rdf:li>
               <rdf:li>Yellow</rdf:li>
               <rdf:li>Black</rdf:li>
            </rdf:Seq>
         </xmpTPg:PlateNames>
         <xmpTPg:SwatchGroups>
            <rdf:Seq>
               <rdf:li rdf:parseType="Resource">
                  <xmpG:groupName>Default Swatch Group</xmpG:groupName>
                  <xmpG:groupType>0</xmpG:groupType>
                  <xmpG:Colorants>
                     <rdf:Seq>
                        <rdf:li rdf:parseType="Resource">
                           <xmpG:swatchName>White</xmpG:swatchName>
                           <xmpG:mode>RGB</xmpG:mode>
                           <xmpG:type>PROCESS</xmpG:type>
                           <xmpG:red>255</xmpG:red>
                           <xmpG:green>255</xmpG:green>
                           <xmpG:blue>255</xmpG:blue>
                        </rdf:li>
                        <rdf:li rdf:parseType="Resource">
                           <xmpG:swatchName>Black</xmpG:swatchName>
                           <xmpG:mode>RGB</xmpG:mode>
                           <xmpG:type>PROCESS</xmpG:type>
                           <xmpG:red>29</xmpG:red>
                           <xmpG:green>29</xmpG:green>
                           <xmpG:blue>27</xmpG:blue>
                        </rdf:li>
                        <rdf:li rdf:parseType="Resource">
                           <xmpG:swatchName>ALG R=234 G=44 B=56</xmpG:swatchName>
                           <xmpG:type>PROCESS</xmpG:type>
                           <xmpG:tint>100.000000</xmpG:tint>
                           <xmpG:mode>RGB</xmpG:mode>
                           <xmpG:red>234</xmpG:red>
                           <xmpG:green>44</xmpG:green>
                           <xmpG:blue>56</xmpG:blue>
                        </rdf:li>
                        <rdf:li rdf:parseType="Resource">
                           <xmpG:swatchName>ALG R=0 G=46 B=101</xmpG:swatchName>
                           <xmpG:type>PROCESS</xmpG:type>
                           <xmpG:tint>100.000000</xmpG:tint>
                           <xmpG:mode>RGB</xmpG:mode>
                           <xmpG:red>0</xmpG:red>
                           <xmpG:green>46</xmpG:green>
                           <xmpG:blue>101</xmpG:blue>
                        </rdf:li>
                     </rdf:Seq>
                  </xmpG:Colorants>
               </rdf:li>
            </rdf:Seq>
         </xmpTPg:SwatchGroups>
      </rdf:Description>
   </rdf:RDF>
</x:xmpmeta>
                                                                                                    
                                                                                                    
                                                                                                    
                                                                                                    
                                                                                                    
                                                                                                    
                                                                                                    
                                                                                                    
                                                                                                    
                                                                                                    
                                                                                                    
                                                                                                    
                                                                                                    
                                                                                                    
                                                                                                    
                                                                                                    
                                                                                                    
                                                                                                    
                                                                                                    
                                                                                                    
                           
<?xpacket end="w"?>
	</metadata>
<g>
	<path class="st0" d="M50.9,49.3H12.6c-1.2,0-2.1-1-2.1-2.1V9c0-1.2,1-2.1,2.1-2.1h38.3C52,6.8,53,7.8,53,9v38.3
		C53,48.4,52,49.3,50.9,49.3z"/>
	<path class="st1" d="M37.7,29.3c0.2,5.1-1.9,8.9-6.6,8.9c-3.6,0-7.3-2.7-7.3-8.1V15.6h-6v14.8c0,5.6,3.7,11.3,12.4,11.3
		c8.4,0,11.7-6,11.8-11c6.1,0.9,8.9-3.6,8.1-6.7c-1.1,1.2-2.8,2.3-8.1,0.8v-9.2h-4.3v7.7c-8.4-2.7-10.4,4.9-10.4,4.9
		S31.3,26.1,37.7,29.3"/>
</g>
<g>
	<g>
		<g>
			<path class="st2" d="M68.7,24.3c-2.7,0-4.9-1.4-4.9-4.3V12h2.5v7.6c0,1.9,1.4,2.6,2.7,2.6c1.3,0,2.5-0.7,2.5-2.6V12h2.5v7.7
				C74.1,22.7,71.9,24.3,68.7,24.3z"/>
			<path class="st2" d="M82.8,24v-5.4c0-1.3-0.7-1.9-1.8-1.9c-0.6,0-1.3,0.2-1.7,0.5V24h-2.4v-8.9l2.3-0.2l0,1.2h0.1
				c0.7-0.7,1.7-1.4,3-1.4c1.6,0,2.9,1.1,2.9,3.1V24H82.8z"/>
			<path class="st2" d="M88.9,13.4c-0.7,0-1.2-0.6-1.2-1.3c0-0.7,0.6-1.2,1.2-1.2c0.7,0,1.2,0.5,1.2,1.2
				C90.1,12.8,89.6,13.4,88.9,13.4z M87.7,24v-9h2.4v9H87.7z"/>
			<path class="st2" d="M97.1,24.1h-2L91.6,15h2.7l1.6,4.8c0.3,0.7,0.5,2,0.5,2s0.2-1.3,0.5-2l1.6-4.8h2.4L97.1,24.1z"/>
			<path class="st2" d="M109.5,19.9h-6c0.1,1.5,1,2.6,2.7,2.6c1.1,0,2-0.2,3.1-0.6l-0.1,1.7c-1.1,0.4-2.2,0.7-3.6,0.7
				c-2.7,0-4.4-1.9-4.4-4.5c0-2.9,1.9-4.9,4.5-4.9c2.6,0,3.8,1.8,3.8,3.8C109.6,19,109.6,19.6,109.5,19.9z M105.6,16.4
				c-1.1,0-1.8,1.1-2,2.2h3.8C107.4,17.3,106.8,16.4,105.6,16.4z"/>
			<path class="st2" d="M117.1,17.5c-0.5-0.3-1.1-0.4-1.6-0.4c-0.5,0-1.1,0.2-1.4,0.5V24h-2.4v-8.9l2.2-0.2l-0.1,1.6h0.1
				c0.5-1,1.3-1.7,2.3-1.7c0.4,0,0.9,0.1,1.2,0.3L117.1,17.5z"/>
			<path class="st2" d="M121.2,24.2c-1.2,0-2.1-0.2-2.9-0.7l0.3-1.8c0.8,0.4,1.8,0.7,2.7,0.7c0.7,0,1.4-0.2,1.4-0.9
				c0-1.4-4.1-1.1-4.1-4c0-1.8,1.7-2.8,3.6-2.8c1,0,1.9,0.3,2.6,0.5l-0.3,1.7c-0.7-0.3-1.6-0.5-2.5-0.5c-0.6,0-1.2,0.2-1.2,0.8
				c0,1.4,4.1,1.1,4.1,4C125,23.2,123.3,24.2,121.2,24.2z"/>
			<path class="st2" d="M128.3,13.4c-0.7,0-1.2-0.6-1.2-1.3c0-0.7,0.6-1.2,1.2-1.2c0.7,0,1.2,0.5,1.2,1.2
				C129.5,12.8,129,13.4,128.3,13.4z M127.1,24v-9h2.4v9H127.1z"/>
			<path class="st2" d="M134.8,24.2c-1.6,0-2.6-1-2.6-2.5c0-0.5,0.1-2.9,0.1-4.3v-0.8h-0.8v-0.9l2.9-2.7h0.2v2h2.9v1.7h-2.9
				c0,0.1,0,3,0,4.2c0,1,0.6,1.4,1.4,1.4c0.5,0,1-0.1,1.5-0.2v1.6C136.7,24,135.8,24.2,134.8,24.2z"/>
			<path class="st2" d="M146.8,19.9h-6c0.1,1.5,1,2.6,2.7,2.6c1.1,0,2-0.2,3.1-0.6l-0.1,1.7c-1.1,0.4-2.2,0.7-3.6,0.7
				c-2.7,0-4.3-1.9-4.3-4.5c0-2.9,1.9-4.9,4.5-4.9c2.6,0,3.8,1.8,3.8,3.8C146.9,19,146.9,19.6,146.8,19.9z M142.9,16.4
				c-1.1,0-1.8,1.1-2,2.2h3.8C144.7,17.3,144.1,16.4,142.9,16.4z"/>
			<path class="st2" d="M150.2,13.4c-0.7,0-1.2-0.6-1.2-1.3c0-0.7,0.6-1.2,1.2-1.2c0.7,0,1.2,0.5,1.2,1.2
				C151.5,12.8,150.9,13.4,150.2,13.4z M149.1,24v-9h2.4v9H149.1z"/>
			<path class="st2" d="M156.8,24.2c-1.6,0-2.6-1-2.6-2.5c0-0.5,0.1-2.9,0.1-4.3v-0.8h-0.8v-0.9l2.9-2.7h0.2v2h2.9v1.7h-2.9
				c0,0.1,0,3,0,4.2c0,1,0.6,1.4,1.4,1.4c0.5,0,1-0.1,1.5-0.2v1.6C158.7,24,157.8,24.2,156.8,24.2z"/>
		</g>
	</g>
	<g>
		<g>
			<path class="st2" d="M72.1,41.2L71,38h-4L66,41.2h-2.6l4.4-12h2.8l4.4,12H72.1z M69.3,32.7c-0.2-0.5-0.3-1.4-0.3-1.4
				s-0.1,0.9-0.3,1.4l-1.2,3.6h3.1L69.3,32.7z"/>
			<path class="st2" d="M82.4,41.2v-5.4c0-1.3-0.7-1.9-1.8-1.9c-0.6,0-1.3,0.2-1.7,0.5v6.9h-2.4v-8.9l2.3-0.2l0,1.2h0.1
				c0.7-0.7,1.7-1.4,3-1.4c1.6,0,2.9,1.1,2.9,3.1v6.1H82.4z"/>
			<path class="st2" d="M89.9,41.3c-1.6,0-2.6-1-2.6-2.5c0-0.5,0.1-2.9,0.1-4.3v-0.8h-0.8v-0.9l2.9-2.7h0.2v2h2.9v1.7h-2.9
				c0,0.1,0,3,0,4.2c0,1,0.6,1.4,1.4,1.4c0.5,0,1-0.1,1.5-0.2v1.6C91.8,41.1,90.9,41.3,89.9,41.3z"/>
			<path class="st2" d="M104.7,41.2h-1.9l-1.7-4.5c-0.3-0.7-0.4-1.9-0.4-1.9s-0.3,1.2-0.5,1.9l-1.7,4.5h-1.8l-3.1-9.1h2.6l1.3,4.4
				c0.2,0.7,0.4,2.1,0.4,2.1s0.3-1.3,0.5-2.1l1.6-4.5h1.7l1.6,4.5c0.3,0.7,0.5,2,0.5,2s0.2-1.3,0.4-2.1l1.3-4.4h2.3L104.7,41.2z"/>
			<path class="st2" d="M116.8,37h-6c0.1,1.5,1,2.6,2.7,2.6c1.1,0,2-0.2,3.1-0.6l-0.1,1.7c-1.1,0.4-2.2,0.7-3.6,0.7
				c-2.7,0-4.3-1.9-4.3-4.5c0-2.9,1.9-4.9,4.5-4.9c2.6,0,3.8,1.8,3.8,3.8C116.9,36.1,116.9,36.7,116.8,37z M112.9,33.5
				c-1.1,0-1.8,1.1-2,2.2h3.8C114.7,34.4,114.1,33.5,112.9,33.5z"/>
			<path class="st2" d="M124.4,34.6c-0.5-0.3-1.1-0.4-1.6-0.4c-0.5,0-1.1,0.2-1.4,0.5v6.5H119v-8.9l2.2-0.2l-0.1,1.6h0.1
				c0.5-1,1.3-1.7,2.3-1.7c0.4,0,0.9,0.1,1.2,0.3L124.4,34.6z"/>
			<path class="st2" d="M130,41.3c-0.5,0-1-0.1-1.3-0.3v4.7h-2.4V32.2l2.3-0.2l0,1.2h0.1c0.7-0.8,1.7-1.3,2.7-1.3
				c2.2,0,3.6,1.9,3.6,4.4C134.9,39.3,133,41.3,130,41.3z M130.3,33.8c-0.6,0-1.2,0.2-1.6,0.5v5c0.3,0.2,0.9,0.4,1.5,0.4
				c1.6,0,2.4-1.2,2.4-2.9C132.5,34.9,131.6,33.8,130.3,33.8z"/>
			<path class="st2" d="M144.6,37h-6c0.1,1.5,1,2.6,2.7,2.6c1.1,0,2-0.2,3.1-0.6l-0.1,1.7c-1.1,0.4-2.2,0.7-3.6,0.7
				c-2.7,0-4.4-1.9-4.4-4.5c0-2.9,1.9-4.9,4.5-4.9c2.6,0,3.8,1.8,3.8,3.8C144.7,36.1,144.7,36.7,144.6,37z M140.7,33.5
				c-1.1,0-1.8,1.1-2,2.2h3.8C142.5,34.4,141.9,33.5,140.7,33.5z"/>
			<path class="st2" d="M152.7,41.2v-5.4c0-1.3-0.7-1.9-1.8-1.9c-0.6,0-1.3,0.2-1.7,0.5v6.9h-2.4v-8.9l2.3-0.2l0,1.2h0.1
				c0.7-0.7,1.7-1.4,3-1.4c1.6,0,2.9,1.1,2.9,3.1v6.1H152.7z"/>
		</g>
	</g>
</g>
</svg>
