<?xml version="1.0" encoding="UTF-8" standalone="no"?>
<svg
   xmlns:dc="http://purl.org/dc/elements/1.1/"
   xmlns:cc="http://creativecommons.org/ns#"
   xmlns:rdf="http://www.w3.org/1999/02/22-rdf-syntax-ns#"
   xmlns:svg="http://www.w3.org/2000/svg"
   xmlns="http://www.w3.org/2000/svg"
   height="181.7"
   width="600"
   xml:space="preserve"
   viewBox="-153 -46 600 181.7"
   y="0px"
   x="0px"
   id="layer"
   version="1.1"><metadata
   id="metadata4968"><rdf:RDF><cc:Work
       rdf:about=""><dc:format>image/svg+xml</dc:format><dc:type
         rdf:resource="http://purl.org/dc/dcmitype/StillImage" /><dc:title></dc:title></cc:Work></rdf:RDF></metadata><defs
   id="defs4966" />
<style
   id="style4956"
   type="text/css">
	.st0{fill:#004D95;}
	.st1{fill:#ABAECF;}
	.st2{fill:#FFFFFE;}
</style>
<polygon
   transform="translate(-26.3,-235.6)"
   style="fill:#004d95"
   points="54.8,189.8 -126.7,189.8 -126.7,371.3 54.8,371.3 "
   class="st0"
   id="Fill-1_4_" />
<polygon
   transform="translate(-26.3,-235.6)"
   style="fill:#abaecf"
   points="-19.8,282.4 -31.8,294.5 -19.8,294.5 "
   class="st1"
   id="Fill-1_5_" />
<path
   style="fill:#fffffe"
   id="path4960"
   d="m -80.4,18.6 v 7.2 h 5.7 v 33.4 h -5.7 v 7.2 h 34.3 V 59 H -63.4 V 25.9 h 6.3 v -7.2 h -23.3 z m -15.3,45.9 c 4.2,-3.4 5.2,-7.3 5.1,-13 V 25.9 h 6 v -7.2 h -17.5 v 7.2 h 3.7 v 26.8 c 0,3.8 -3,6.8 -6.8,6.8 -4.9,0 -6.7,-3 -6.7,-6.8 v 0 V 26 h 3.9 l 0.3,-7.2 h -20.8 l -0.3,7.2 h 5.6 v 25 c 0,5.2 0.1,8.2 2.8,11.9 2.4,3.4 6.7,5.1 13.5,5 4.8,0 8.5,-1.2 11.2,-3.4 m 75.6,-5.6 c 4.8,0 7,-2.4 7,-6.7 0,-4.4 -2.9,-7.4 -7,-7.4 h -4.5 V 58.9 Z M -20.7,38 c 3.9,0 6,-2.3 6,-6 0,-3.8 -2.4,-6.2 -6,-6.2 h -3.9 V 38 Z m 14,4.4 c 3.3,2.3 5.5,6.1 5.5,10.7 0,7.2 -7.1,13.3 -13.8,13.3 H -41.7 V 59 h 5.4 V 25.9 H -42 v -7.2 h 27 c 6.6,0 12,5.2 12,11.7 0,3 -1.5,6.4 -3.8,8.6 l -3.2,2 z"
   class="st2" />
<path
   style="fill:#004d95"
   d="m 73.8,-8.9 c 0,4.6 -0.3,5.7 -1.9,7.8 C 70,1.2 67,3.2 61.4,3.2 55.9,3.2 52.2,1.4 50.3,-1.9 49.3,-3.6 49.1,-4.6 49.1,-8.4 V -34 h 5.2 v 23.7 c 0,2.7 0.3,5.9 1.3,7.1 1,1.2 2.9,2.1 5.8,2.1 2.8,0 4.8,-0.9 6,-2.4 0.9,-1.2 1.3,-3.1 1.3,-6.1 V -34 h 5.1 z m 40.3,11.5 h -5.5 L 99,-16.9 c -1.9,-3.8 -3.8,-7.9 -4.5,-10.1 l -0.3,0.1 c 0.3,3.1 0.4,6.8 0.4,10.2 l 0.2,19.3 h -5.1 v -36.7 h 6 l 10.2,20.2 c 1.5,3 3.4,7.8 3.6,8.8 l 0.3,-0.1 c -0.1,-1.1 -0.5,-6.9 -0.5,-10.9 l -0.1,-18 h 5 V 2.6 Z m 21.3,0 h -5.2 v -36.7 h 5.2 z M 177,-34.1 164.5,2.7 h -5 l -12.2,-36.8 h 5.6 l 7,22.1 c 0.4,1.3 1,3.2 1.4,4.8 0.3,1.2 0.5,2 0.6,2.8 h 0.3 c 0.6,-2.4 1.3,-4.9 2.2,-7.7 l 7.2,-22 z m 32.4,36.7 h -20.5 v -36.7 h 20 l -0.7,4.2 h -14.1 v 11.2 h 11.8 v 4.3 h -11.8 v 12.6 h 15.3 z m 37.2,0 h -6.2 c -1.1,-2.1 -1.5,-2.9 -3,-5.4 -2.8,-4.7 -3.7,-6.2 -6.3,-9.2 -1,-1.1 -1.8,-1.6 -3.3,-1.7 V 2.5 h -5.1 V -34.2 H 233 c 4.4,0 6.9,1 8.7,2.7 1.7,1.5 3.2,4 3.2,7.6 0,5.6 -3.5,10.1 -9.4,10.1 h -0.4 c 1.6,1.3 2.1,1.9 3.2,3.4 0.7,1 1.9,2.6 3.1,4.5 z m -7.2,-26.4 c 0,-2.6 -1.4,-4.6 -3.4,-5.4 -1.1,-0.4 -2.6,-0.7 -4.5,-0.7 h -3.8 v 12.8 h 3.6 c 3.2,0 5.1,-0.5 6.3,-1.8 1.1,-1.1 1.8,-2.8 1.8,-4.9 z M 283,-8.1 c 0,5.1 -4.2,11.4 -13.8,11.4 -4.2,0 -8.3,-1.1 -11.8,-3.2 l 2,-3.9 c 3.2,2 6.2,3 9.9,3 4.8,0 7.9,-2.4 7.9,-6.4 0,-3 -2,-5.1 -6.1,-6.2 l -3.8,-1.1 c -5.5,-1.6 -8.7,-4.3 -8.7,-9.5 0,-6.3 4.9,-10.6 12.1,-10.6 4,0 8,1.2 11.2,3.5 l -2.3,3.6 c -3.4,-2.1 -5.7,-2.9 -8.7,-2.9 -4.1,0 -6.7,2.1 -6.7,5.5 0,2.6 1.5,4.1 5.4,5.3 l 4.3,1.3 c 5.1,1.3 9.1,4.5 9.1,10.2 z m 19,10.7 h -5.2 v -36.7 h 5.2 z m 37.3,-36.7 -0.5,4.3 h -9.5 V 2.6 h -5.1 v -32.4 h -9.5 v -4.3 z m 31.1,36.7 h -20.5 v -36.7 h 20 l -0.7,4.2 h -14.1 v 11.2 h 11.8 v 4.3 h -11.8 v 12.6 h 15.3 z m -3.1,-44 -11.6,5.4 -1.5,-2.9 10.7,-7.1 z M 68.5,61.2 67.6,65.5 H 49.4 V 28.8 h 5.2 v 32.4 z m 17.4,4.3 H 80.7 V 28.8 h 5.2 z m 40.5,-10.1 c 0,5.1 -3.1,8.4 -7.4,9.5 -1.7,0.4 -3.9,0.6 -5.8,0.6 H 102 V 28.8 h 7.8 c 6.2,0 7.8,0.2 10.1,1.4 3.2,1.7 5,4.3 5,7.7 0,3.8 -2.2,6.8 -6.7,8.1 5.5,1.2 8.2,4.6 8.2,9.4 z m -5.7,-0.6 c 0,-3 -1.7,-5.4 -3.9,-6 -1,-0.2 -2,-0.3 -3.8,-0.3 h -5.9 v 12.8 h 7.2 c 3,0 6.4,-1.8 6.4,-6.5 z m -1.4,-16.1 c 0,-2.6 -1.4,-4.6 -3.6,-5.2 -0.9,-0.3 -1.9,-0.4 -3.7,-0.4 h -5 v 11.2 h 5.8 c 3.2,0 4.4,-0.6 5.4,-2 0.7,-1 1.1,-2.4 1.1,-3.6 z m 45.6,26.8 h -6.2 c -1.1,-2.1 -1.5,-2.9 -3,-5.4 -2.8,-4.7 -3.7,-6.2 -6.3,-9.2 -1,-1.1 -1.8,-1.6 -3.3,-1.7 V 65.4 H 141 V 28.7 h 10.3 c 4.4,0 6.9,1 8.7,2.7 1.7,1.5 3.2,4 3.2,7.6 0,5.6 -3.5,10.1 -9.4,10.1 h -0.4 c 1.6,1.3 2.1,1.9 3.2,3.4 0.7,1 1.9,2.6 3.1,4.5 z m -7.2,-26.4 c 0,-2.6 -1.4,-4.6 -3.4,-5.4 -1.1,-0.4 -2.6,-0.7 -4.5,-0.7 H 146 v 12.8 h 3.6 c 3.2,0 5.1,-0.5 6.3,-1.8 1.1,-1 1.8,-2.8 1.8,-4.9 z m 40.4,26.4 H 177.6 V 28.8 h 20 l -0.7,4.2 h -14.1 v 11.2 h 11.8 v 4.3 h -11.8 v 12.6 h 15.3 z M 74.9,110.1 c 0,6 -1.5,10.3 -4,13.4 -2.6,3.2 -6,5 -12.4,5 H 49.3 V 91.8 h 8.5 c 6.3,0 10.4,1.4 13.7,6.1 2.3,2.9 3.4,7.1 3.4,12.2 z m -5.7,0.6 c 0,-5.1 -0.5,-8.9 -2.7,-11.7 -2,-2.6 -4.2,-3.2 -7.7,-3.2 h -4.2 v 28.4 h 4 c 4.2,0 6.9,-1.1 8.6,-4.1 1.3,-2.5 2,-5.8 2,-9.4 z m 40.7,17.7 H 89.4 V 91.7 h 20 l -0.7,4.2 H 94.6 v 11.2 h 11.8 v 4.3 H 94.6 V 124 h 15.3 z m 55.6,-10.1 c 0,5.1 -3.1,8.4 -7.4,9.5 -1.7,0.4 -3.9,0.6 -5.8,0.6 H 141.1 V 91.7 h 7.8 c 6.2,0 7.8,0.2 10.1,1.4 3.2,1.7 5,4.3 5,7.7 0,3.8 -2.2,6.8 -6.7,8.1 5.5,1.2 8.2,4.6 8.2,9.4 z m -5.7,-0.5 c 0,-3 -1.7,-5.4 -3.9,-6 -1,-0.2 -2,-0.3 -3.8,-0.3 h -5.9 v 12.8 h 7.2 c 3,-0.1 6.4,-1.9 6.4,-6.5 z m -1.4,-16.2 C 158.4,99 157,97 154.8,96.4 153.9,96.1 152.9,96 151.1,96 h -5 v 11.2 h 5.8 c 3.2,0 4.4,-0.6 5.4,-2 0.7,-1 1.1,-2.4 1.1,-3.6 z m 45.6,26.8 h -6.2 c -1.1,-2.1 -1.5,-2.9 -3,-5.4 -2.8,-4.7 -3.7,-6.2 -6.3,-9.2 -1,-1.1 -1.8,-1.6 -3.3,-1.7 v 16.3 h -5.1 V 91.7 h 10.3 c 4.4,0 6.9,1 8.7,2.7 1.7,1.5 3.2,4 3.2,7.6 0,5.6 -3.5,10.1 -9.4,10.1 h -0.4 c 1.6,1.3 2.1,1.9 3.2,3.4 0.7,1 1.9,2.6 3.1,4.5 z M 196.8,102 c 0,-2.6 -1.4,-4.6 -3.4,-5.4 -1.1,-0.4 -2.6,-0.7 -4.5,-0.7 h -3.8 v 12.8 h 3.6 c 3.2,0 5.1,-0.5 6.3,-1.8 1.1,-1 1.8,-2.8 1.8,-4.9 z m 44.3,14.9 c 0,4.6 -0.3,5.7 -1.9,7.8 -1.9,2.3 -4.9,4.3 -10.5,4.3 -5.5,0 -9.2,-1.8 -11.1,-5.1 -1,-1.7 -1.2,-2.7 -1.2,-6.5 V 91.8 h 5.2 v 23.6 c 0,2.7 0.3,5.9 1.3,7.1 1,1.2 2.9,2.1 5.8,2.1 2.8,0 4.8,-0.9 6,-2.4 0.9,-1.2 1.3,-3.1 1.3,-6.1 V 91.7 h 5.1 z m 40.2,11.5 h -6.2 l -8.3,-15.8 -7.9,15.8 h -6.2 L 263.8,108.6 254,91.7 h 6.2 l 6.6,12.5 6.3,-12.5 h 6.1 l -9.3,16.6 z m 32.4,0 H 293.2 V 91.7 h 20 l -0.7,4.2 h -14.1 v 11.2 h 11.8 v 4.3 H 298.4 V 124 h 15.3 z m 32.4,-4.3 -0.9,4.3 H 326.9 V 91.7 h 5.2 v 32.4 z m 31.3,0 -0.9,4.3 H 358.2 V 91.7 h 5.2 v 32.4 z m 32.7,4.3 H 389.6 V 91.7 h 20 l -0.7,4.2 h -14.2 v 11.2 h 11.8 v 4.3 H 394.7 V 124 H 410 v 4.4 z M 447,117.7 c 0,5.1 -4.2,11.4 -13.8,11.4 -4.2,0 -8.3,-1.1 -11.8,-3.2 l 2,-3.9 c 3.2,2 6.2,3 9.9,3 4.8,0 7.9,-2.4 7.9,-6.4 0,-3 -2,-5.1 -6.1,-6.2 l -3.8,-1.1 c -5.5,-1.6 -8.7,-4.3 -8.7,-9.5 0,-6.3 4.9,-10.6 12.1,-10.6 4,0 8,1.2 11.2,3.5 l -2.3,3.6 c -3.4,-2.1 -5.7,-2.9 -8.7,-2.9 -4.1,0 -6.7,2.1 -6.7,5.5 0,2.6 1.5,4.1 5.4,5.3 l 4.3,1.3 c 5.1,1.3 9.1,4.5 9.1,10.2 z"
   class="st0"
   id="université-libre-de" />
</svg>