<?xml version="1.0" encoding="UTF-8" standalone="no"?>
<!-- Generator: Adobe Illustrator 21.1.0, SVG Export Plug-In . SVG Version: 6.00 Build 0)  -->

<svg
   xmlns:dc="http://purl.org/dc/elements/1.1/"
   xmlns:cc="http://creativecommons.org/ns#"
   xmlns:rdf="http://www.w3.org/1999/02/22-rdf-syntax-ns#"
   xmlns:svg="http://www.w3.org/2000/svg"
   xmlns="http://www.w3.org/2000/svg"
   xmlns:sodipodi="http://sodipodi.sourceforge.net/DTD/sodipodi-0.dtd"
   xmlns:inkscape="http://www.inkscape.org/namespaces/inkscape"
   version="1.1"
   id="Layer_1"
   x="0px"
   y="0px"
   width="461.2674"
   height="197.57817"
   viewBox="0 0 461.26739 197.57816"
   xml:space="preserve"
   sodipodi:docname="uliege-greyscale.svg"
   inkscape:version="0.92.3 (2405546, 2018-03-11)"><metadata
   id="metadata14924"><rdf:RDF><cc:Work
       rdf:about=""><dc:format>image/svg+xml</dc:format><dc:type
         rdf:resource="http://purl.org/dc/dcmitype/StillImage" /><dc:title></dc:title></cc:Work></rdf:RDF></metadata><defs
   id="defs14922">
	
	
	
	
	
	
	
	
	
	
	
	
	
	
	
	
	
	
	
	
	
	
	
	
	
	
	
	
	
	
	
	
	
	
	
	
<filter
   style="color-interpolation-filters:sRGB"
   id="filter15757"
   inkscape:label="filter0" /></defs><sodipodi:namedview
   pagecolor="#ffffff"
   bordercolor="#666666"
   borderopacity="1"
   objecttolerance="10"
   gridtolerance="10"
   guidetolerance="10"
   inkscape:pageopacity="0"
   inkscape:pageshadow="2"
   inkscape:window-width="1920"
   inkscape:window-height="1056"
   id="namedview14920"
   showgrid="false"
   inkscape:zoom="1.9082277"
   inkscape:cx="95.091883"
   inkscape:cy="131.54048"
   inkscape:window-x="0"
   inkscape:window-y="24"
   inkscape:window-maximized="1"
   inkscape:current-layer="Layer_1"
   fit-margin-top="0"
   fit-margin-left="0"
   fit-margin-right="0"
   fit-margin-bottom="0" />
<style
   type="text/css"
   id="style14843">
	.st0{fill:#007680;}
	.st1{fill:#FAA819;}
	.st2{fill:#FFCE01;}
	.st3{fill:#F48245;}
	.st4{fill:#EE3A3D;}
	.st5{fill:#E4E1DB;}
	.st6{fill:#BAB9AB;}
	.st7{fill:#ADCB7E;}
	.st8{fill:#77BF43;}
	.st9{fill:#2DA34A;}
	.st10{fill:#008D48;}
	.st11{fill:#0066B2;}
	.st12{fill:#00BEDB;}
	.st13{fill:#9F5DA4;}
	.st14{fill:#5B2C86;}
	.st15{fill:#5BA3AD;}
	.st16{fill:#585EA9;}
	.st17{fill:#7F9FD2;}
</style>
<path
   style="fill:#b4b4b4;fill-opacity:1;stroke-width:1.43541849"
   inkscape:connector-curvature="0"
   id="path14845"
   d="m 192.19105,121.85124 h 7.33786 V 140.549 c 0,5.1675 1.46986,7.08235 4.85171,7.08235 2.74165,0 4.59334,-1.27752 6.95317,-4.33783 v -21.44228 h 7.34073 v 31.32944 h -6.00005 l -0.57417,-4.59334 h -0.19235 c -2.74165,3.25553 -5.80483,5.35985 -10.08238,5.35985 -6.69766,0 -9.63452,-4.52731 -9.63452,-12.4422 z"
   class="st0" /><path
   style="fill:#b4b4b4;fill-opacity:1;stroke-width:1.43541849"
   inkscape:connector-curvature="0"
   id="path14847"
   d="m 227.15784,121.85124 h 6.06034 l 0.51101,4.21438 h 0.25837 c 2.80481,-2.74739 5.99718,-4.97803 10.27185,-4.97803 6.70054,0 9.63453,4.53018 9.63453,12.44221 v 19.65088 h -7.33786 v -18.69489 c 0,-5.16751 -1.46986,-7.08235 -4.912,-7.08235 -2.74739,0 -4.53305,1.34068 -7.14838,3.88998 v 21.88726 h -7.33786 z"
   class="st0" /><rect
   style="fill:#b4b4b4;fill-opacity:1;stroke-width:1.43541849"
   id="rect14849"
   height="31.329443"
   width="7.3378592"
   class="st0"
   y="121.85123"
   x="263.33612" /><path
   style="fill:#b4b4b4;fill-opacity:1;stroke-width:1.43541849"
   inkscape:connector-curvature="0"
   id="path14851"
   d="m 276.16159,121.85124 h 7.46705 l 4.97516,16.2719 c 0.82967,3.06031 1.78566,6.25268 2.61533,9.44218 h 0.25837 c 0.89283,-3.1895 1.78567,-6.38187 2.68137,-9.44218 l 4.97516,-16.2719 h 7.08235 l -10.65367,31.32944 h -8.48907 z"
   class="st0" /><path
   style="fill:#b4b4b4;fill-opacity:1;stroke-width:1.43541849"
   inkscape:connector-curvature="0"
   id="path14853"
   d="m 329.44145,134.74129 c 0,-4.97516 -2.10432,-7.97805 -6.38187,-7.97805 -3.70051,0 -6.89001,2.74739 -7.5302,7.97805 z m -6.57421,-13.65513 c 8.48906,0 12.95608,6.12349 12.95608,14.86519 0,1.40671 -0.12919,2.68136 -0.31866,3.44788 h -19.90925 c 0.63732,5.67851 4.21151,8.87088 9.24983,8.87088 2.68136,0 4.97803,-0.82967 7.2747,-2.29667 l 2.48902,4.59334 c -3.00003,1.97801 -6.76369,3.38185 -10.71971,3.38185 -8.67567,0 -15.44223,-6.06321 -15.44223,-16.40109 0,-10.21013 7.08236,-16.46138 14.42022,-16.46138"
   class="st0" /><path
   style="fill:#b4b4b4;fill-opacity:1;stroke-width:1.43541849"
   inkscape:connector-curvature="0"
   id="path14855"
   d="m 343.47841,121.85124 h 6.06034 l 0.511,5.5522 h 0.25838 c 2.23064,-4.08521 5.54933,-6.31585 8.86801,-6.31585 1.59619,0 2.61534,0.18948 3.57133,0.63446 l -1.27466,6.38187 c -1.08517,-0.31866 -1.91484,-0.51101 -3.25552,-0.51101 -2.48902,0 -5.48617,1.72537 -7.40102,6.44503 v 19.14274 h -7.33786 z"
   class="st0" /><path
   style="fill:#b4b4b4;fill-opacity:1;stroke-width:1.43541849"
   inkscape:connector-curvature="0"
   id="path14857"
   d="m 367.27621,144.88683 c 2.80768,2.17035 5.48904,3.51103 8.67854,3.51103 3.37898,0 4.97516,-1.59618 4.97516,-3.76653 0,-2.61534 -3.37897,-3.76654 -6.69766,-5.04119 -4.14836,-1.53303 -8.80486,-3.88999 -8.80486,-9.12639 0,-5.48617 4.401,-9.37903 11.42019,-9.37903 4.34071,0 7.84887,1.78853 10.40104,3.76654 l -3.38184,4.46702 c -2.17036,-1.59618 -4.40387,-2.67849 -6.89001,-2.67849 -3.12634,0 -4.59621,1.46413 -4.59621,3.44214 0,2.42585 3.12634,3.44787 6.50819,4.65936 4.27754,1.59619 9.00007,3.63735 9.00007,9.50822 0,5.35985 -4.27755,9.69768 -12.18957,9.69768 -4.27468,0 -8.80486,-1.84882 -11.86804,-4.33783 z"
   class="st0" /><rect
   style="fill:#b4b4b4;fill-opacity:1;stroke-width:1.43541849"
   id="rect14859"
   height="31.329443"
   width="7.3378592"
   class="st0"
   y="121.85123"
   x="395.16064" /><path
   style="fill:#b4b4b4;fill-opacity:1;stroke-width:1.43541849"
   inkscape:connector-curvature="0"
   id="path14861"
   d="m 413.79238,127.6575 h -4.46702 v -5.48904 l 4.84884,-0.31866 0.8957,-8.54935 h 6.12637 v 8.54935 h 7.97518 v 5.8077 h -7.97518 v 14.93123 c 0,3.70051 1.40384,5.48904 4.40099,5.48904 1.08518,0 2.35983,-0.31867 3.25266,-0.70336 l 1.27752,5.42588 c -1.7225,0.57417 -3.89285,1.14834 -6.38187,1.14834 -7.2747,0 -9.95319,-4.59334 -9.95319,-11.3599 z"
   class="st0" /><path
   style="fill:#b4b4b4;fill-opacity:1;stroke-width:1.43541849"
   inkscape:connector-curvature="0"
   id="path14863"
   d="m 454.88554,134.74129 c 0,-4.97516 -2.10719,-7.97805 -6.38187,-7.97805 -3.70051,0 -6.89001,2.74739 -7.53021,7.97805 z m -6.57422,-13.65513 c 8.48907,0 12.95609,6.12349 12.95609,14.86519 0,1.40671 -0.12919,2.68136 -0.31866,3.44788 h -19.90926 c 0.63733,5.67851 4.21152,8.87088 9.24984,8.87088 2.68136,0 4.97803,-0.82967 7.2747,-2.29667 l 2.48902,4.59334 c -3.00003,1.97801 -6.76369,3.38185 -10.71971,3.38185 -8.67854,0 -15.44223,-6.06321 -15.44223,-16.40109 0,-10.21013 7.08235,-16.46138 14.42021,-16.46138"
   class="st0" /><polygon
   style="fill:#898989;fill-opacity:1"
   id="polygon14865"
   points="2.829,47.719 29.608,63.179 2.829,78.64 "
   class="st1"
   transform="matrix(1.4354184,0,0,1.4354184,-4.0607987,-4.072282)" /><polygon
   style="fill:#808080;fill-opacity:1"
   id="polygon14867"
   points="29.607,94.1 2.829,78.64 29.607,63.18 "
   class="st2"
   transform="matrix(1.4354184,0,0,1.4354184,-4.0607987,-4.072282)" /><polygon
   style="fill:#9c9c9c;fill-opacity:1"
   id="polygon14869"
   points="2.829,78.641 29.608,94.101 2.829,109.561 "
   class="st3"
   transform="matrix(1.4354184,0,0,1.4354184,-4.0607987,-4.072282)" /><polygon
   style="fill:#949494;fill-opacity:1"
   id="polygon14871"
   points="29.607,125.022 2.829,109.561 29.607,94.101 "
   class="st4"
   transform="matrix(1.4354184,0,0,1.4354184,-4.0607987,-4.072282)" /><polygon
   style="fill:#dfdfdf;fill-opacity:1"
   id="polygon14873"
   points="2.829,16.798 29.608,32.258 2.829,47.718 "
   class="st5"
   transform="matrix(1.4354184,0,0,1.4354184,-4.0607987,-4.072282)" /><polygon
   style="fill:#b3b3b3;fill-opacity:1"
   id="polygon14875"
   points="29.607,63.179 2.829,47.719 29.607,32.259 "
   class="st6"
   transform="matrix(1.4354184,0,0,1.4354184,-4.0607987,-4.072282)" /><polygon
   style="fill:#a4a4a4;fill-opacity:1"
   id="polygon14877"
   points="29.608,63.179 56.386,47.719 29.608,32.259 "
   class="st7"
   transform="matrix(1.4354184,0,0,1.4354184,-4.0607987,-4.072282)" /><polygon
   style="fill:#818181;fill-opacity:1"
   id="polygon14879"
   points="56.386,47.719 29.608,63.179 56.386,78.64 "
   class="st8"
   transform="matrix(1.4354184,0,0,1.4354184,-4.0607987,-4.072282)" /><polygon
   style="fill:#686868;fill-opacity:1"
   id="polygon14881"
   points="29.608,94.1 56.386,78.64 29.608,63.18 "
   class="st9"
   transform="matrix(1.4354184,0,0,1.4354184,-4.0607987,-4.072282)" /><polygon
   style="fill:#474747;fill-opacity:1"
   id="polygon14883"
   points="56.386,78.641 29.608,94.101 56.386,109.561 "
   class="st10"
   transform="matrix(1.4354184,0,0,1.4354184,-4.0607987,-4.072282)" /><polygon
   style="fill:#595959;fill-opacity:1"
   id="polygon14885"
   points="56.386,109.562 29.608,125.022 56.386,140.482 "
   class="st11"
   transform="matrix(1.4354184,0,0,1.4354184,-4.0607987,-4.072282)" /><polygon
   style="fill:#6e6e6e;fill-opacity:1"
   id="polygon14887"
   points="29.608,125.022 56.386,109.561 29.608,94.101 "
   class="st12"
   transform="matrix(1.4354184,0,0,1.4354184,-4.0607987,-4.072282)" /><polygon
   style="fill:#808080;fill-opacity:1"
   id="polygon14889"
   points="83.164,94.101 56.386,109.561 83.164,125.022 "
   class="st13"
   transform="matrix(1.4354184,0,0,1.4354184,-4.0607987,-4.072282)" /><polygon
   style="fill:#595959;fill-opacity:1"
   id="polygon14891"
   points="56.386,140.482 83.164,125.022 56.386,109.562 "
   class="st14"
   transform="matrix(1.4354184,0,0,1.4354184,-4.0607987,-4.072282)" /><polygon
   style="fill:#404040;fill-opacity:1"
   id="polygon14893"
   points="83.165,32.259 109.943,47.719 83.165,63.179 "
   class="st0"
   transform="matrix(1.4354184,0,0,1.4354184,-4.0607987,-4.072282)" /><polygon
   style="fill:#848484;fill-opacity:1"
   id="polygon14895"
   points="109.943,47.718 83.164,32.258 109.943,16.798 "
   class="st15"
   transform="matrix(1.4354184,0,0,1.4354184,-4.0607987,-4.072282)" /><polygon
   style="fill:#808080;fill-opacity:1"
   id="polygon14897"
   points="83.165,94.101 109.943,109.561 83.165,125.022 "
   class="st16"
   transform="matrix(1.4354184,0,0,1.4354184,-4.0607987,-4.072282)" /><polygon
   style="fill:#a8a8a8;fill-opacity:1"
   id="polygon14899"
   points="109.943,109.561 83.164,94.101 109.943,78.641 "
   class="st17"
   transform="matrix(1.4354184,0,0,1.4354184,-4.0607987,-4.072282)" /><polygon
   style="fill:#b4b4b4;fill-opacity:1"
   id="polygon14901"
   points="136.721,70.386 136.721,16.808 148.801,16.808 148.801,60.196 170.003,60.196 170.003,70.386 "
   class="st0"
   transform="matrix(1.4354184,0,0,1.4354184,-4.0607987,-4.072282)" /><rect
   style="fill:#b4b4b4;fill-opacity:1;stroke-width:1.43541849"
   id="rect14903"
   height="76.905411"
   width="17.339855"
   class="st0"
   y="20.054234"
   x="251.29298" /><path
   style="fill:#b4b4b4;fill-opacity:1;stroke-width:1.43541849"
   inkscape:connector-curvature="0"
   id="path14905"
   d="m 288.02819,0 h 18.40207 l 9.55414,14.153226 h -13.80011 z m -5.77899,20.054231 h 48.12671 v 14.626914 h -30.78686 v 15.450844 h 26.18491 V 64.64407 h -26.18491 v 17.690097 h 31.96677 V 96.961081 H 282.2492 Z"
   class="st0" /><path
   style="fill:#b4b4b4;fill-opacity:1;stroke-width:1.43541849"
   inkscape:connector-curvature="0"
   id="path14907"
   d="m 337.46113,58.979909 c 0,-6.370387 1.00193,-12.051774 3.00864,-17.044159 2.00385,-4.992385 4.71679,-9.218257 8.13882,-12.680486 3.42204,-3.459359 7.42973,-6.094787 12.03168,-7.903414 4.59908,-1.808628 9.49386,-2.712941 14.6872,-2.712941 5.42301,0 10.12257,1.022018 14.09294,3.066054 3.97037,2.044035 7.21441,4.363672 9.73214,6.958908 L 389.5984,39.39793 c -1.88901,-1.808627 -3.87276,-3.22395 -5.95698,-4.245967 -2.08423,-1.022018 -4.77708,-1.533027 -8.08141,-1.533027 -2.98854,0 -5.71871,0.571296 -8.19624,1.711018 -2.47753,1.139723 -4.62205,2.770358 -6.4278,4.894777 -1.8115,2.12442 -3.20673,4.716785 -4.18855,7.78571 -0.9847,3.066054 -1.47561,6.528283 -1.47561,10.378075 0,7.943606 1.78853,14.095809 5.36846,18.462352 3.57706,4.363672 8.98285,6.545508 16.21736,6.545508 1.57322,0 3.10912,-0.195216 4.60195,-0.591392 1.49284,-0.390434 2.71294,-0.981826 3.65745,-1.765565 V 67.824957 H 372.37625 V 53.671731 h 28.07392 v 35.385936 c -2.75314,2.595236 -6.37039,4.797168 -10.85177,6.605795 -4.48137,1.808628 -9.43644,2.712941 -14.86232,2.712941 -5.19047,0 -10.04506,-0.846897 -14.5695,-2.537819 -4.52156,-1.688053 -8.47471,-4.185681 -11.85368,-7.490014 -3.38185,-3.301462 -6.03737,-7.40963 -7.96083,-12.324503 -1.92921,-4.914872 -2.89094,-10.596259 -2.89094,-17.044158"
   class="st0" /><polygon
   style="fill:#b4b4b4;fill-opacity:1"
   id="polygon14909"
   points="320.023,37.762 320.023,47.87 301.781,47.87 301.781,60.196 324.051,60.196 324.051,70.386 289.701,70.386 289.701,16.808 323.229,16.808 323.229,26.998 301.781,26.998 301.781,37.762 "
   class="st0"
   transform="matrix(1.4354184,0,0,1.4354184,-4.0607987,-4.072282)" /><path
   style="fill:#b4b4b4;fill-opacity:1;stroke-width:1.43541849"
   inkscape:connector-curvature="0"
   id="path14911"
   d="m 262.50789,113.02054 c 0,-2.48614 1.91485,-4.21152 4.53305,-4.21152 2.61246,0 4.52731,1.72538 4.52731,4.21152 0,2.42586 -1.91485,4.14836 -4.52731,4.14836 -2.6182,0 -4.53305,-1.7225 -4.53305,-4.14836"
   class="st0" /><path
   style="fill:#b4b4b4;fill-opacity:1;stroke-width:1.43541849"
   inkscape:connector-curvature="0"
   id="path14913"
   d="m 394.33098,113.02054 c 0,-2.48614 1.91485,-4.21152 4.53305,-4.21152 2.61246,0 4.52731,1.72538 4.52731,4.21152 0,2.42586 -1.91485,4.14836 -4.52731,4.14836 -2.61677,0 -4.53305,-1.7225 -4.53305,-4.14836"
   class="st0" /><polygon
   style="fill:#b4b4b4;fill-opacity:1"
   id="polygon14915"
   points="311.904,85.131 315.862,78.639 320.974,78.639 315.684,85.131 "
   class="st0"
   transform="matrix(1.4354184,0,0,1.4354184,-4.0607987,-4.072282)" />
</svg>