<?xml version="1.0" encoding="UTF-8" standalone="no"?>
<!-- Generator: Adobe Illustrator 21.1.0, SVG Export Plug-In . SVG Version: 6.00 Build 0)  -->

<svg
   xmlns:dc="http://purl.org/dc/elements/1.1/"
   xmlns:cc="http://creativecommons.org/ns#"
   xmlns:rdf="http://www.w3.org/1999/02/22-rdf-syntax-ns#"
   xmlns:svg="http://www.w3.org/2000/svg"
   xmlns="http://www.w3.org/2000/svg"
   xmlns:sodipodi="http://sodipodi.sourceforge.net/DTD/sodipodi-0.dtd"
   xmlns:inkscape="http://www.inkscape.org/namespaces/inkscape"
   version="1.1"
   id="LOGO"
   x="0px"
   y="0px"
   viewBox="0 0 4142.1279 1462.0699"
   xml:space="preserve"
   sodipodi:docname="vub-greyscale.svg"
   inkscape:version="0.92.3 (2405546, 2018-03-11)"
   width="4142.1279"
   height="1462.0699"><metadata
   id="metadata18560"><rdf:RDF><cc:Work
       rdf:about=""><dc:format>image/svg+xml</dc:format><dc:type
         rdf:resource="http://purl.org/dc/dcmitype/StillImage" /><dc:title></dc:title></cc:Work></rdf:RDF></metadata><defs
   id="defs18558" /><sodipodi:namedview
   pagecolor="#ffffff"
   bordercolor="#666666"
   borderopacity="1"
   objecttolerance="10"
   gridtolerance="10"
   guidetolerance="10"
   inkscape:pageopacity="0"
   inkscape:pageshadow="2"
   inkscape:window-width="1920"
   inkscape:window-height="1056"
   id="namedview18556"
   showgrid="false"
   inkscape:zoom="0.13624454"
   inkscape:cx="3215.406"
   inkscape:cy="-797.65851"
   inkscape:window-x="0"
   inkscape:window-y="24"
   inkscape:window-maximized="1"
   inkscape:current-layer="LOGO"
   fit-margin-top="0"
   fit-margin-left="0"
   fit-margin-right="0"
   fit-margin-bottom="0" />
<style
   type="text/css"
   id="style18497">
	.st0{fill:#003399;}
	.st1{fill:#FF6600;}
</style>
<rect
   style="opacity:1;vector-effect:none;fill:#b4b4b4;fill-opacity:1;stroke:#000000;stroke-width:1.98472846px;stroke-linecap:butt;stroke-linejoin:miter;stroke-miterlimit:4;stroke-dasharray:none;stroke-dashoffset:0;stroke-opacity:1"
   id="rect19105"
   width="1460.1051"
   height="1460.0852"
   x="137.08521"
   y="0.99236423" /><polygon
   class="st0"
   points="1065.29,365.04 1016.23,242.48 1000.88,242.48 1058.66,382.47 1071.92,382.47 1130.07,242.48 1114.73,242.48 "
   id="polygon18499"
   style="fill:#b4b4b4;fill-opacity:1"
   transform="matrix(1.9847284,0,0,1.9847284,-135.75542,-285.78108)" />
<path
   class="st0"
   d="m 2177.8028,220.66207 h 43.9816 c 21.8121,0 44.3587,0 62.7968,13.15875 15.7984,10.89616 25.9404,30.44573 25.9404,49.61821 0,24.80911 -13.1588,45.86707 -36.1022,56.38614 -18.4183,8.27631 -40.9847,7.52212 -60.5342,7.52212 h -8.2764 l 94.3739,125.95086 h 34.5938 l -78.1983,-103.7616 c 45.1129,-1.1313 81.9494,-37.96785 81.9494,-83.45783 0,-32.33123 -15.0442,-60.91132 -43.2274,-77.067 -23.3007,-13.15875 -52.635,-13.53585 -78.9525,-13.53585 h -66.1708 V 473.318 h 27.8259 z"
   id="path18501"
   style="fill:#b4b4b4;fill-opacity:1;stroke-width:1.98472846"
   inkscape:connector-curvature="0" />
<rect
   x="2388.7"
   y="195.47586"
   class="st0"
   width="27.825893"
   height="277.84213"
   id="rect18503"
   style="fill:#b4b4b4;fill-opacity:1;stroke-width:1.98472846" />
<path
   class="st0"
   d="m 2533.8234,478.20043 c 22.9434,0 44.7358,-9.03051 59.4029,-27.44879 14.6671,-18.04118 13.5358,-33.83962 15.0442,-55.63194 V 195.47587 h -27.8258 v 191.36751 c 0,11.65036 0.377,25.9404 -3.3741,36.83656 -6.3908,17.28699 -22.1893,27.82589 -40.6075,27.82589 -26.3175,0 -47.3755,-17.66408 -49.261,-43.98158 h -27.4488 c 1.1313,40.23045 33.4625,70.67618 74.0701,70.67618 z"
   id="path18505"
   style="fill:#b4b4b4;fill-opacity:1;stroke-width:1.98472846"
   inkscape:connector-curvature="0" />
<polygon
   class="st0"
   points="1491.11,318.25 1491.11,305.56 1430.68,305.56 1430.68,255.17 1493.19,255.17 1493.19,242.48 1416.66,242.48 1416.66,382.47 1493.19,382.47 1493.19,369.78 1430.68,369.78 1430.68,318.25 "
   id="polygon18507"
   style="fill:#b4b4b4;fill-opacity:1"
   transform="matrix(1.9847284,0,0,1.9847284,-135.75542,-285.78108)" />
<path
   class="st0"
   d="m 2036.8275,762.71125 c 0,21.81216 -1.8855,43.98158 -15.4213,62.04261 -11.6504,16.17554 -31.577,25.1862 -51.1266,25.1862 -21.8122,0 -42.493,-10.51906 -54.1434,-28.95718 -10.8962,-17.28699 -12.7816,-38.34496 -12.7816,-58.27163 V 593.91009 h -27.8259 v 168.80116 c 0,29.31444 3.0167,57.14033 22.1892,80.83799 17.6641,21.43506 44.7358,33.08542 72.5617,33.08542 28.5801,0 56.3861,-12.40455 73.693,-35.34801 18.0411,-23.30071 20.6808,-50.37241 20.6808,-78.5754 V 593.91009 h -27.8259 z"
   id="path18509"
   style="fill:#b4b4b4;fill-opacity:1;stroke-width:1.98472846"
   inkscape:connector-curvature="0" />
<polygon
   class="st0"
   points="1161.7,443.22 1142.76,443.22 1142.76,583.21 1156.78,583.21 1156.78,460.08 1240.13,583.21 1254.14,583.21 1254.14,443.22 1240.13,443.22 1240.13,559.34 "
   id="polygon18511"
   style="fill:#b4b4b4;fill-opacity:1"
   transform="matrix(1.9847284,0,0,1.9847284,-135.75542,-285.78108)" />
<rect
   x="2421.0312"
   y="593.89026"
   class="st0"
   width="27.825893"
   height="277.84213"
   id="rect18513"
   style="fill:#b4b4b4;fill-opacity:1;stroke-width:1.98472846" />
<polygon
   class="st0"
   points="1381.62,583.21 1394.88,583.21 1453.03,443.22 1437.69,443.22 1388.25,565.78 1339.19,443.22 1323.84,443.22 "
   id="polygon18515"
   style="fill:#b4b4b4;fill-opacity:1"
   transform="matrix(1.9847284,0,0,1.9847284,-135.75542,-285.78108)" />
<polygon
   class="st0"
   points="1474.62,583.21 1551.15,583.21 1551.15,570.52 1488.64,570.52 1488.64,518.99 1549.07,518.99 1549.07,506.3 1488.64,506.3 1488.64,455.91 1551.15,455.91 1551.15,443.22 1474.62,443.22 "
   id="polygon18517"
   style="fill:#b4b4b4;fill-opacity:1"
   transform="matrix(1.9847284,0,0,1.9847284,-135.75542,-285.78108)" />
<path
   class="st0"
   d="m 3191.3639,684.4931 c 0,-32.33123 -15.0442,-60.91132 -43.2274,-77.06701 -23.3007,-13.15875 -52.635,-13.53584 -78.9525,-13.53584 h -66.1708 v 277.84213 h 27.8259 V 619.07645 h 43.9816 c 21.8121,0 44.3586,0 62.7769,13.15875 15.7984,10.89616 25.9404,30.44573 25.9404,49.61821 0,24.80911 -13.1587,45.86708 -36.1022,56.38614 -18.4183,8.27632 -40.9846,7.52212 -60.5342,7.52212 h -8.2763 l 94.3738,125.95086 h 34.5938 l -78.1983,-103.7616 c 45.1327,-1.11145 81.9693,-37.96785 81.9693,-83.45783 z"
   id="path18519"
   style="fill:#b4b4b4;fill-opacity:1;stroke-width:1.98472846"
   inkscape:connector-curvature="0" />
<path
   class="st0"
   d="m 3366.1788,737.1281 c -16.1557,-14.66714 -33.4625,-18.04118 -53.3892,-23.67781 -27.0717,-7.52212 -54.8976,-15.42134 -54.8976,-48.88386 0,-26.3175 20.6809,-48.50677 47.7526,-48.50677 28.5801,0 48.8838,20.30377 50.7495,48.50677 h 28.9572 c 0.3771,-42.49304 -34.2168,-75.20136 -76.3128,-75.20136 -43.6045,0 -78.9525,30.06863 -78.9525,74.82426 0,19.92667 7.8992,38.72205 23.3007,51.8808 13.9129,12.02746 31.577,16.55264 48.8838,21.05797 15.7985,4.12823 30.0687,7.89922 42.8503,18.41828 11.6504,9.40761 19.1725,24.43201 19.1725,39.47625 0,31.95413 -25.9404,54.89759 -57.5174,54.89759 -31.2,0 -54.8976,-25.56331 -55.6518,-56.00904 h -29.6916 c -0.3771,48.50676 38.7221,82.70363 86.0976,82.70363 45.1128,0 84.5891,-35.34801 84.5891,-81.21508 0,-22.16942 -9.3878,-43.98159 -25.9404,-58.27163 z"
   id="path18521"
   style="fill:#b4b4b4;fill-opacity:1;stroke-width:1.98472846"
   inkscape:connector-curvature="0" />
<rect
   x="3439.4749"
   y="593.89026"
   class="st0"
   width="27.825893"
   height="277.84213"
   id="rect18523"
   style="fill:#b4b4b4;fill-opacity:1;stroke-width:1.98472846" />
<polygon
   class="st0"
   points="1882.64,583.21 1882.64,455.91 1914.46,455.91 1914.46,443.22 1836.42,443.22 1836.42,455.91 1868.62,455.91 1868.62,583.21 "
   id="polygon18525"
   style="fill:#b4b4b4;fill-opacity:1"
   transform="matrix(1.9847284,0,0,1.9847284,-135.75542,-285.78108)" />
<polygon
   class="st0"
   points="1949.5,570.52 1949.5,518.99 2009.93,518.99 2009.93,506.3 1949.5,506.3 1949.5,455.91 2012.01,455.91 2012.01,443.22 1935.48,443.22 1935.48,583.21 2012.01,583.21 2012.01,570.52 "
   id="polygon18527"
   style="fill:#b4b4b4;fill-opacity:1"
   transform="matrix(1.9847284,0,0,1.9847284,-135.75542,-285.78108)" />
<rect
   x="3917.6951"
   y="593.89026"
   class="st0"
   width="27.825893"
   height="277.84213"
   id="rect18529"
   style="fill:#b4b4b4;fill-opacity:1;stroke-width:1.98472846" />
<polygon
   class="st0"
   points="2109.56,583.21 2123.58,583.21 2123.58,455.91 2155.4,455.91 2155.4,443.22 2077.36,443.22 2077.36,455.91 2109.56,455.91 "
   id="polygon18531"
   style="fill:#b4b4b4;fill-opacity:1"
   transform="matrix(1.9847284,0,0,1.9847284,-135.75542,-285.78108)" />
<path
   class="st0"
   d="m 2005.6276,1121.6494 c 19.1725,-13.5359 30.8228,-31.5771 30.8228,-55.632 0,-24.0549 -12.7816,-46.6212 -32.7083,-59.78 -19.1725,-12.40453 -40.9846,-13.91292 -63.154,-13.91292 h -65.0396 v 277.84212 h 65.4167 c 27.8258,-0.3771 51.8808,0.3771 76.3128,-15.0442 21.435,-13.5359 34.2167,-38.345 34.2167,-63.5312 0,-31.974 -16.5527,-57.9144 -45.8671,-69.9418 z m -102.273,-104.1586 h 32.3312 c 16.5328,-0.7542 36.4594,-0.3771 50.7495,8.2763 12.7816,7.8993 22.1892,23.3008 22.1892,38.345 0,15.4213 -9.0305,31.577 -22.5663,38.7221 -15.7985,8.6534 -34.9709,8.2763 -52.635,8.2763 h -30.0686 z m 92.8654,219.1934 c -16.9099,8.6535 -39.8534,8.6535 -58.6487,8.2764 h -34.2167 v -108.6441 h 29.3342 c 18.4183,0 38.7221,-0.3771 56.0091,5.6366 21.435,7.5222 34.9709,26.3175 34.5938,49.9954 0.3771,17.664 -11.2733,36.4594 -27.0717,44.7357 z"
   id="path18533"
   style="fill:#b4b4b4;fill-opacity:1;stroke-width:1.98472846"
   inkscape:connector-curvature="0" />
<path
   class="st0"
   d="m 2290.2178,1082.9273 c 0,-32.3312 -15.0442,-60.9113 -43.2274,-77.067 -23.3007,-13.15872 -52.635,-13.53582 -78.9525,-13.53582 h -66.1708 v 277.84212 h 27.8259 v -252.6559 h 43.9816 c 21.8121,0 44.3586,0 62.7769,13.1587 15.7985,10.8962 25.9404,30.4458 25.9404,49.6182 0,24.8091 -13.1587,45.8671 -36.1022,56.3862 -18.4183,8.2763 -40.9846,7.5221 -60.5342,7.5221 h -8.2763 l 94.3738,125.9509 h 34.5938 l -78.1983,-103.7616 c 45.1129,-1.1313 81.9693,-37.9679 81.9693,-83.4579 z"
   id="path18535"
   style="fill:#b4b4b4;fill-opacity:1;stroke-width:1.98472846"
   inkscape:connector-curvature="0" />
<path
   class="st0"
   d="m 2501.8693,1161.1256 c 0,21.8122 -1.8855,43.9816 -15.4214,62.0426 -11.6503,16.1756 -31.577,25.1862 -51.1266,25.1862 -21.8122,0 -42.4732,-10.519 -54.1434,-28.9571 -10.8961,-17.287 -12.7816,-38.345 -12.7816,-58.2717 V 992.32448 h -27.8259 v 168.80112 c 0,29.3145 3.0168,57.1404 22.1892,80.838 17.6641,21.4351 44.7358,33.0854 72.5617,33.0854 28.5801,0 56.3861,-12.4045 73.693,-35.348 18.0412,-23.3007 20.6808,-50.3724 20.6808,-78.5754 V 992.32448 h -27.8258 z"
   id="path18537"
   style="fill:#b4b4b4;fill-opacity:1;stroke-width:1.98472846"
   inkscape:connector-curvature="0" />
<path
   class="st0"
   d="m 2721.797,1135.5425 c -16.1755,-14.6672 -33.4625,-18.0412 -53.3892,-23.6778 -27.0717,-7.5222 -54.8976,-15.4214 -54.8976,-48.8839 0,-26.3175 20.6809,-48.5068 47.7526,-48.5068 28.5801,0 48.8839,20.3038 50.7495,48.5068 h 28.9572 c 0.3771,-42.493 -34.2167,-75.20135 -76.3128,-75.20135 -43.6045,0 -78.9525,30.06865 -78.9525,74.82425 0,19.9267 7.8992,38.7221 23.3007,51.8808 13.9129,12.0275 31.577,16.5526 48.8839,21.058 15.7984,4.1282 30.0686,7.8992 42.8701,18.4183 11.6503,9.4076 19.1725,24.432 19.1725,39.4762 0,31.9541 -25.9404,54.8976 -57.5175,54.8976 -31.1999,0 -54.8976,-25.5633 -55.6518,-56.009 h -29.6915 c -0.3771,48.5067 38.7221,82.7036 86.0975,82.7036 45.1129,0 84.5892,-35.348 84.5892,-81.2151 -0.02,-22.1694 -9.4077,-43.9816 -25.9603,-58.2716 z"
   id="path18539"
   style="fill:#b4b4b4;fill-opacity:1;stroke-width:1.98472846"
   inkscape:connector-curvature="0" />
<path
   class="st0"
   d="m 2919.5553,1135.5425 c -16.1755,-14.6672 -33.4625,-18.0412 -53.3891,-23.6778 -27.0717,-7.5222 -54.8976,-15.4214 -54.8976,-48.8839 0,-26.3175 20.6808,-48.5068 47.7525,-48.5068 28.5801,0 48.8839,20.3038 50.7495,48.5068 h 28.9572 c 0.3771,-42.493 -34.2167,-75.20135 -76.3128,-75.20135 -43.6045,0 -78.9525,30.06865 -78.9525,74.82425 0,19.9267 7.8992,38.7221 23.3007,51.8808 13.913,12.0275 31.5771,16.5526 48.8839,21.058 15.7984,4.1282 30.0686,7.8992 42.8503,18.4183 11.6503,9.4076 19.1725,24.432 19.1725,39.4762 0,31.9541 -25.9404,54.8976 -57.5175,54.8976 -31.1999,0 -54.8976,-25.5633 -55.6319,-56.009 h -29.6915 c -0.3771,48.5067 38.722,82.7036 86.0975,82.7036 45.1128,0 84.5891,-35.348 84.5891,-81.2151 -0.02,-22.1694 -9.4275,-43.9816 -25.9603,-58.2716 z"
   id="path18541"
   style="fill:#b4b4b4;fill-opacity:1;stroke-width:1.98472846"
   inkscape:connector-curvature="0" />
<polygon
   class="st0"
   points="1590.36,771.26 1590.36,719.73 1650.78,719.73 1650.78,707.04 1590.36,707.04 1590.36,656.65 1652.87,656.65 1652.87,643.96 1576.34,643.96 1576.34,783.95 1652.87,783.95 1652.87,771.26 "
   id="polygon18543"
   style="fill:#b4b4b4;fill-opacity:1"
   transform="matrix(1.9847284,0,0,1.9847284,-135.75542,-285.78108)" />
<polygon
   class="st0"
   points="1755.16,783.95 1755.16,771.26 1697.19,771.26 1697.19,643.96 1683.17,643.96 1683.17,783.95 "
   id="polygon18545"
   style="fill:#b4b4b4;fill-opacity:1"
   transform="matrix(1.9847284,0,0,1.9847284,-135.75542,-285.78108)" />
<path
   class="st0"
   d="m 137.08519,390.29681 178.40724,503.72407 h 0.55572 L 467.93942,450.25545 c 0,0 0.21832,-0.63511 0.57557,-1.54808 9.88395,-33.76023 41.2625,-58.41056 78.21815,-58.41056 l 38.08694,-0.0199 116.8608,0.0199 v 460.77455 c 0.55573,22.52667 2.99694,44.37853 13.19845,64.78153 16.53279,29.07627 47.07776,49.85638 83.02119,54.1037 1.23053,0.13893 2.46106,0.25801 3.69159,0.3771 3.2748,0.27786 6.56945,0.43664 9.92364,0.43664 v 0 0 c 3.33435,0 6.64885,-0.15878 9.92365,-0.43664 1.23053,-0.0992 2.48091,-0.21832 3.69159,-0.3771 35.94343,-4.26717 66.50825,-25.04727 83.02119,-54.1037 10.20151,-20.403 12.62287,-42.25486 13.19845,-64.78153 V 390.29681 h 122.02107 v 434.79445 c 0,48.94341 -3.0366,95.86239 -22.8045,138.07756 -36.0625,71.47008 -111.20433,121.62418 -198.98887,125.19668 -3.33435,0.1389 -6.68854,0.2183 -10.06258,0.2183 v 0 0 c -3.37403,0 -6.72822,-0.079 -10.06257,-0.2183 -87.78454,-3.5725 -162.9462,-53.7266 -198.98887,-125.19668 -19.76789,-42.23502 -22.80453,-89.154 -22.80453,-138.07756 V 517.20034 h -0.99236 l -1.38931,4.24732 L 378.36863,1071.535 H 255.27577 L 137.08519,751.65631 V 616.13905 1461.0776 H 1597.1903 V 0.99232653 H 137.08519 Z m 944.35361,0 158.3417,-0.27786 c 61.8242,0 124.5417,-2.77862 181.7415,25.82131 56.2869,28.59994 95.9418,89.4914 95.9418,153.14164 0,53.50828 -24.9083,106.10359 -74.725,130.07911 74.725,23.99537 116.2455,87.64561 116.2455,165.1294 0,66.42886 -30.4457,122.71576 -83.0212,162.37059 -54.4411,39.6748 -123.6287,43.3664 -189.1247,45.1923 H 1081.3197 Z M 315.77029,886.57815 v 0 l -0.0199,0.0397 z"
   id="path18547"
   style="fill:#4d4d4d;fill-opacity:1;stroke-width:1.98472846"
   inkscape:connector-curvature="0" />
<path
   class="st0"
   d="m 1352.3542,641.88098 c 23.9954,-11.07479 38.7618,-36.91595 38.7618,-62.73727 0,-27.68696 -17.5252,-49.81668 -42.4335,-59.95864 -18.6961,-8.07785 -56.267,-6.45037 -83.0212,-6.45037 l -57.4579,-0.0992 v 139.54626 l 58.3907,-0.13893 c 26.7145,-0.0199 61.7648,0.91297 85.7601,-10.16181 z"
   id="path18549"
   style="fill:#4d4d4d;fill-opacity:1;stroke-width:1.98472846"
   inkscape:connector-curvature="0" />
<path
   class="st0"
   d="m 1399.4122,925.12158 c 23.0625,-15.67936 33.2045,-37.82893 33.2045,-66.42886 0,-33.20451 -15.6794,-53.50828 -45.2121,-70.12046 -28.6,-14.76638 -59.0457,-13.83356 -89.4915,-13.83356 h -89.7494 v 174.3187 l 86.9708,0.0397 c 36.916,0 71.0533,-1.82595 104.2777,-23.97551 z"
   id="path18551"
   style="fill:#4d4d4d;fill-opacity:1;stroke-width:1.98472846"
   inkscape:connector-curvature="0" />
<polygon
   class="st1"
   points="137.47,340.64 68.4,340.64 137.47,522.8 137.47,408.92 "
   id="polygon18553"
   style="fill:#808080;fill-opacity:1"
   transform="matrix(1.9847284,0,0,1.9847284,-135.75542,-285.78108)" />
</svg>